<svg width="32" height="22" viewBox="0 0 32 22" fill="none" xmlns="http://www.w3.org/2000/svg">
<path d="M30.996 11.715C30.6141 11.715 30.2622 11.7213 29.9073 11.7056C29.8532 11.7056 29.772 11.6023 29.76 11.5365C29.4863 10.0898 28.8518 8.85601 27.7962 7.86648C27.0413 7.15877 26.1572 6.73916 25.1587 6.57632C24.8941 6.53248 24.6294 6.5137 24.3137 6.47612C24.6776 7.32787 25.0084 8.14517 25.1016 9.09087C24.6475 9.09087 24.2265 9.10026 23.8054 9.08147C23.7483 9.08147 23.6701 8.94682 23.6491 8.86227C23.4235 7.94789 23.1107 7.07109 22.6115 6.27884C21.4206 4.38119 19.7876 3.13175 17.6404 2.65577C16.7653 2.46162 15.8931 2.45223 15.003 2.5994C13.1234 2.90942 11.5535 3.77682 10.3145 5.28617C10.2604 5.35193 10.2123 5.41769 10.1461 5.50537C12.0888 6.05651 13.4482 7.331 14.4977 9.06581C14.4255 9.07834 14.3834 9.09087 14.3413 9.09087C14.0406 9.09087 13.7369 9.06581 13.4391 9.09713C13.1444 9.12844 12.976 8.99692 12.8016 8.77146C12.1249 7.89466 11.2799 7.25585 10.2634 6.87381C7.72219 5.92499 4.86822 6.92078 3.35553 9.20673C2.65482 10.2652 2.26988 11.4394 2.1947 12.7077C2.03832 15.36 3.43673 18.0092 5.79148 19.1271C7.83045 20.0947 9.79124 19.8693 11.6347 18.5572C12.2031 18.1532 12.7114 17.6741 13.0933 17.0635C13.1925 16.9069 13.3158 16.8474 13.4993 16.8537C13.8602 16.8693 14.221 16.8568 14.6391 16.8568C14.2601 17.6052 13.779 18.2284 13.2798 18.839C13.779 19.4747 16.6991 19.6375 18.3201 19.1208C20.5485 18.4131 23.207 15.7389 23.3453 14.0417C23.2611 14.0417 23.1769 14.0417 23.0957 14.0417C21.0988 14.0417 19.102 14.0417 17.1051 14.0417C16.9026 14.0417 16.8003 13.9352 16.7983 13.7223C16.7983 13.4498 16.7983 13.1774 16.7923 12.905C16.7893 12.7609 16.8465 12.6983 16.9818 12.6983C17.2434 12.6983 17.5051 12.6826 17.7667 12.6826C20.1726 12.6826 22.5754 12.6826 24.9813 12.6826C25.0415 12.6826 25.1016 12.692 25.1948 12.6983C24.6475 15.2097 23.5769 17.3672 21.595 18.9925C22.2116 19.3056 22.8371 19.5154 23.4987 19.5655C25.7632 19.7409 27.4834 18.7263 28.8127 16.885C29.1495 16.4153 29.4502 15.9205 29.6066 15.3475C29.6246 15.2848 29.6998 15.194 29.7509 15.194C30.1329 15.1815 30.5148 15.1878 30.9328 15.1878C30.8877 15.3318 30.8577 15.4383 30.8216 15.5416C30.3073 17.0447 29.5134 18.3599 28.2924 19.3432C27.0233 20.3672 25.5978 20.9903 23.9618 20.9308C22.7348 20.887 21.577 20.5582 20.5124 19.9037C20.3951 19.8317 20.3259 19.8348 20.2057 19.9037C19.3365 20.4016 18.4163 20.7429 17.4239 20.8807C15.851 21.0968 14.3233 20.9308 12.8467 20.3139C12.6392 20.2262 12.4287 20.1417 12.2392 20.0258C12.0377 19.9006 11.8783 19.9413 11.6889 20.054C11.4092 20.22 11.1175 20.3672 10.8228 20.5018C9.87845 20.9371 8.88302 21.0404 7.86353 20.9872C5.92981 20.8901 4.32389 20.0478 3.03074 18.5885C1.79773 17.1825 1.091 15.5228 1.00981 13.5939C0.919586 11.43 1.44587 9.4729 2.83827 7.83516C3.86377 6.62643 5.11482 5.74336 6.65458 5.39891C7.16884 5.28304 7.70414 5.24233 8.23344 5.22355C8.51011 5.21415 8.68454 5.13273 8.84393 4.90101C9.67997 3.69541 10.7446 2.75598 11.9986 2.05767C13.6106 1.16208 15.3368 0.842669 17.1562 1.07126C19.7696 1.40006 21.7905 2.7779 23.3844 4.89788C23.5288 5.08889 23.6491 5.18284 23.8896 5.16092C24.9272 5.0701 25.9166 5.28304 26.8368 5.77781C28.2683 6.54501 29.4171 7.63162 30.196 9.11592C30.59 9.86746 30.8516 10.6691 30.996 11.5115C31.005 11.571 30.996 11.6367 30.996 11.7213V11.715Z" fill="#343434" stroke="#343434"/>
</svg>
