<svg width="10" height="8" viewBox="0 0 10 8" fill="none" xmlns="http://www.w3.org/2000/svg">
<path d="M8.75346 4.44736C8.44778 4.44736 8.20694 4.67473 8.20694 4.9442V5.83593C8.20694 6.47593 7.63262 7.00646 6.91936 7.00646H2.88063C2.17663 7.00646 1.59305 6.48435 1.59305 5.83593V2.16436C1.59305 1.52436 2.16737 0.993833 2.88063 0.993833H3.71729C4.02297 0.993833 4.26381 0.766465 4.26381 0.496992C4.26381 0.227518 4.02297 0 3.71729 0H2.88063C1.56526 0 0.5 0.96842 0.5 2.16421V5.82736C0.5 7.03157 1.56526 7.99999 2.88063 7.99999H6.9101C8.23473 7.99999 9.29999 7.03157 9.29999 5.83578V4.94405C9.29999 4.66616 9.04988 4.44721 8.75346 4.44721V4.44736Z" fill="#165F83"/>
<path d="M8.16963 3.28978C8.16963 3.56633 8.42821 3.78421 8.73468 3.78421C9.04116 3.78421 9.29974 3.55795 9.29974 3.28978V0.494425C9.29974 0.217882 9.04116 0 8.73468 0H5.52289C5.20684 0 4.95783 0.226262 4.95783 0.494425C4.95783 0.762588 5.21642 0.98885 5.52289 0.98885H7.36514L3.06496 4.75151C2.84468 4.94425 2.84468 5.26269 3.06496 5.45544C3.28523 5.64818 3.64917 5.64818 3.86945 5.45544L8.16963 1.69278V3.28978Z" fill="#165F83"/>
</svg>
