<svg width="20" height="20" viewBox="0 0 20 20" fill="none" xmlns="http://www.w3.org/2000/svg">
<g clip-path="url(#clip0_9905_11135)">
<path d="M11.0527 12.2105V4.10527H9.05267V12.2105L6.42109 9.68422L5.05267 11.0526L10 16L14.9474 11.0526L13.579 9.68422L11.0527 12.2105Z" fill="#343434"/>
<path d="M16.9474 0.10527H3.05265C1.36844 0.10527 0.105286 1.36843 0.105286 3.05264V16.9474C0.105286 18.6316 1.36844 19.8947 3.05265 19.8947H16.9474C18.6316 19.8947 19.8948 18.6316 19.8948 16.9474V3.05264C19.8948 1.36843 18.6316 0.10527 16.9474 0.10527ZM18 16.9474C18 17.579 17.579 17.8947 17.0527 17.8947H3.05265C2.42108 17.8947 2.10529 17.4737 2.10529 16.9474V3.05264C2.10529 2.42106 2.42108 2.10527 3.05265 2.10527H16.9474C17.579 2.10527 17.8948 2.52632 17.8948 3.05264V16.9474H18Z" fill="#343434"/>
</g>
<defs>
<clipPath id="clip0_9905_11135">
<rect width="20" height="20" fill="white"/>
</clipPath>
</defs>
</svg>
