<svg width="24" height="17" viewBox="0 0 24 17" fill="none" xmlns="http://www.w3.org/2000/svg">
<path d="M19.35 6.16961C18.67 2.64558 15.64 2.9341e-08 12 2.25123e-08C9.11 1.70906e-08 6.6 1.67519 5.35 4.1267C2.34 4.45356 1.29633e-08 7.05828 1.87602e-08 10.2146C2.49699e-08 13.5956 2.69 16.3433 6 16.3433L19 16.3433C21.76 16.3433 24 14.0553 24 11.2361C24 8.5394 21.95 6.35348 19.35 6.16961ZM17 9.19313L12 14.3004L7 9.19313L10 9.19313L10 5.1073L14 5.1073L14 9.19313L17 9.19313Z" fill="#606060"/>
</svg>
