<svg width="32" height="30" viewBox="0 0 32 30" fill="none" xmlns="http://www.w3.org/2000/svg">
<rect x="0.5" y="0.5" width="31" height="29" rx="8.5" fill="white"/>
<rect x="0.5" y="0.5" width="31" height="29" rx="8.5" stroke="#ADADAD"/>
<g clip-path="url(#clip0_12386_21352)">
<path fill-rule="evenodd" clip-rule="evenodd" d="M9.58667 9.0001C9.58667 9.0001 9.53 9.0001 9.51111 9.0001C8.66111 9.04183 8 9.81381 8 10.7527V18.6603C8 19.4114 8.43444 20.0791 9.07667 20.3086L15.99 22.8958C16.3111 23.021 16.67 23.021 16.9911 22.8958L23.9044 20.3086C24.5467 20.0582 24.9811 19.3906 24.9811 18.6603V10.7527C24.9811 9.56344 23.9044 8.708 22.8844 9.08356L16.4811 11.483L10.0967 9.08356C9.92667 9.02096 9.75667 9.0001 9.58667 9.0001ZM23.4322 10.1059C23.7344 10.1059 23.98 10.3771 23.9989 10.7527V18.6603C23.9989 18.9315 23.8478 19.1819 23.6022 19.2862L17.01 21.7482V12.4636L23.2244 10.1476C23.2244 10.1476 23.3756 10.1059 23.4322 10.1059ZM9.60556 10.1059C9.60556 10.1059 9.71889 10.1059 9.77556 10.1476L15.99 12.4636V21.7274L9.39778 19.2654C9.15222 19.1819 9.00111 18.9315 9.00111 18.6603V10.7527C9.00111 10.398 9.24667 10.1268 9.56778 10.1059C9.56778 10.1059 9.60556 10.1059 9.62444 10.1059H9.60556ZM11.0222 11.8585C10.7956 11.8585 10.5878 12.0046 10.5122 12.2341C10.4178 12.5262 10.5689 12.8391 10.8333 12.9226L13.78 13.9867C14.0444 14.091 14.3278 13.9241 14.4033 13.632C14.4978 13.3399 14.3467 13.0269 14.0822 12.9435L11.1356 11.8794C11.1356 11.8794 11.06 11.8585 11.0033 11.8585H11.0222ZM21.9778 11.8585C21.9778 11.8585 21.8833 11.8585 21.8456 11.8794L18.8989 12.9435C18.6344 13.0478 18.5022 13.3399 18.5778 13.632C18.6722 13.9241 18.9556 14.0701 19.2011 13.9867L22.1478 12.9226C22.4122 12.8183 22.5633 12.5262 22.4689 12.2341C22.3933 12.0046 22.1856 11.8377 21.9589 11.8585H21.9778ZM11.0222 14.6543C10.7956 14.6543 10.5878 14.8004 10.5122 15.0299C10.4178 15.322 10.5689 15.635 10.8333 15.7184L13.78 16.7825C14.0444 16.8868 14.3278 16.7199 14.4033 16.4278C14.4978 16.1357 14.3467 15.8228 14.0822 15.7393L11.1356 14.6752C11.1356 14.6752 11.06 14.6543 11.0033 14.6543H11.0222ZM21.9778 14.6543C21.9778 14.6543 21.8833 14.6543 21.8456 14.6752L18.8989 15.7393C18.6344 15.8436 18.5022 16.1357 18.5778 16.4278C18.6722 16.7199 18.9367 16.8868 19.2011 16.7825L22.1478 15.7184C22.4122 15.6141 22.5633 15.322 22.4689 15.0299C22.3933 14.8004 22.1856 14.6335 21.9589 14.6543H21.9778ZM10.9467 17.4502C10.7389 17.4502 10.5689 17.6171 10.5122 17.8257C10.4178 18.1178 10.5689 18.4308 10.8333 18.5143L13.78 19.5783C14.0444 19.6827 14.3278 19.5157 14.4033 19.2236C14.4978 18.9315 14.3467 18.6186 14.0822 18.5351L11.1356 17.471C11.1356 17.471 11.0033 17.4293 10.9467 17.4502ZM21.9778 17.4502C21.9778 17.4502 21.8833 17.4502 21.8456 17.471L18.8989 18.5351C18.6344 18.6394 18.5022 18.9315 18.5778 19.2236C18.6722 19.5157 18.9367 19.6827 19.2011 19.5783L22.1478 18.5143C22.4122 18.4099 22.5633 18.1178 22.4689 17.8257C22.3933 17.5962 22.1856 17.4293 21.9589 17.4502H21.9778Z" fill="#577898"/>
</g>
<defs>
<clipPath id="clip0_12386_21352">
<rect width="17" height="14" fill="white" transform="translate(8 9)"/>
</clipPath>
</defs>
</svg>
