<svg width="24" height="21" viewBox="0 0 24 21" fill="none" xmlns="http://www.w3.org/2000/svg">
<g clip-path="url(#clip0_14227_15595)">
<path d="M19.5978 13.2173C17.4435 13.2173 15.6953 14.9586 15.6953 17.1043C15.6953 19.25 17.4435 20.9912 19.5978 20.9912C21.7521 20.9912 23.5003 19.25 23.5003 17.1043C23.5003 14.9586 21.7521 13.2173 19.5978 13.2173Z" fill="#07679C"/>
<path d="M19.8885 18.8806L22.0605 16.4447C22.29 16.1897 22.1046 15.7939 21.7691 15.7939H17.4251C17.0808 15.7939 16.9042 16.1985 17.1338 16.4447L19.3058 18.8806C19.4647 19.0565 19.7384 19.0565 19.8973 18.8806H19.8885Z" fill="white"/>
<g clip-path="url(#clip1_14227_15595)">
<path d="M6.495 10.5792C6.99826 10.5792 7.46621 10.4736 7.9165 10.3241C6.65393 9.0666 5.86813 7.3166 5.86813 5.39951C5.86813 4.19474 6.17715 3.06031 6.71573 2.07539C6.6451 2.07539 6.57446 2.0578 6.50383 2.0578C4.13761 2.0578 2.22168 3.96609 2.22168 6.32288C2.22168 8.67966 4.13761 10.588 6.50383 10.588L6.495 10.5792Z" fill="#07679C"/>
<path d="M16.6914 9.19816C18.805 7.09296 18.805 3.67975 16.6914 1.57455C14.5778 -0.530651 11.1509 -0.530651 9.03727 1.57455C6.92364 3.67975 6.92364 7.09296 9.03727 9.19816C11.1509 11.3034 14.5778 11.3034 16.6914 9.19816Z" fill="#07679C"/>
<path d="M14.1411 17.1395C14.1411 14.6947 15.8275 12.6457 18.0966 12.0741C17.6639 11.7312 17.1872 11.4498 16.6662 11.2387C15.5714 11.951 14.2647 12.3731 12.852 12.3731C11.4394 12.3731 10.1415 11.951 9.03784 11.2387C6.83055 12.1445 5.27661 14.299 5.27661 16.8229V17.6847C5.27661 18.3266 5.7269 18.8807 6.3626 19.0038C8.17258 19.3468 10.3622 19.6194 12.852 19.6194C13.5054 19.6194 14.1234 19.593 14.7327 19.5578C14.353 18.8367 14.1411 18.0189 14.1411 17.1483V17.1395Z" fill="#07679C"/>
<path d="M3.13109 11.098C1.57716 11.8894 0.5 13.4899 0.5 15.3542V16.0402C0.5 16.5502 0.861996 16.9899 1.35643 17.0867C2.06276 17.2186 2.84856 17.3417 3.69616 17.4296V16.8228C3.69616 15.0377 4.33186 13.3756 5.40019 12.0565C4.57025 11.8982 3.79328 11.5728 3.12227 11.1068L3.13109 11.098Z" fill="#07679C"/>
<path d="M15.6951 17.1043C15.6951 19.25 17.4432 20.9912 19.5976 20.9912C21.7519 20.9912 23.5001 19.25 23.5001 17.1043C23.5001 14.9585 21.7519 13.2173 19.5976 13.2173C17.4432 13.2173 15.6951 14.9585 15.6951 17.1043Z" fill="#07679C"/>
<path d="M21.3808 16.8143L18.9351 14.6509C18.6791 14.4223 18.2817 14.607 18.2817 14.9411L18.2817 19.2678C18.2817 19.6107 18.6879 19.7866 18.9351 19.558L21.3808 17.3947C21.5574 17.2364 21.5574 16.9638 21.3808 16.8055L21.3808 16.8143Z" fill="white"/>
</g>
</g>
<defs>
<clipPath id="clip0_14227_15595">
<rect width="23" height="21" fill="white" transform="translate(0.5)"/>
</clipPath>
<clipPath id="clip1_14227_15595">
<rect width="23" height="21" fill="white" transform="translate(0.5)"/>
</clipPath>
</defs>
</svg>
