<svg width="14" height="18" viewBox="0 0 14 18" fill="none" xmlns="http://www.w3.org/2000/svg">
<path d="M2.08071 3.55599H3.351V2.33489C3.351 1.7625 3.59118 1.24041 3.97903 0.862284C4.36687 0.48416 4.90061 0.25 5.4895 0.25C6.07838 0.25 6.61212 0.48416 6.99997 0.862284C7.38781 1.24041 7.62799 1.76076 7.62799 2.33489V3.55599H11.4211C11.9246 3.55599 12.3818 3.75719 12.7127 4.07981C13.0436 4.40243 13.25 4.8482 13.25 5.33907V15.4652C13.25 15.9561 13.0436 16.4018 12.7127 16.7262C12.3818 17.0505 11.9246 17.25 11.4211 17.25H2.07893C1.57544 17.25 1.11821 17.0488 0.787293 16.7262C0.456377 16.4036 0.25 15.9578 0.25 15.4652V5.34081C0.25 4.84994 0.456377 4.40417 0.787293 4.08155C1.11821 3.75893 1.57544 3.55772 2.07893 3.55772L2.08071 3.55599ZM2.95959 14.7454C2.73365 14.7454 2.5504 14.5667 2.5504 14.3464C2.5504 14.1261 2.73365 13.9475 2.95959 13.9475H10.5386C10.7646 13.9475 10.9478 14.1261 10.9478 14.3464C10.9478 14.5667 10.7646 14.7454 10.5386 14.7454H2.95959ZM2.95959 11.7082C2.73365 11.7082 2.5504 11.5296 2.5504 11.3093C2.5504 11.089 2.73365 10.9103 2.95959 10.9103H8.51221C8.73816 10.9103 8.92141 11.089 8.92141 11.3093C8.92141 11.5296 8.73816 11.7082 8.51221 11.7082H2.95959ZM4.16761 3.55599H6.8096V2.33489C6.8096 1.98105 6.66015 1.66016 6.42175 1.426C6.18335 1.19184 5.85244 1.04788 5.4895 1.04788C5.12656 1.04788 4.79742 1.19358 4.55724 1.426C4.31706 1.66016 4.16939 1.98105 4.16939 2.33489V3.55599H4.16761ZM6.8096 6.1647C6.8096 5.94442 6.99285 5.76576 7.2188 5.76576C7.44474 5.76576 7.62799 5.94442 7.62799 6.1647C7.62799 6.73709 7.38781 7.25918 6.99997 7.63731C6.61212 8.01543 6.07838 8.24959 5.4895 8.24959C4.90061 8.24959 4.36687 8.01543 3.97903 7.63731C3.59118 7.25918 3.351 6.73883 3.351 6.1647V4.35387H2.08071C1.80317 4.35387 1.55053 4.46488 1.36551 4.64353C1.18048 4.82219 1.06661 5.06849 1.06661 5.34081V15.4669C1.06661 15.7375 1.18048 15.9838 1.36551 16.1642C1.54875 16.3428 1.80139 16.4539 2.08071 16.4539H11.4211C11.6986 16.4539 11.9512 16.3428 12.1363 16.1642C12.3213 15.9855 12.4352 15.7392 12.4352 15.4669V5.34081C12.4352 5.07022 12.3213 4.82392 12.1363 4.64353C11.953 4.46488 11.7004 4.35387 11.4211 4.35387H4.16939V6.1647C4.16939 6.51854 4.31884 6.83943 4.55724 7.07359C4.79564 7.30775 5.12656 7.45171 5.4895 7.45171C5.85244 7.45171 6.18157 7.30602 6.42175 7.07359C6.66193 6.83943 6.8096 6.51854 6.8096 6.1647Z" fill="#577898" stroke="#577898" stroke-width="0.5"/>
</svg>
