<svg width="26" height="26" viewBox="0 0 26 26" fill="none" xmlns="http://www.w3.org/2000/svg">
<g clip-path="url(#clip0_17669_27970)">
<path d="M25.9466 15.6704C25.779 14.9124 25.338 14.1456 24.5884 13.3348C23.0979 11.7219 20.9724 10.5321 18.891 10.1619C18.8557 10.1619 18.4853 10.1267 18.4412 10.1267C18.3706 10.1267 18.1501 10.1267 17.9914 10.1443L18.2295 9.87987C18.5382 9.54496 18.8204 9.13072 19.0674 8.64597C19.4642 7.89682 19.914 6.70699 19.8523 5.30564V5.11174L20.0375 5.07648C20.1257 5.05886 20.2051 5.05004 20.2933 5.0236C20.7431 4.90903 21.1488 4.67106 21.4663 4.35377C21.8279 3.99242 22.066 3.53411 22.1366 3.04936C22.2159 2.50292 22.0836 1.91242 21.7661 1.34835C21.4575 0.793094 21.0077 0.370043 20.5049 0.158517C19.9493 -0.0706353 19.4025 -0.0265675 19.0497 0.0527545C18.6352 0.149704 18.2383 0.334788 17.8503 0.599195C17.6298 0.757839 17.4269 0.942924 17.2417 1.18089L17.1359 1.31309L16.9859 1.24258C15.9188 0.775466 14.587 0.5375 13.0083 0.5375C11.4296 0.5375 10.0979 0.775466 9.03954 1.24258L8.88961 1.31309L8.78377 1.18089C8.59856 0.951738 8.39572 0.757839 8.17523 0.599195C7.79599 0.325975 7.39029 0.14089 6.97577 0.0527545C6.73764 -0.000126828 6.49951 -0.0177539 6.26139 -0.00894038C6.00562 0.00868673 5.74985 0.0615681 5.52055 0.158517C5.01783 0.370043 4.57685 0.775466 4.25935 1.34835C3.94185 1.91242 3.81837 2.50292 3.88893 3.04936C3.95949 3.53411 4.18879 3.99242 4.55922 4.35377C4.88554 4.67106 5.29124 4.90021 5.73221 5.0236C5.81159 5.04123 5.89979 5.05886 5.98798 5.07648L6.18201 5.11174V5.30564C6.10263 6.70699 6.56125 7.89682 6.95813 8.64597C7.1698 9.04258 7.41675 9.41275 7.69015 9.74767L7.82244 9.90631L7.67251 10.0473C7.67251 10.0473 7.64605 10.0738 7.62841 10.0914C7.46966 10.109 7.24036 10.1443 7.23154 10.1531C7.19626 10.1531 7.16098 10.1531 7.1257 10.1531C5.04429 10.5233 2.90996 11.7131 1.42828 13.326C0.687438 14.1368 0.246461 14.8948 0.0788894 15.6616C-0.106321 16.5253 0.184724 17.4155 0.82855 17.9355C1.42828 18.429 2.16912 18.6317 2.85704 18.5172C3.35094 18.429 3.80955 18.1999 4.29463 17.8033L4.60331 17.5477L4.66505 18.0412L4.59449 18.1558C3.7831 19.0107 3.31566 20.2094 3.31566 21.4344C3.31566 23.9463 5.16776 25.9822 7.43439 25.9822C8.73086 25.9822 9.92149 25.3124 10.7153 24.149L10.8123 24.008L10.9798 24.0697C11.8883 24.4134 12.7261 24.3253 12.8231 24.3165C12.9819 24.3253 13.9785 24.4399 14.9663 23.9728L15.1427 23.8934L15.2485 24.0609C16.0334 25.2948 17.2594 25.9999 18.6087 25.9999C20.8842 25.9999 22.7275 23.9639 22.7275 21.4521C22.7275 20.2887 22.3218 19.1782 21.5809 18.3144L20.5402 17.107L21.872 17.9883C22.3041 18.2792 22.7275 18.4555 23.1596 18.526C23.874 18.6494 24.6237 18.4378 25.2234 17.9531C25.8672 17.4331 26.1583 16.5341 25.9731 15.6792L25.9466 15.6704ZM18.3353 1.78903C18.4147 1.71852 18.4764 1.65682 18.547 1.60394C18.7851 1.42767 19.0674 1.30428 19.3143 1.24258C19.4466 1.20733 19.5701 1.19852 19.6935 1.20733C19.817 1.20733 19.9317 1.24259 20.0463 1.28665C20.3109 1.39242 20.5226 1.60394 20.7166 1.94767C20.9106 2.2914 20.9812 2.59106 20.9459 2.88191C20.9106 3.11106 20.8048 3.31377 20.6284 3.49886C20.4608 3.66631 20.2227 3.79852 19.9934 3.86021C19.8964 3.88665 19.8082 3.89547 19.7376 3.89547H19.5877L19.526 3.75445C19.2702 3.11987 18.8733 2.56462 18.3618 2.11513L18.1766 1.95648L18.353 1.78903H18.3353ZM6.49951 3.75445L6.43778 3.89547H6.28784C6.20847 3.89547 6.12909 3.87784 6.02326 3.86021C5.79395 3.79852 5.55582 3.66631 5.38825 3.49886C5.20304 3.32258 5.10603 3.11987 5.07075 2.88191C5.02665 2.59106 5.10603 2.2914 5.30006 1.94767C5.49409 1.60394 5.70576 1.39242 5.97034 1.28665C6.085 1.24259 6.19965 1.21614 6.32312 1.20733C6.43778 1.20733 6.57007 1.20733 6.70236 1.24258C6.94049 1.29547 7.22272 1.42767 7.46084 1.60394C7.54022 1.65682 7.60196 1.71852 7.66369 1.7714L7.84008 1.93886L7.67251 2.10631C7.15216 2.56462 6.7641 3.11106 6.50833 3.74564L6.49951 3.75445ZM7.37265 5.34089C7.43438 4.3097 7.83126 3.51648 8.59856 2.90835C9.55107 2.15038 11.0328 1.7714 12.9995 1.7714C14.9663 1.7714 16.4568 2.15919 17.4093 2.90835C18.1766 3.51648 18.5823 4.3097 18.6352 5.34089C18.6793 6.21343 18.45 7.21818 17.9914 8.08191C17.8855 8.29343 17.7532 8.49614 17.5769 8.71648L17.3123 9.06903L17.1888 8.64597C17.0124 8.04665 16.6684 7.51784 16.1922 7.12123C15.4072 6.47784 14.3048 6.14292 12.9995 6.13411C11.6854 6.13411 10.583 6.47784 9.80684 7.12123C9.33059 7.51784 8.98662 8.03784 8.81023 8.64597L8.68676 9.06903L8.42217 8.71648C8.2546 8.49614 8.12231 8.28462 8.01647 8.08191C7.56668 7.22699 7.32855 6.20462 7.37265 5.34089ZM12.5585 8.4697C12.6644 8.59309 12.8143 8.65479 12.9819 8.6636C13.3258 8.68123 13.5992 8.41682 13.6081 8.08191V7.38564L13.8726 7.4297C14.5077 7.53547 15.0456 7.7558 15.4337 8.07309C15.8923 8.45208 16.1216 8.91038 16.1128 9.43919C16.1128 9.80936 15.9805 10.3558 15.3808 10.8406C14.9839 11.1667 14.2607 11.5544 13.0348 11.5721C11.756 11.5544 11.0239 11.1667 10.6271 10.8406C10.0361 10.3558 9.89504 9.80936 9.89504 9.43919C9.89504 8.91919 10.1243 8.44326 10.583 8.07309C10.971 7.7558 11.5178 7.53547 12.1528 7.4297L12.4174 7.38564V8.03784C12.3998 8.2053 12.4527 8.35513 12.5674 8.47852L12.5585 8.4697ZM3.62434 16.7809C3.28038 17.0806 2.9276 17.2744 2.61892 17.3361C2.53954 17.3538 2.46017 17.3626 2.37197 17.3626C2.12502 17.3626 1.88689 17.2833 1.56057 17.0189C1.15487 16.6928 1.12841 16.4107 1.23425 15.9436C1.3489 15.4324 1.74578 14.7714 2.29259 14.1721C3.13045 13.2555 4.40046 12.3917 5.68812 11.8717L6.3143 11.6161L5.96152 12.189C5.30888 13.2467 4.87672 14.3483 4.67387 15.4589L4.64741 15.5294C4.47984 15.8114 4.11824 16.3402 3.61552 16.7897L3.62434 16.7809ZM7.42557 24.7924C5.82041 24.7924 4.51512 23.2941 4.51512 21.4521C4.51512 19.61 5.82041 18.1206 7.42557 18.1206C9.03072 18.1206 10.3272 19.6189 10.3272 21.4521C10.3272 23.2853 9.0219 24.7924 7.42557 24.7924ZM14.4724 21.4521C14.4724 21.8222 14.5165 22.21 14.6135 22.5978L14.6576 22.7741L14.49 22.8446C13.9167 23.109 13.0524 23.1178 12.9113 23.1178H12.8937C12.8408 23.1178 12.8143 23.1178 12.779 23.1178C12.7349 23.1178 12.0911 23.1178 11.5267 22.968L11.315 22.9063L11.3679 22.6948C11.4737 22.2806 11.5355 21.8487 11.5355 21.4344C11.5355 18.9314 9.69219 16.8867 7.42557 16.8867C6.96695 16.8867 6.51715 16.9748 6.07618 17.1422L5.77631 17.2568V16.9395C5.74103 13.5287 8.3428 11.0521 8.44863 10.9551C8.51037 10.9022 8.73968 10.6026 8.73968 10.6026L9.03954 10.7612L9.07482 10.8229C9.28649 11.1931 9.54226 11.5016 9.85094 11.7572C10.2919 12.1185 10.8652 12.3917 11.5531 12.568L11.8706 12.6473L10.0273 15.1063C9.91268 15.2385 9.85094 15.3972 9.86858 15.5558C9.88622 15.7144 9.94795 15.8643 10.0714 15.97C10.3272 16.1904 10.7064 16.1639 10.9269 15.9172C10.9446 15.8907 10.971 15.8643 10.9798 15.8378L12.9907 13.1585L14.9839 15.8202C15.0809 15.97 15.2132 16.0582 15.372 16.0934C15.5395 16.1287 15.6895 16.0934 15.8306 16.0053C15.9629 15.9172 16.0599 15.785 16.0952 15.6263C16.1305 15.4677 16.0952 15.309 16.007 15.168C15.9893 15.1416 15.9717 15.1239 15.9541 15.0975L14.102 12.6297L14.4195 12.5504C15.1074 12.3741 15.6807 12.1009 16.1216 11.7395C16.3862 11.5192 16.6155 11.2548 16.8272 10.9111L16.9859 10.6643L17.2241 10.9287C17.3387 11.0433 19.8876 13.467 19.9052 16.825V17.1246L19.623 17.0453C19.2702 16.9395 18.9086 16.8867 18.5646 16.8867C16.298 16.8867 14.4459 18.9226 14.4459 21.4344L14.4724 21.4521ZM21.4927 21.4521C21.4927 23.2941 20.1874 24.7924 18.5911 24.7924C16.9948 24.7924 15.6895 23.2941 15.6895 21.4521C15.6895 19.61 16.9948 18.1206 18.5911 18.1206C20.1874 18.1206 21.4927 19.6189 21.4927 21.4521ZM24.4385 17.01C24.1121 17.2744 23.8652 17.3538 23.6006 17.3538C23.5124 17.3538 23.4242 17.345 23.336 17.3273C23.0009 17.2656 22.5952 17.0717 22.2071 16.7544C21.6074 16.2785 21.1929 15.6968 21.0429 15.4765L21.0077 15.3972C20.796 14.2514 20.3286 13.1144 19.6318 12.0216L19.2878 11.4751L19.8964 11.6955C21.334 12.2067 22.7539 13.1233 23.6976 14.1544C24.2532 14.7626 24.6501 15.4236 24.7648 15.926C24.8706 16.3931 24.8442 16.6751 24.4385 17.0012V17.01Z" fill="#37435E"/>
<path d="M15.3986 5.65817C15.9807 5.65817 16.4482 5.19106 16.4482 4.60936C16.4482 4.02767 15.9807 3.56055 15.3986 3.56055C14.8166 3.56055 14.3491 4.02767 14.3491 4.60936C14.3491 5.19106 14.8166 5.65817 15.3986 5.65817Z" fill="#37435E"/>
<path d="M10.4328 5.65817C11.0149 5.65817 11.4824 5.19106 11.4824 4.60936C11.4824 4.02767 11.0149 3.56055 10.4328 3.56055C9.85074 3.56055 9.3833 4.02767 9.3833 4.60936C9.3833 5.19106 9.85074 5.65817 10.4328 5.65817Z" fill="#37435E"/>
<path d="M14.4728 21.4523C14.4728 21.8224 14.5169 22.2102 14.6139 22.598L14.658 22.7743L14.4904 22.8448C13.9172 23.1092 13.0528 23.118 12.9117 23.118H12.8941C12.8412 23.118 12.8147 23.118 12.7794 23.118C12.7353 23.118 12.0915 23.118 11.5271 22.9682L11.3154 22.9065L11.3683 22.695C11.4741 22.2807 11.5359 21.8489 11.5359 21.4346C11.5359 18.9316 9.6926 16.8869 7.42598 16.8869C6.96736 16.8869 6.51756 16.975 6.07659 17.1424L5.77672 17.257V16.9397C5.74144 13.5289 8.34321 11.0523 8.44904 10.9553C8.51078 10.9024 8.74009 10.6028 8.74009 10.6028L9.03995 10.7614L9.07523 10.8231C9.2869 11.1933 9.54267 11.5018 9.85135 11.7574C10.2923 12.1187 10.8656 12.3919 11.5535 12.5682L11.871 12.6475L10.0277 15.1065C9.91309 15.2387 9.85135 15.3974 9.86899 15.556C9.88663 15.7146 9.94836 15.8645 10.0718 15.9702C10.3276 16.1906 10.7068 16.1641 10.9273 15.9174C10.945 15.8909 10.9714 15.8645 10.9803 15.838L12.9911 13.1587L14.9843 15.8204C15.0813 15.9702 15.2136 16.0584 15.3724 16.0936C15.54 16.1289 15.6899 16.0936 15.831 16.0055C15.9633 15.9174 16.0603 15.7852 16.0956 15.6265C16.1309 15.4679 16.0956 15.3092 16.0074 15.1682C15.9897 15.1418 15.9721 15.1241 15.9545 15.0977L14.1024 12.6299L14.4199 12.5506C15.1078 12.3743 15.6811 12.1011 16.122 11.7397C16.3866 11.5194 16.6159 11.255 16.8276 10.9113L16.9864 10.6645L17.2245 10.9289C17.3391 11.0435 19.888 13.4672 19.9056 16.8252V17.1248L19.6234 17.0455C19.2706 16.9397 18.909 16.8869 18.5651 16.8869C16.2984 16.8869 14.4463 18.9228 14.4463 21.4346L14.4728 21.4523Z" fill="white"/>
<path d="M18.3448 1.78043C18.4242 1.70992 18.4859 1.64823 18.5565 1.59535C18.7946 1.41907 19.0768 1.29568 19.3238 1.23399C19.456 1.19874 19.5795 1.18992 19.703 1.19874C19.8265 1.19874 19.9411 1.23399 20.0558 1.27806C20.3204 1.38382 20.532 1.59535 20.7261 1.93907C20.9201 2.2828 20.9906 2.58246 20.9554 2.87331C20.9201 3.10246 20.8143 3.30518 20.6379 3.49026C20.4703 3.65772 20.2322 3.78992 20.0029 3.85162C19.9058 3.87806 19.8176 3.88687 19.7471 3.88687H19.5972L19.5354 3.74585C19.2797 3.11128 18.8828 2.55602 18.3712 2.10653L18.186 1.94789L18.3624 1.78043H18.3448Z" fill="#008F8F"/>
<path d="M6.5085 3.74609L6.44676 3.88711H6.29683C6.21745 3.88711 6.13808 3.86948 6.03224 3.85186C5.80294 3.79016 5.56481 3.65796 5.39724 3.4905C5.21203 3.31423 5.11501 3.11152 5.07973 2.87355C5.03564 2.5827 5.11501 2.28304 5.30904 1.93931C5.50307 1.59558 5.71474 1.38406 5.97933 1.2783C6.09398 1.23423 6.20863 1.20779 6.33211 1.19897C6.44676 1.19897 6.57906 1.19897 6.71135 1.23423C6.94948 1.28711 7.2317 1.41931 7.46983 1.59558C7.5492 1.64847 7.61094 1.71016 7.67268 1.76304L7.84907 1.9305L7.6815 2.09796C7.16114 2.55626 6.77308 3.1027 6.51732 3.73728L6.5085 3.74609Z" fill="#008F8F"/>
<path d="M7.43486 24.7837C5.82971 24.7837 4.52441 23.2854 4.52441 21.4433C4.52441 19.6013 5.82971 18.1118 7.43486 18.1118C9.04002 18.1118 10.3365 19.6101 10.3365 21.4433C10.3365 23.2766 9.0312 24.7837 7.43486 24.7837Z" fill="#008F8F"/>
<path d="M21.502 21.4433C21.502 23.2854 20.1967 24.7837 18.6004 24.7837C17.004 24.7837 15.6987 23.2854 15.6987 21.4433C15.6987 19.6013 17.004 18.1118 18.6004 18.1118C20.1967 18.1118 21.502 19.6101 21.502 21.4433Z" fill="#008F8F"/>
</g>
<defs>
<clipPath id="clip0_17669_27970">
<rect width="26" height="26" fill="white"/>
</clipPath>
</defs>
</svg>
