<svg width="31" height="27" viewBox="0 0 31 27" fill="none" xmlns="http://www.w3.org/2000/svg">
<g clip-path="url(#clip0_17669_27962)">
<path d="M17.602 21.8191L16.2007 25.7047L20.3045 24.5091L17.602 21.8191Z" fill="#008F8F"/>
<path d="M10.2954 15.5425H18.2027C18.603 15.5425 18.9033 15.2436 18.9033 14.8451C18.9033 14.4466 18.603 14.1477 18.2027 14.1477H10.2954C9.895 14.1477 9.59473 14.4466 9.59473 14.8451C9.59473 15.2436 9.895 15.5425 10.2954 15.5425Z" fill="#008F8F"/>
<path d="M10.2954 12.2547H18.4028C18.8032 12.2547 19.1035 11.9558 19.1035 11.5573C19.1035 11.1587 18.7031 10.9595 18.3028 10.9595H10.2954C9.895 10.9595 9.59473 11.2584 9.59473 11.6569C9.59473 12.0554 9.895 12.2547 10.2954 12.2547Z" fill="#008F8F"/>
<path d="M15.9005 17.4355H10.2954C9.895 17.4355 9.59473 17.7344 9.59473 18.133C9.59473 18.5315 9.895 18.8304 10.2954 18.8304H15.9005C16.3009 18.8304 16.6012 18.5315 16.6012 18.133C16.5011 17.7344 16.2008 17.4355 15.9005 17.4355Z" fill="#008F8F"/>
<path d="M10.2954 9.06653H18.4028C18.8032 9.06653 19.1035 8.76764 19.1035 8.36911V4.68277C19.1035 4.28424 18.8032 3.98535 18.4028 3.98535H10.2954C9.895 3.98535 9.59473 4.38388 9.59473 4.68277V8.36911C9.59473 8.66801 9.895 9.06653 10.2954 9.06653ZM10.8959 5.38019H17.6021V7.6717H10.8959V5.38019Z" fill="#37435E"/>
<path d="M27.8111 14.9446L27.1105 14.2472C26.3098 13.4502 25.0086 13.4502 24.2078 14.2472L22.7064 15.7417V0.797026C22.7064 0.398502 22.4062 0.0996094 22.0058 0.0996094H3.28854C2.88817 0.0996094 2.58789 0.398502 2.58789 0.797026V21.9188C2.58789 22.3173 2.88817 22.6162 3.28854 22.6162H16.2004L15.0994 25.4059C14.9993 25.8044 14.9993 26.1033 15.2996 26.4022C15.4998 26.6015 15.7 26.7011 16.0003 26.7011C16.1003 26.7011 16.2004 26.7011 16.3005 26.6015L19.4034 25.5055C19.8038 25.3063 20.3042 25.107 20.6045 24.7085L27.711 17.6347C28.1114 17.2361 28.3116 16.738 28.3116 16.2398C28.4117 15.8413 28.2115 15.2435 27.8111 14.9446ZM5.89094 21.321H3.98918V1.49444H5.89094V21.321ZM7.19213 21.321V1.49444H21.3051V17.0369L17.1013 21.2214L17.0012 21.321H7.19213ZM19.003 24.3099L16.801 25.107L17.6017 22.9151C17.7018 22.8155 17.7018 22.7158 17.8019 22.6162L19.4034 24.2103C19.3033 24.2103 19.1031 24.3099 19.003 24.3099ZM26.8102 16.8376L20.4043 23.214L18.7027 21.5203L25.1086 15.1439C25.2087 15.0443 25.4089 14.9446 25.6091 14.9446C25.8093 14.9446 26.0095 15.0443 26.1096 15.1439L26.8102 15.8413C26.9103 15.9409 27.0104 16.1402 27.0104 16.3395C27.0104 16.5387 27.0104 16.738 26.8102 16.8376Z" fill="#37435E"/>
</g>
<defs>
<clipPath id="clip0_17669_27962">
<rect width="31" height="27" fill="white"/>
</clipPath>
</defs>
</svg>
