<svg width="34" height="28" viewBox="0 0 34 28" fill="none" xmlns="http://www.w3.org/2000/svg">
<g clip-path="url(#clip0_17669_27982)">
<path d="M8.99281 2.20117H5.05078V13.3278H8.99281V2.20117Z" fill="white"/>
<path d="M18.9705 2.32324H14.9053V10.2708H18.9705V2.32324Z" fill="white"/>
<path d="M28.8261 2.07861H24.6377V12.1048H28.8261V2.07861Z" fill="white"/>
<path d="M32.2749 24.5765V7.82539C32.2749 7.45858 32.0286 7.09177 31.5358 7.09177H29.4416V2.32321H29.8112C30.1807 2.32321 30.5503 2.07866 30.5503 1.58958C30.5503 1.1005 30.3039 0.855957 29.8112 0.855957H23.4054C23.0358 0.855957 22.6662 1.1005 22.6662 1.58958C22.6662 2.07866 22.9126 2.32321 23.4054 2.32321H23.7749V7.09177H19.7097V2.32321H20.0793C20.4489 2.32321 20.8184 2.07866 20.8184 1.58958C20.8184 1.1005 20.572 0.855957 20.0793 0.855957H13.6735C13.3039 0.855957 12.9344 1.1005 12.9344 1.58958C12.9344 2.07866 13.1807 2.32321 13.6735 2.32321H14.0431V7.09177H10.3474V2.32321H10.717C11.0865 2.32321 11.4561 2.07866 11.4561 1.58958C11.4561 1.1005 11.0865 0.978228 10.717 0.978228H4.31117C3.9416 0.978228 3.69523 1.22277 3.69523 1.58958C3.69523 1.95639 3.9416 2.32321 4.43436 2.32321H4.80392V7.09177H2.70972C2.21697 7.09177 1.97059 7.33631 1.97059 7.82539V24.6988H0.369141V28.1223H33.8764V24.6988H32.2749V24.5765ZM28.0865 2.32321V11.6158H25.3764V2.32321H28.0865ZM15.7677 2.32321H18.601V10.2708H15.7677V2.32321ZM6.159 2.32321H8.86914V12.9608H6.159V2.32321ZM3.44885 8.43674H4.80392V17.7293C4.80392 19.1966 6.03581 20.5415 7.63726 20.5415C9.23871 20.5415 10.4706 19.3188 10.4706 17.7293V8.43674H14.4126V17.7293C14.4126 19.1966 15.6445 20.5415 17.246 20.5415C18.8474 20.5415 20.0793 19.3188 20.0793 17.7293V8.43674H24.1445V17.7293C24.1445 19.1966 25.3764 20.5415 26.9778 20.5415C28.5793 20.5415 29.8112 19.3188 29.8112 17.7293V8.43674H31.1662V24.5765H3.44885V8.43674Z" fill="#37435E"/>
<path d="M6.15918 12.7161V17.4846C6.15918 18.2182 6.77512 18.8296 7.51425 18.8296H7.63744C8.37657 18.8296 8.99251 18.2182 8.99251 17.4846V12.7161H6.15918Z" fill="#008F8F"/>
<path d="M25.377 11.6157V17.4847C25.377 18.2183 25.9929 18.8297 26.732 18.8297H26.8552C27.5943 18.8297 28.2103 18.2183 28.2103 17.4847V11.6157H25.377Z" fill="#008F8F"/>
<path d="M15.7676 9.53711V17.3624C15.7676 18.0961 16.3835 18.7074 17.1226 18.7074H17.2458C17.985 18.7074 18.6009 18.0961 18.6009 17.3624V9.53711H15.7676Z" fill="#008F8F"/>
</g>
<defs>
<clipPath id="clip0_17669_27982">
<rect width="34" height="28" fill="white"/>
</clipPath>
</defs>
</svg>
