<svg width="42" height="30" viewBox="0 0 42 30" fill="none" xmlns="http://www.w3.org/2000/svg">
<g clip-path="url(#clip0_5541_10043)">
<path d="M4.4209 1.95033V23.3416L20.9019 28.2982L37.6487 23.0808V1.42859L20.769 7.03728L4.4209 1.95033Z" fill="#0E546E"/>
<path d="M41.867 29.7392H0.132812V7.95654H5.18345V22.1739L20.9999 27L36.9493 22.1739V7.95654H41.9999L41.867 29.7392ZM23.1265 28.0435H40.1391V9.52176H38.5442V23.4783L23.1265 28.0435ZM1.86066 28.0435H18.8733L3.4556 23.4783V9.52176H1.86066V28.0435Z" fill="white"/>
<path d="M20.9999 28.6956L3.45557 23.4783V0.260864L20.9999 5.60869L38.5442 0.260864V23.4783L20.9999 28.6956ZM5.18341 22.1739L20.9999 27L36.9492 22.1739V2.47826L20.9999 7.30434L5.18341 2.47826V22.1739Z" fill="white"/>
<path d="M34.0257 16.8262L24.0573 20.2175C23.7915 20.3479 23.5257 20.3479 23.2599 19.9566C23.127 19.8262 23.127 19.8262 23.127 19.5653C23.127 19.0435 23.5257 18.6522 23.9244 18.5218L33.8928 15.1305C34.1586 15.0001 34.4244 15.0001 34.6902 15.3914C34.8232 15.5218 34.8232 15.5218 34.8232 15.7827C34.6902 16.174 34.4244 16.6957 34.0257 16.8262Z" fill="white"/>
<path d="M34.0252 10.6956L29.905 12.1304C29.6392 12.2608 29.3733 12.2608 29.1075 11.8695C28.9746 11.7391 28.9746 11.7391 28.9746 11.4782C28.9746 10.9565 29.3733 10.5652 29.7721 10.3043L33.8923 8.86953C34.1582 8.73909 34.5569 8.86953 34.6898 9.1304C34.8227 9.26083 34.8227 9.26083 34.8227 9.5217C34.6898 10.0434 34.424 10.4347 34.0252 10.6956Z" fill="white"/>
<path d="M27.2472 12.9131L24.0573 13.9565C23.7915 14.087 23.5257 14.087 23.2599 13.6957C23.127 13.5652 23.127 13.5652 23.127 13.3044C23.127 12.7826 23.5257 12.3913 23.9244 12.2609L27.1143 11.2174C27.3801 11.087 27.6459 11.087 27.9118 11.4783C28.0447 11.6087 28.0447 11.6087 28.0447 11.8696C27.9118 12.3913 27.6459 12.7826 27.2472 12.9131Z" fill="white"/>
<path d="M31.3674 14.6087L26.7155 16.1739C26.4497 16.3043 26.1839 16.3043 25.9181 15.913C25.7852 15.7826 25.7852 15.7826 25.7852 15.5217C25.7852 15 26.1839 14.6087 26.5826 14.3478L31.2345 12.7826C31.5003 12.6522 31.7662 12.6522 32.032 13.0435C32.1649 13.1739 32.1649 13.1739 32.1649 13.4348C32.032 14.0869 31.7662 14.4783 31.3674 14.6087Z" fill="white"/>
<path d="M7.8419 10.4348L17.8103 13.8261C18.0761 13.9565 18.3419 13.9565 18.6077 13.5652C18.7406 13.4348 18.7406 13.4348 18.7406 13.1739C18.7406 12.6522 18.3419 12.2609 17.9432 12L7.8419 8.73914C7.57608 8.60871 7.31026 8.60871 7.04443 9.00001C7.04443 9.13045 7.04443 9.13045 7.04443 9.39132C7.04443 9.91306 7.31026 10.3044 7.8419 10.4348Z" fill="white"/>
<path d="M7.8419 13.6957L11.9622 15.1305C12.228 15.2609 12.4938 15.2609 12.7596 14.8696C12.8925 14.7392 12.8925 14.7392 12.8925 14.4783C12.8925 13.9565 12.4938 13.5652 12.0951 13.4348L7.8419 12C7.57608 11.8696 7.31026 12 7.04443 12.2609C7.04443 12.3913 7.04443 12.3913 7.04443 12.6522C7.04443 13.0435 7.31026 13.5652 7.8419 13.6957Z" fill="white"/>
<path d="M14.6203 15.913L17.8102 16.9565C18.076 17.0869 18.3418 17.0869 18.6077 16.6956C18.7406 16.5652 18.7406 16.5652 18.7406 16.3043C18.7406 15.7826 18.3418 15.3913 17.9431 15.2608L14.6203 14.3478C14.3545 14.2174 14.0887 14.2174 13.8229 14.6087C13.6899 14.7391 13.6899 14.7391 13.6899 15C13.8229 15.3913 14.0887 15.7826 14.6203 15.913Z" fill="white"/>
<path d="M10.5001 17.7391L15.152 19.3043C15.4178 19.4348 15.6836 19.4348 15.9495 19.0435C16.0824 18.913 16.0824 18.913 16.0824 18.6522C16.0824 18.1304 15.6836 17.7391 15.2849 17.6087L10.633 16.0435C10.3672 15.913 10.1014 15.913 9.83555 16.3043C9.70264 16.4348 9.70264 16.4348 9.70264 16.6956C9.70264 17.0869 9.96846 17.6087 10.5001 17.7391Z" fill="white"/>
<path d="M21.9305 6.39136H20.2026V27.7827H21.9305V6.39136Z" fill="white"/>
</g>
<defs>
<clipPath id="clip0_5541_10043">
<rect width="42" height="30" fill="white"/>
</clipPath>
</defs>
</svg>
