<svg width="35" height="26" viewBox="0 0 35 26" fill="none" xmlns="http://www.w3.org/2000/svg">
<g clip-path="url(#clip0_17669_27993)">
<path d="M34.8893 25.774H0.11084V6.89575H4.3197V19.2175L17.5001 23.4001L30.7912 19.2175V6.89575H35.0001L34.8893 25.774ZM19.2722 24.3044H33.4494V8.25227H32.1203V20.3479L19.2722 24.3044ZM1.55071 24.3044H15.7279L2.87983 20.3479V8.25227H1.55071V24.3044Z" fill="#37435E"/>
<path d="M18.2753 5.53906H16.8354V24.0782H18.2753V5.53906Z" fill="#37435E"/>
<path d="M3.65479 1.58279V20.1219L17.389 24.4176L31.3447 19.8958V1.13062L17.2782 5.99149L3.65479 1.58279Z" fill="white"/>
<path d="M17.4996 24.8696L2.87939 20.3478V0.226074L17.4996 4.86086L32.1199 0.226074V20.3478L17.4996 24.8696ZM4.31927 19.2174L17.4996 23.4L30.7908 19.2174V2.14781L17.4996 6.33042L4.31927 2.14781V19.2174Z" fill="#37435E"/>
<path d="M28.3543 14.5826L20.0473 17.5217C19.8258 17.6348 19.6043 17.6348 19.3827 17.2956C19.272 17.1826 19.272 17.1826 19.272 16.9565C19.272 16.5043 19.6043 16.1652 19.9365 16.0521L28.2435 13.113C28.465 13 28.6865 13 28.908 13.3391C29.0188 13.4521 29.0188 13.4521 29.0188 13.6782C28.9081 14.0174 28.6865 14.4695 28.3543 14.5826Z" fill="#008F8F"/>
<path d="M28.3544 9.26953L24.9208 10.513C24.6993 10.6261 24.4778 10.6261 24.2563 10.2869C24.1455 10.1739 24.1455 10.1739 24.1455 9.9478C24.1455 9.49562 24.4778 9.15649 24.8101 8.9304L28.2436 7.68693C28.4651 7.57388 28.7974 7.68693 28.9082 7.91301C29.0189 8.02606 29.0189 8.02606 29.0189 8.25214C28.9082 8.70432 28.6866 9.04345 28.3544 9.26953Z" fill="#008F8F"/>
<path d="M22.7055 11.1912L20.0473 12.0956C19.8258 12.2086 19.6043 12.2086 19.3827 11.8695C19.272 11.7564 19.272 11.7564 19.272 11.5304C19.272 11.0782 19.6043 10.7391 19.9365 10.626L22.5948 9.72166C22.8163 9.60862 23.0378 9.60862 23.2593 9.94775C23.3701 10.0608 23.3701 10.0608 23.3701 10.2869C23.2593 10.7391 23.0378 11.0782 22.7055 11.1912Z" fill="#008F8F"/>
<path d="M26.1392 12.661L22.2626 14.0175C22.0411 14.1305 21.8196 14.1305 21.5981 13.7914C21.4873 13.6784 21.4873 13.6784 21.4873 13.4523C21.4873 13.0001 21.8196 12.661 22.1519 12.4349L26.0284 11.0784C26.25 10.9653 26.4715 10.9653 26.693 11.3044C26.8038 11.4175 26.8038 11.4175 26.8038 11.6436C26.693 12.2088 26.4715 12.5479 26.1392 12.661Z" fill="#008F8F"/>
<path d="M6.53467 9.04352L14.8416 11.9827C15.0632 12.0957 15.2847 12.0957 15.5062 11.7566C15.617 11.6435 15.617 11.6435 15.617 11.4174C15.617 10.9653 15.2847 10.6261 14.9524 10.4L6.53467 7.57396C6.31316 7.46091 6.09164 7.46091 5.87012 7.80004C5.87012 7.91309 5.87012 7.91309 5.87012 8.13917C5.87012 8.59135 6.09164 8.93048 6.53467 9.04352Z" fill="#008F8F"/>
<path d="M6.53467 11.8696L9.96822 13.1131C10.1897 13.2261 10.4113 13.2261 10.6328 12.887C10.7435 12.774 10.7435 12.774 10.7435 12.5479C10.7435 12.0957 10.4113 11.7566 10.079 11.6435L6.53467 10.4001C6.31316 10.287 6.09164 10.4001 5.87012 10.6261C5.87012 10.7392 5.87012 10.7392 5.87012 10.9653C5.87012 11.3044 6.09164 11.7566 6.53467 11.8696Z" fill="#008F8F"/>
<path d="M12.1835 13.7913L14.8417 14.6957C15.0633 14.8087 15.2848 14.8087 15.5063 14.4696C15.6171 14.3565 15.6171 14.3565 15.6171 14.1304C15.6171 13.6783 15.2848 13.3391 14.9525 13.2261L12.1835 12.4348C11.962 12.3218 11.7405 12.3218 11.519 12.6609C11.4082 12.7739 11.4082 12.7739 11.4082 13C11.519 13.3391 11.7405 13.6783 12.1835 13.7913Z" fill="#008F8F"/>
<path d="M8.75001 15.3738L12.6266 16.7304C12.8481 16.8434 13.0696 16.8434 13.2911 16.5043C13.4019 16.3912 13.4019 16.3912 13.4019 16.1651C13.4019 15.713 13.0696 15.3738 12.7373 15.2608L8.86077 13.9043C8.63925 13.7912 8.41773 13.7912 8.19621 14.1304C8.08545 14.2434 8.08545 14.2434 8.08545 14.4695C8.08545 14.8086 8.30697 15.2608 8.75001 15.3738Z" fill="#008F8F"/>
</g>
<defs>
<clipPath id="clip0_17669_27993">
<rect width="35" height="26" fill="white"/>
</clipPath>
</defs>
</svg>
