<svg width="32" height="30" viewBox="0 0 32 30" fill="none" xmlns="http://www.w3.org/2000/svg">
<rect x="0.5" y="0.5" width="31" height="29" rx="8.5" fill="white"/>
<rect x="0.5" y="0.5" width="31" height="29" rx="8.5" stroke="#ADADAD"/>
<g clip-path="url(#clip0_5093_7001)">
<path fill-rule="evenodd" clip-rule="evenodd" d="M21.7398 14.98C21.7398 11.81 19.1798 9.24999 16.0098 9.23999C14.4098 9.23999 12.8798 9.90999 11.7998 11.08V10.01C11.7998 9.58999 11.4598 9.23999 11.0298 9.23999C10.5998 9.23999 10.2598 9.58999 10.2598 10.01V13.07C10.2598 13.49 10.5998 13.84 11.0298 13.84H14.0898C14.5098 13.84 14.8598 13.5 14.8598 13.07C14.8598 12.64 14.5198 12.3 14.0898 12.3H12.7598C14.2398 10.51 16.8898 10.26 18.6798 11.74C20.4698 13.22 20.7198 15.87 19.2398 17.66C18.4498 18.63 17.2598 19.19 15.9998 19.19C15.5798 19.19 15.2298 19.53 15.2298 19.96C15.2298 20.38 15.5698 20.73 15.9998 20.73H16.0198C19.1798 20.72 21.7398 18.15 21.7398 14.98Z" fill="#AEBDBE"/>
</g>
<defs>
<clipPath id="clip0_5093_7001">
<rect width="12" height="12" fill="white" transform="translate(10 9)"/>
</clipPath>
</defs>
</svg>
