<svg width="18" height="17" viewBox="0 0 18 17" fill="none" xmlns="http://www.w3.org/2000/svg">
<path d="M16.8821 9.50283C16.2568 9.50283 15.7642 9.97995 15.7642 10.5454V12.4167C15.7642 13.7597 14.5895 14.8729 13.1305 14.8729H4.86947C3.42947 14.8729 2.23579 13.7773 2.23579 12.4167V4.71207C2.23579 3.36907 3.41052 2.25579 4.86947 2.25579H6.58082C7.20608 2.25579 7.69871 1.77867 7.69871 1.2132C7.69871 0.647723 7.20608 0.170288 6.58082 0.170288H4.86947C2.17894 0.170288 0 2.20246 0 4.71175V12.3987C0 14.9256 2.17894 16.9578 4.86947 16.9578H13.1116C15.821 16.9578 18 14.9256 18 12.4163V10.5451C18 9.96196 17.4884 9.50251 16.8821 9.50251V9.50283Z" fill="white"/>
<path d="M15.8331 6.8944C15.8331 7.45964 16.329 7.90497 16.9167 7.90497C17.5044 7.90497 18.0002 7.44251 18.0002 6.8944V1.18086C18.0002 0.615626 17.5044 0.170288 16.9167 0.170288H10.7577C10.1516 0.170288 9.67414 0.632754 9.67414 1.18086C9.67414 1.72897 10.17 2.19144 10.7577 2.19144H14.2904L6.04434 9.88208C5.62194 10.276 5.62194 10.9269 6.04434 11.3209C6.46675 11.7148 7.16464 11.7148 7.58704 11.3209L15.8331 3.63022V6.8944Z" fill="white"/>
</svg>
