<svg width="44" height="44" viewBox="0 0 44 44" fill="none" xmlns="http://www.w3.org/2000/svg">
<g id="Group 270">
<g id="Ellipse 43" filter="url(#filter0_d_10866_6612)">
<circle cx="22" cy="18" r="18" fill="white"/>
<circle cx="22" cy="18" r="17.75" stroke="#029AAD" stroke-width="0.5"/>
</g>
<path id="Vector" d="M31 26H30V27H31V26Z" fill="white"/>
<path id="Union" fill-rule="evenodd" clip-rule="evenodd" d="M33.4395 13.0066C33.4779 13.0551 33.5163 13.1036 33.5504 13.1565L33.5547 13.1477C34.3696 14.3076 34.7024 15.7277 34.4848 17.1433C34.2714 18.5546 33.5376 19.7982 32.4241 20.6406C31.8908 22.8192 30.0008 24.3495 27.8249 24.3495H15.0257C14.5819 24.3495 14.2236 24.72 14.2236 25.1786C14.2236 25.6373 14.5862 26.0077 15.0257 26.0077H29.156V27H15.0257C14.0572 27 13.2679 26.1841 13.2679 25.183C13.2679 24.1819 14.0572 23.366 15.0257 23.366H27.8249C29.1987 23.366 30.4487 22.6075 31.1186 21.3771C30.5426 21.5976 29.9368 21.7122 29.3224 21.7122H11.4248C10.6099 21.7122 9.85902 21.2933 9.40678 20.5965C9.0484 20.0364 8.92041 19.3704 9.0484 18.7133C9.1764 18.0562 9.54331 17.4873 10.0809 17.1169L12.8455 15.2117C12.837 15.1587 12.837 15.1014 12.837 15.0441C12.837 14.559 12.9479 14.0694 13.157 13.6372C13.5196 12.8875 14.1425 12.3274 14.9105 12.0628C15.6656 11.7982 16.4762 11.8511 17.1973 12.2128L18.8868 11.0485C20.9858 9.60637 23.5286 8.8831 26.0501 9.01541C28.9598 9.17417 31.6519 10.6295 33.4395 13.0066ZM31.6092 19.4498V16.7508V16.742H32.5691V19.1455C33.896 17.5623 33.9515 15.2558 32.6843 13.6064C31.0674 11.4542 28.6312 10.14 25.9989 9.99887C23.6865 9.87098 21.3485 10.5413 19.4201 11.8644L18.0335 12.8214C18.5966 13.4079 18.9166 14.2106 18.9166 15.0353C18.9166 15.1632 18.9081 15.2911 18.891 15.4145C18.891 15.4322 18.8782 15.4719 18.8782 15.4719V15.5027C18.8773 15.5083 18.8763 15.5138 18.8753 15.5194C18.8592 15.6113 18.8424 15.707 18.8142 15.8026V15.8247L18.8014 15.8776C18.7374 16.1202 18.6393 16.3583 18.5198 16.5788C18.5175 16.586 18.514 16.5919 18.5112 16.5965C18.5088 16.6003 18.507 16.6033 18.507 16.6053C18.3748 16.839 18.2127 17.0595 18.0249 17.2536L17.9865 17.2933L17.3082 16.592L17.3466 16.5524C17.5343 16.3539 17.6836 16.1246 17.7903 15.8688L17.8031 15.8335C17.8458 15.7277 17.8756 15.6174 17.9012 15.5027C17.9027 15.4968 17.9041 15.4909 17.9055 15.4852C17.9125 15.4569 17.919 15.4306 17.9225 15.4013C17.9439 15.2778 17.9567 15.1543 17.9567 15.0309C17.9567 13.8489 17.0223 12.8831 15.8747 12.8831C14.727 12.8831 13.7927 13.8489 13.7927 15.0353C13.7927 15.172 13.8055 15.3087 13.8311 15.441C13.8338 15.4635 13.84 15.4842 13.8463 15.5054C13.8499 15.5175 13.8536 15.5297 13.8567 15.5424C13.8588 15.5535 13.862 15.5634 13.8652 15.5733C13.8684 15.5832 13.8716 15.5931 13.8737 15.6042C13.8908 15.6836 13.9121 15.7585 13.9377 15.8291C13.9548 15.8688 13.9718 15.9085 13.9932 15.9482L14.0188 15.9967C14.0486 16.0628 14.0828 16.129 14.1212 16.1907C14.1425 16.226 14.1681 16.2613 14.1937 16.2966L14.2236 16.3363C14.279 16.4156 14.3388 16.4906 14.4028 16.5612L14.4369 16.6009L13.7585 17.3021L13.7201 17.2668C13.7073 17.2514 13.6935 17.2359 13.6796 17.2205C13.6657 17.2051 13.6519 17.1896 13.6391 17.1742L13.5836 17.108C13.5793 17.1036 13.5761 17.0992 13.5729 17.0948C13.5697 17.0904 13.5665 17.086 13.5623 17.0816C13.5379 17.0528 13.5164 17.0241 13.4931 16.9929C13.4879 16.9859 13.4825 16.9787 13.4769 16.9713C13.4541 16.941 13.4337 16.9106 13.4121 16.8783C13.4054 16.8683 13.3986 16.8582 13.3916 16.8478C13.3617 16.8081 13.3276 16.7552 13.3063 16.7199L13.285 16.6847C13.2786 16.6714 13.2711 16.6593 13.2636 16.6472C13.2562 16.635 13.2487 16.6229 13.2423 16.6097C13.2201 16.5737 13.2003 16.5353 13.1811 16.498C13.1744 16.4851 13.1678 16.4723 13.1612 16.4597C13.1548 16.4487 13.1495 16.4366 13.1442 16.4245C13.1388 16.4123 13.1335 16.4002 13.1271 16.3892L13.1143 16.3583C13.108 16.3438 13.1024 16.3298 13.0968 16.3162C13.0873 16.2927 13.0782 16.2704 13.0674 16.2481L10.6056 17.946C10.1961 18.2282 9.95288 18.7001 9.95288 19.2073C9.95288 19.613 10.1065 19.9923 10.3838 20.2789C10.6611 20.5612 11.028 20.7199 11.4205 20.7199H29.3224C30.116 20.7155 30.8882 20.4862 31.5623 20.0496C31.5921 19.8511 31.6092 19.6527 31.6092 19.4498ZM12.4105 17.633H13.3705V18.6253H12.4105V17.633Z" fill="url(#paint0_linear_10866_6612)"/>
</g>
<defs>
<filter id="filter0_d_10866_6612" x="0" y="0" width="44" height="44" filterUnits="userSpaceOnUse" color-interpolation-filters="sRGB">
<feFlood flood-opacity="0" result="BackgroundImageFix"/>
<feColorMatrix in="SourceAlpha" type="matrix" values="0 0 0 0 0 0 0 0 0 0 0 0 0 0 0 0 0 0 127 0" result="hardAlpha"/>
<feOffset dy="4"/>
<feGaussianBlur stdDeviation="2"/>
<feComposite in2="hardAlpha" operator="out"/>
<feColorMatrix type="matrix" values="0 0 0 0 0 0 0 0 0 0 0 0 0 0 0 0 0 0 0.25 0"/>
<feBlend mode="normal" in2="BackgroundImageFix" result="effect1_dropShadow_10866_6612"/>
<feBlend mode="normal" in="SourceGraphic" in2="effect1_dropShadow_10866_6612" result="shape"/>
</filter>
<linearGradient id="paint0_linear_10866_6612" x1="21.7749" y1="9" x2="21.7749" y2="27" gradientUnits="userSpaceOnUse">
<stop stop-color="#029CAE"/>
<stop offset="1" stop-color="#0D5B95"/>
</linearGradient>
</defs>
</svg>
