<svg width="44" height="44" viewBox="0 0 44 44" fill="none" xmlns="http://www.w3.org/2000/svg">
<g id="Group 269">
<g id="Ellipse 42" filter="url(#filter0_d_10866_6602)">
<circle cx="22" cy="18" r="18" fill="white"/>
<circle cx="22" cy="18" r="17.75" stroke="#029AAD" stroke-width="0.5"/>
</g>
<g id="Group 263">
<path id="Union" fill-rule="evenodd" clip-rule="evenodd" d="M12.0218 29H32.0927C32.3566 29 32.5712 28.7846 32.5712 28.5202V16.5356C32.5712 10.7263 27.8545 6 22.0571 6C16.2597 6 11.543 10.7263 11.543 16.5356V28.5202C11.543 28.7846 11.7579 29 12.0218 29ZM31.6142 28.0407H24.6529V26.7428C26.3124 26.3193 27.8587 25.4803 29.1334 24.3098C30.1788 23.3502 31.0245 22.1854 31.6142 20.9016V28.0407ZM23.6952 28.0407H20.4193L20.4189 22.7821C20.4189 22.5762 20.2883 22.3936 20.0938 22.3274C18.7534 21.8711 17.6218 20.9712 16.8763 19.776H27.2378C26.4924 20.9712 25.3608 21.8711 24.0203 22.3274C23.8259 22.3936 23.6952 22.5762 23.6952 22.7821V28.0407ZM19.4616 28.0407H12.5003V20.902C13.0896 22.1858 13.9357 23.3505 14.9811 24.3102C16.2562 25.4807 17.8025 26.3197 19.4616 26.7428V28.0407ZM24.6529 25.7501V23.1169C25.9535 22.6025 27.0601 21.7254 27.8598 20.5732C28.6865 19.3826 29.1232 17.9865 29.1232 16.5356C29.1232 12.6312 25.9535 9.45504 22.0571 9.45504C18.1606 9.45504 14.991 12.6315 14.991 16.5356C14.991 17.9865 15.428 19.3826 16.2543 20.5732C17.0541 21.7254 18.161 22.6025 19.4616 23.1169V25.7501C17.5257 25.201 15.7808 24.0218 14.5277 22.4099C13.2203 20.7284 12.5003 18.6421 12.5003 16.5356C12.5003 11.2552 16.7879 6.95927 22.0574 6.95927C27.327 6.95927 31.6142 11.2552 31.6142 16.5356C31.6142 18.6425 30.8942 20.7284 29.5868 22.4099C28.3337 24.0218 26.5888 25.201 24.6529 25.7501ZM26.4491 18.8168H23.8904C24.1635 18.4347 24.315 17.9728 24.315 17.499C24.315 17.3358 24.2975 17.1741 24.2626 17.0154H24.2994C25.357 17.0154 26.2641 17.7913 26.4491 18.8168ZM20.2237 18.8168H17.6643C17.8496 17.7913 18.7568 17.0154 19.8147 17.0154H19.8516C19.8166 17.1741 19.7992 17.3358 19.7992 17.499C19.7992 17.9728 19.9507 18.4347 20.2237 18.8168ZM20.7569 17.499C20.7569 16.7806 21.3401 16.1958 22.0571 16.1958C22.774 16.1958 23.3573 16.7806 23.3573 17.499C23.3573 18.2175 22.774 18.8023 22.0571 18.8023C21.3401 18.8023 20.7569 18.2175 20.7569 17.499ZM20.8979 8.57795H23.2161C23.4801 8.57795 23.695 8.36258 23.695 8.09813C23.695 7.83367 23.4801 7.6183 23.2161 7.6183H20.8979C20.6339 7.6183 20.419 7.83367 20.419 8.09813C20.419 8.36258 20.6339 8.57795 20.8979 8.57795Z" fill="url(#paint0_linear_10866_6602)"/>
</g>
</g>
<defs>
<filter id="filter0_d_10866_6602" x="0" y="0" width="44" height="44" filterUnits="userSpaceOnUse" color-interpolation-filters="sRGB">
<feFlood flood-opacity="0" result="BackgroundImageFix"/>
<feColorMatrix in="SourceAlpha" type="matrix" values="0 0 0 0 0 0 0 0 0 0 0 0 0 0 0 0 0 0 127 0" result="hardAlpha"/>
<feOffset dy="4"/>
<feGaussianBlur stdDeviation="2"/>
<feComposite in2="hardAlpha" operator="out"/>
<feColorMatrix type="matrix" values="0 0 0 0 0 0 0 0 0 0 0 0 0 0 0 0 0 0 0.25 0"/>
<feBlend mode="normal" in2="BackgroundImageFix" result="effect1_dropShadow_10866_6602"/>
<feBlend mode="normal" in="SourceGraphic" in2="effect1_dropShadow_10866_6602" result="shape"/>
</filter>
<linearGradient id="paint0_linear_10866_6602" x1="22.0571" y1="6" x2="22.0571" y2="29" gradientUnits="userSpaceOnUse">
<stop stop-color="#029CAE"/>
<stop offset="1" stop-color="#0D5B95"/>
</linearGradient>
</defs>
</svg>
