<svg width="44" height="44" viewBox="0 0 44 44" fill="none" xmlns="http://www.w3.org/2000/svg">
<g id="Group 267">
<g id="Ellipse 40" filter="url(#filter0_d_10866_6583)">
<circle cx="22" cy="18" r="18" fill="white"/>
<circle cx="22" cy="18" r="17.75" stroke="#029AAD" stroke-width="0.5"/>
</g>
<path id="Union" fill-rule="evenodd" clip-rule="evenodd" d="M13.8078 10.265C16.6321 6.71848 21.2562 5.20406 25.5875 6.40734L25.5902 6.40458C31.6101 8.0732 35.1743 14.409 33.5291 20.5273C32.1576 25.635 27.5824 28.9998 22.606 28.9998C21.6221 28.9998 20.6219 28.8676 19.6272 28.5923C19.3399 28.5124 19.1691 28.2068 19.2477 27.9149C19.2857 27.7717 19.3778 27.6533 19.5025 27.5817C19.6299 27.5101 19.7735 27.4909 19.9145 27.5294C24.7201 28.8511 29.6992 26.5244 31.8405 21.9839H26.4819C25.189 21.9811 24.1347 20.9128 24.1347 19.5993C24.1374 18.2859 25.189 17.2148 26.4819 17.2148H27.3384C28.035 17.2148 28.6015 16.6393 28.6015 15.9317C28.6042 14.632 29.645 13.5637 30.9216 13.5472H32.0817C31.5423 12.2145 30.7238 10.9892 29.7019 9.99239C27.7314 8.0677 25.1348 7.03789 22.4081 7.09571C19.7817 7.14803 17.3287 8.19711 15.4612 10.053H20.2343C21.5272 10.0557 22.5816 11.1241 22.5816 12.4375C22.5816 13.7537 21.5272 14.822 20.2343 14.822H16.5345C15.8461 14.8303 15.3013 15.3865 15.2905 16.0859C15.285 16.4273 15.4124 16.7522 15.6482 16.9973C15.8813 17.2423 16.1985 17.38 16.5345 17.3855C16.9492 17.3855 17.3585 17.4984 17.7163 17.7132C17.9738 17.8674 18.0605 18.2061 17.9087 18.4676C17.757 18.7292 17.4236 18.8173 17.1661 18.6631C16.9764 18.5503 16.7676 18.4869 16.5345 18.4897C15.2633 18.4759 14.2225 17.4186 14.209 16.1327C14.1954 14.8193 15.2362 13.7371 16.5291 13.7234H20.2316C20.9282 13.7234 21.4947 13.1479 21.4947 12.443C21.4947 11.7354 20.9282 11.1599 20.2316 11.1599H14.4963C13.1248 12.9662 12.3713 15.2158 12.3686 17.4957C12.3686 17.7049 12.3767 17.9197 12.3903 18.1593C12.3984 18.3079 12.3523 18.4484 12.2547 18.5585C12.1572 18.6687 12.0244 18.7347 11.8807 18.743C11.7289 18.7513 11.588 18.7017 11.4823 18.6026C11.3766 18.5062 11.3142 18.3713 11.3088 18.2253C11.2952 17.9693 11.2871 17.7297 11.2871 17.4984C11.2898 14.8881 12.1761 12.3301 13.7861 10.2953L13.8078 10.265ZM26.4711 20.8852H32.2796C32.968 18.8614 33.025 16.7137 32.4503 14.6541H30.9677C30.2494 14.6541 29.683 15.2295 29.683 15.9372C29.683 17.2534 28.6286 18.3217 27.3357 18.3217H26.4792C25.7826 18.3217 25.2161 18.8972 25.2161 19.6048C25.2134 19.9435 25.3489 20.2712 25.5848 20.5107C25.8179 20.7475 26.1404 20.8852 26.4711 20.8852ZM28.1886 12.443C28.1886 13.7592 27.1343 14.8275 25.8414 14.8275C24.5485 14.8248 23.4941 13.7564 23.4941 12.443C23.4941 11.1268 24.5458 10.0585 25.8414 10.0585C27.137 10.0585 28.1886 11.1268 28.1886 12.443ZM25.8414 11.1626C25.1448 11.1654 24.5783 11.7409 24.5783 12.4458C24.5783 13.1534 25.1448 13.7289 25.8414 13.7289C26.538 13.7289 27.1045 13.1534 27.1045 12.4458C27.1045 11.7381 26.538 11.1626 25.8414 11.1626ZM21.8927 24.3519C21.7598 24.4868 21.5972 24.5914 21.4183 24.652C21.2801 24.6961 21.169 24.7897 21.1012 24.9191C21.0334 25.0485 21.0199 25.1972 21.0633 25.3376C21.1337 25.5717 21.3451 25.7231 21.5837 25.7231C21.6406 25.7231 21.7002 25.7148 21.7598 25.6956C22.0987 25.5827 22.4104 25.3844 22.6597 25.1284C23.5759 24.2004 23.5759 22.6915 22.6651 21.7608C22.4131 21.5048 22.1014 21.3065 21.7626 21.1881C21.478 21.0945 21.1717 21.2514 21.0795 21.5405C20.9874 21.8214 21.1392 22.1325 21.4156 22.2317C22.0715 22.4602 22.4239 23.1899 22.1989 23.8562C22.1366 24.0407 22.0336 24.2087 21.8954 24.3464L21.8927 24.3519ZM20.7732 20.1087V26.1527C20.7732 26.7529 20.2935 27.2403 19.7026 27.2403H18.0221V28.4463C18.0221 28.7492 17.7782 28.997 17.48 28.997H12.8262C12.528 28.997 12.2841 28.7492 12.2841 28.4463V27.2403H10.6009C10.0127 27.2403 9.53027 26.7529 9.53027 26.1527V20.1087C9.53027 19.5112 10.01 19.0211 10.6009 19.0211H19.7026C20.2935 19.0211 20.7732 19.5085 20.7732 20.1087ZM16.9352 27.8956V27.2403H13.3656V27.8956H16.9352ZM18.1251 22.4795L19.6891 21.1771V21.1743V20.106L10.6145 20.1197V23.267L11.8016 22.3638C11.8369 22.3391 11.8721 22.3198 11.9073 22.306L11.967 22.4299L11.9344 22.2978C11.967 22.284 12.0022 22.2785 12.0402 22.273C12.0537 22.2702 12.07 22.2702 12.0808 22.2702C12.1404 22.2675 12.1757 22.2702 12.2082 22.2785C12.2624 22.2867 12.3058 22.3033 12.3464 22.3253L14.0622 23.2367L15.8429 21.6837C15.8619 21.6645 15.8998 21.6424 15.9378 21.6232C15.9974 21.5984 16.0408 21.5846 16.0869 21.5763H16.1167C16.1384 21.5708 16.1519 21.5708 16.1682 21.5708C16.1952 21.5736 16.2169 21.5763 16.2386 21.5791L16.2386 21.5791C16.2956 21.5901 16.3362 21.6011 16.3715 21.6149H16.3769L18.1251 22.4795ZM11.5631 23.9223L10.6145 24.6465V26.1527L19.7026 26.1389L19.6945 22.6006L18.7458 23.3909V25.3954C18.7458 25.6983 18.5019 25.9461 18.2037 25.9461C17.9056 25.9461 17.6616 25.6983 17.6616 25.3954V23.4735L16.713 23.0054V25.3954C16.713 25.6983 16.469 25.9461 16.1709 25.9461C15.8727 25.9461 15.6288 25.6983 15.6288 25.3954V23.3248L14.6801 24.1536V25.3954C14.6801 25.6983 14.4362 25.9461 14.138 25.9461C13.8399 25.9461 13.596 25.6983 13.596 25.3954V24.2335L12.6473 23.7296V25.3954C12.6473 25.6983 12.4034 25.9461 12.1052 25.9461C11.8071 25.9461 11.5631 25.6983 11.5631 25.3954V23.9223Z" fill="url(#paint0_linear_10866_6583)"/>
</g>
<defs>
<filter id="filter0_d_10866_6583" x="0" y="0" width="44" height="44" filterUnits="userSpaceOnUse" color-interpolation-filters="sRGB">
<feFlood flood-opacity="0" result="BackgroundImageFix"/>
<feColorMatrix in="SourceAlpha" type="matrix" values="0 0 0 0 0 0 0 0 0 0 0 0 0 0 0 0 0 0 127 0" result="hardAlpha"/>
<feOffset dy="4"/>
<feGaussianBlur stdDeviation="2"/>
<feComposite in2="hardAlpha" operator="out"/>
<feColorMatrix type="matrix" values="0 0 0 0 0 0 0 0 0 0 0 0 0 0 0 0 0 0 0.25 0"/>
<feBlend mode="normal" in2="BackgroundImageFix" result="effect1_dropShadow_10866_6583"/>
<feBlend mode="normal" in="SourceGraphic" in2="effect1_dropShadow_10866_6583" result="shape"/>
</filter>
<linearGradient id="paint0_linear_10866_6583" x1="21.7303" y1="6" x2="21.7303" y2="28.9998" gradientUnits="userSpaceOnUse">
<stop stop-color="#029CAE"/>
<stop offset="1" stop-color="#0D5B95"/>
</linearGradient>
</defs>
</svg>
