<svg width="44" height="44" viewBox="0 0 44 44" fill="none" xmlns="http://www.w3.org/2000/svg">
<g id="Group 268">
<g id="Ellipse 41" filter="url(#filter0_d_10866_6591)">
<circle cx="22" cy="18" r="18" fill="white"/>
<circle cx="22" cy="18" r="17.75" stroke="#029AAD" stroke-width="0.5"/>
</g>
<path id="Union" fill-rule="evenodd" clip-rule="evenodd" d="M31.6384 10.3302C29.0567 9.07513 25.6339 8.38379 22 8.38379C18.366 8.38379 14.9432 9.07513 12.3615 10.3302C9.67692 11.6352 8.19824 13.4096 8.19824 15.3266V20.0572C8.19824 21.9742 9.67692 23.7486 12.3615 25.0537C14.9432 26.3087 18.3666 27.0001 22 27.0001C25.6333 27.0001 29.0567 26.3087 31.6384 25.0537C34.323 23.7486 35.8017 21.9742 35.8017 20.0572V15.3266C35.8017 13.4096 34.323 11.6352 31.6384 10.3302ZM33.8803 17.6953C33.2627 18.36 32.3837 18.9781 31.2677 19.5207C28.7996 20.7203 25.5083 21.3811 22 21.3811C18.4916 21.3811 15.2009 20.7203 12.7322 19.5207C11.6162 18.9781 10.7372 18.36 10.1197 17.6953C12.1758 15.4736 16.8668 14.0022 22 14.0022C27.1331 14.0022 31.8235 15.4736 33.8803 17.6953ZM34.9357 20.0572C34.9357 21.6119 33.6329 23.1017 31.2677 24.2513C28.7996 25.4509 25.5083 26.1117 22 26.1117C18.4916 26.1117 15.2009 25.4509 12.7322 24.2513C10.367 23.1017 9.06423 21.6119 9.06423 20.0572V17.7868C9.08263 17.8123 9.10158 17.8373 9.12106 17.8628C9.1465 17.9361 9.19088 18.0037 9.25421 18.0565C9.27099 18.0709 9.28885 18.0825 9.30725 18.0942C10.012 18.9248 11.0403 19.6811 12.3615 20.3236C14.9432 21.5786 18.3666 22.27 22 22.27C25.6333 22.27 29.0567 21.5786 31.6384 20.3236C32.9596 19.6816 33.9874 18.9254 34.6921 18.0947C34.7105 18.0836 34.7284 18.0709 34.7457 18.057C34.809 18.0043 34.8534 17.9366 34.8789 17.8634C34.8932 17.845 34.9069 17.8264 34.9207 17.8077L34.9357 17.7874V20.0572ZM26.3806 18.497C27.2184 18.497 27.8999 17.7985 27.8999 16.9396C27.8999 16.0806 27.2184 15.3821 26.3806 15.3821C25.5428 15.3821 24.8613 16.0806 24.8613 16.9396C24.8613 17.7985 25.5428 18.497 26.3806 18.497ZM26.3806 16.2699C26.7405 16.2699 27.0339 16.57 27.0339 16.9396C27.0339 17.3091 26.7411 17.6093 26.3806 17.6093C26.0201 17.6093 25.7273 17.3091 25.7273 16.9396C25.7273 16.57 26.0201 16.2699 26.3806 16.2699ZM13.2316 18.0748C13.2316 17.3263 13.8259 16.7171 14.556 16.7171C15.2861 16.7171 15.8804 17.3263 15.8804 18.0748C15.8804 18.8233 15.2861 19.4325 14.556 19.4325C13.8259 19.4325 13.2316 18.8233 13.2316 18.0748ZM14.0976 18.0748C14.0976 18.3339 14.3032 18.5447 14.556 18.5447C14.8088 18.5447 15.0144 18.3339 15.0144 18.0748C15.0144 17.8157 14.8088 17.6048 14.556 17.6048C14.3032 17.6048 14.0976 17.8157 14.0976 18.0748ZM29.0307 18.8216C29.0973 18.8216 29.1649 18.8061 29.2283 18.7728C29.2375 18.7678 30.1814 18.2784 31.5237 18.1158C31.7613 18.087 31.9307 17.8662 31.9025 17.6231C31.8744 17.3796 31.6595 17.2059 31.4219 17.2347C29.9254 17.416 28.8895 17.9542 28.8326 17.9838L28.8315 17.9843C28.6194 18.097 28.5365 18.3639 28.6459 18.5814C28.7227 18.7345 28.8743 18.8222 29.0312 18.8222L29.0307 18.8216ZM23.5845 20.8157C23.3653 20.8157 23.1775 20.6459 23.1542 20.4179H23.1547C23.1298 20.1743 23.3025 19.9557 23.5401 19.9302C24.8466 19.7896 25.7756 19.3305 25.8107 19.3131L25.8117 19.3126C26.0255 19.2039 26.2853 19.2932 26.3919 19.5124C26.4985 19.7315 26.4125 19.9979 26.1987 20.1072C26.1554 20.1294 25.1211 20.6531 23.6305 20.8135C23.6148 20.8152 23.5996 20.8157 23.5845 20.8157ZM21.9908 15.3344C21.9485 15.3322 21.9128 15.305 21.8982 15.2645C21.7965 14.9721 21.5729 14.7496 21.285 14.6536C20.9987 14.5581 20.6918 14.6025 20.4428 14.7756L20.4385 14.7784C20.4033 14.8034 20.3573 14.8028 20.3221 14.7784C20.072 14.6031 19.7641 14.5581 19.4761 14.6536C19.1882 14.7496 18.9647 14.9721 18.8629 15.2645C18.8488 15.305 18.8126 15.3322 18.7709 15.3344H18.7677C18.4656 15.3433 18.1901 15.4925 18.0121 15.7433C17.834 15.9941 17.781 16.3087 17.8659 16.6072C17.8778 16.6494 17.8638 16.6938 17.8291 16.7215C17.5899 16.9113 17.453 17.1976 17.453 17.5072C17.453 17.8168 17.5899 18.1036 17.8302 18.2939C17.8638 18.3206 17.8778 18.365 17.8659 18.4071C17.8659 18.4088 17.8649 18.411 17.8643 18.4127C17.7815 18.709 17.8351 19.0213 18.0121 19.271C18.1901 19.5218 18.4651 19.6711 18.7677 19.6799H18.7704C18.8126 19.6822 18.8483 19.7094 18.8624 19.7499C18.9641 20.0423 19.1877 20.2648 19.4756 20.3607C19.7635 20.4562 20.072 20.4112 20.3216 20.2359C20.3567 20.2109 20.4027 20.2109 20.4379 20.2359L20.4423 20.2387C20.6052 20.3519 20.793 20.4096 20.983 20.4096C21.0836 20.4096 21.1854 20.3935 21.2844 20.3602C21.5724 20.2642 21.7959 20.0417 21.8977 19.7493C21.9117 19.7088 21.948 19.6816 21.9897 19.6794H21.9924C22.2944 19.6705 22.5699 19.5213 22.748 19.2705C22.9244 19.0213 22.9785 18.709 22.8957 18.4132L22.8941 18.4066C22.8822 18.3644 22.8963 18.32 22.9298 18.2934L22.9309 18.2923C23.1701 18.1025 23.3071 17.8162 23.3071 17.5061C23.3071 17.1959 23.1701 16.9096 22.9298 16.7193C22.8963 16.6926 22.8822 16.6483 22.8941 16.6061C22.8941 16.605 22.8945 16.6038 22.895 16.6025L22.8957 16.6C22.9785 16.3037 22.9249 15.9913 22.748 15.7416C22.5699 15.4908 22.2949 15.3416 21.9924 15.3327H21.9897L21.9908 15.3344ZM22.0487 16.2654C22.0622 16.2848 22.0757 16.3159 22.0644 16.357C22.0644 16.3582 22.0638 16.3597 22.0633 16.361L22.0627 16.3625C21.9523 16.7559 22.0849 17.172 22.4026 17.4234C22.4357 17.4495 22.4427 17.4833 22.4427 17.5072C22.4427 17.531 22.4357 17.5643 22.4026 17.5909L22.4016 17.5921C22.0855 17.8428 21.9529 18.2579 22.0627 18.6513L22.0644 18.6579C22.0763 18.699 22.0622 18.7306 22.0487 18.7495C22.0351 18.7683 22.0108 18.7911 21.9702 18.7927H21.9669C21.5648 18.805 21.2179 19.0635 21.0826 19.4514C21.0685 19.4919 21.0393 19.5091 21.0171 19.5163C20.9949 19.5235 20.9613 19.5274 20.9272 19.503C20.9269 19.5027 20.9266 19.5024 20.9263 19.5022C20.926 19.502 20.9256 19.5018 20.9253 19.5016C20.9248 19.5013 20.9244 19.501 20.9239 19.5006C20.9238 19.5005 20.9236 19.5003 20.9234 19.5002C20.5922 19.2699 20.1646 19.271 19.8339 19.503C19.7993 19.5274 19.7657 19.5235 19.7441 19.5163C19.7219 19.5091 19.6926 19.4919 19.6786 19.4514C19.5433 19.063 19.1963 18.8044 18.7942 18.7922H18.7915C18.7509 18.7905 18.7265 18.7678 18.713 18.7489C18.6995 18.73 18.6859 18.6984 18.6973 18.6574C18.6973 18.6557 18.6984 18.6535 18.6989 18.6518C18.8093 18.2579 18.6767 17.8423 18.359 17.5909C18.326 17.5649 18.319 17.531 18.319 17.5072C18.319 17.4833 18.326 17.45 18.3601 17.4228C18.6778 17.1709 18.8099 16.7531 18.6973 16.357C18.6854 16.3159 18.6995 16.2843 18.713 16.2649C18.7265 16.246 18.7509 16.2232 18.7915 16.2216H18.7947C19.1969 16.2094 19.5438 15.9508 19.6791 15.563C19.6932 15.5225 19.7224 15.5053 19.7446 15.4981C19.7668 15.4908 19.7998 15.487 19.8344 15.5114C20.1651 15.7433 20.5927 15.7439 20.924 15.5141L20.9278 15.5114C20.9624 15.4875 20.996 15.4908 21.0176 15.4981C21.0398 15.5053 21.0685 15.5225 21.0831 15.563C21.2184 15.9508 21.5653 16.2099 21.9675 16.2216H21.9702C22.0108 16.2232 22.0351 16.246 22.0487 16.2649V16.2654ZM21.1995 16.6011C21.3369 16.742 21.3624 16.954 21.2763 17.1215H21.2774C21.3932 17.2014 21.4695 17.3368 21.4695 17.4905C21.4695 17.6442 21.3932 17.7796 21.2774 17.8595C21.3635 18.0271 21.338 18.239 21.2005 18.3799C21.1156 18.4665 21.0052 18.5098 20.8942 18.5098C20.8244 18.5098 20.7551 18.4926 20.6923 18.4587C20.6144 18.5775 20.4823 18.6557 20.3324 18.6557C20.1825 18.6557 20.0504 18.5775 19.9725 18.4587C19.9091 18.4926 19.8399 18.5098 19.7706 18.5098C19.6596 18.5098 19.5487 18.4665 19.4642 18.3799C19.3268 18.239 19.3013 18.0271 19.3874 17.8595C19.2716 17.7796 19.1952 17.6442 19.1952 17.4905C19.1952 17.3368 19.2716 17.2014 19.3874 17.1215C19.3013 16.954 19.3268 16.742 19.4642 16.6011C19.6017 16.4602 19.8085 16.4341 19.9719 16.5223C20.0499 16.4036 20.1819 16.3253 20.3318 16.3253C20.4818 16.3253 20.6138 16.4036 20.6918 16.5223C20.8552 16.4341 21.062 16.4602 21.1995 16.6011ZM19.953 17.4345C19.953 17.6797 20.1467 17.8784 20.386 17.8784C20.6252 17.8784 20.819 17.6797 20.819 17.4345C20.819 17.1892 20.6252 16.9906 20.386 16.9906C20.1467 16.9906 19.953 17.1892 19.953 17.4345Z" fill="url(#paint0_linear_10866_6591)"/>
</g>
<defs>
<filter id="filter0_d_10866_6591" x="0" y="0" width="44" height="44" filterUnits="userSpaceOnUse" color-interpolation-filters="sRGB">
<feFlood flood-opacity="0" result="BackgroundImageFix"/>
<feColorMatrix in="SourceAlpha" type="matrix" values="0 0 0 0 0 0 0 0 0 0 0 0 0 0 0 0 0 0 127 0" result="hardAlpha"/>
<feOffset dy="4"/>
<feGaussianBlur stdDeviation="2"/>
<feComposite in2="hardAlpha" operator="out"/>
<feColorMatrix type="matrix" values="0 0 0 0 0 0 0 0 0 0 0 0 0 0 0 0 0 0 0.25 0"/>
<feBlend mode="normal" in2="BackgroundImageFix" result="effect1_dropShadow_10866_6591"/>
<feBlend mode="normal" in="SourceGraphic" in2="effect1_dropShadow_10866_6591" result="shape"/>
</filter>
<linearGradient id="paint0_linear_10866_6591" x1="22" y1="8.38379" x2="22" y2="27.0001" gradientUnits="userSpaceOnUse">
<stop stop-color="#029CAE"/>
<stop offset="1" stop-color="#0D5B95"/>
</linearGradient>
</defs>
</svg>
