<svg width="18" height="29" viewBox="0 0 18 29" fill="none" xmlns="http://www.w3.org/2000/svg">
<g clip-path="url(#clip0_12376_8372)">
<path d="M4.46975e-05 27.55V28.5167C4.46975e-05 28.7825 0.213203 29 0.473729 29H2.36847C2.62899 29 2.84215 28.7825 2.84215 28.5167C2.84215 27.869 2.88952 27.2213 2.97478 26.5833H15.0206C15.1106 27.2213 15.1532 27.869 15.1532 28.5167C15.1532 28.7825 15.3664 29 15.6269 29H17.5216C17.7822 29 17.9953 28.7825 17.9953 28.5167V27.55C18.0048 23.7075 16.5079 20.0197 13.8364 17.3082L11.0843 14.5L13.8364 11.6918C16.5079 8.98033 18.0048 5.2925 17.9953 1.45V0.483333C17.9953 0.2175 17.7822 0 17.5216 0H15.6269C15.3664 0 15.1532 0.2175 15.1532 0.483333C15.1532 1.131 15.1058 1.77867 15.0206 2.41667H13.6658C13.41 1.38717 12.3822 0.763667 11.3732 1.02467C10.7053 1.19867 10.1795 1.73033 10.009 2.41667H2.97952C2.88952 1.77867 2.84689 1.131 2.84689 0.483333C2.84689 0.2175 2.63373 0 2.3732 0H0.473729C0.213203 0 4.46975e-05 0.2175 4.46975e-05 0.483333V1.45C-0.00942899 5.2925 1.48741 8.98033 4.15899 11.6918L6.9111 14.5L4.15899 17.3082C1.48741 20.0197 -0.00942899 23.7075 4.46975e-05 27.55ZM3.15005 25.6167C3.3632 24.6162 3.68531 23.6447 4.11636 22.7167H6.22426C6.48005 23.7462 7.50794 24.3697 8.51689 24.1087C9.18478 23.9347 9.71057 23.403 9.8811 22.7167H13.8837C14.3148 23.6447 14.6369 24.6162 14.85 25.6167H3.15005ZM10.2269 17.8833H7.77794L9.00478 16.6315L10.2316 17.8833H10.2269ZM6.72162 18.9563L6.82583 18.85H11.1695L11.2737 18.9563C12.0885 19.7925 12.799 20.7302 13.3769 21.75H9.87636C9.62057 20.7205 8.59268 20.097 7.58373 20.358C6.91583 20.532 6.39005 21.0637 6.21952 21.75H4.61373C5.19162 20.7302 5.90215 19.7925 6.71689 18.9563H6.72162ZM9.00004 22.2333C9.00004 22.765 8.57373 23.2 8.05268 23.2C7.53162 23.2 7.10531 22.765 7.10531 22.2333C7.10531 21.7017 7.53162 21.2667 8.05268 21.2667C8.57373 21.2667 9.00004 21.7017 9.00004 22.2333ZM16.0958 0.966667H17.0527V1.45C17.0622 5.03633 15.6648 8.47767 13.1732 11.0103L10.4211 13.8185L9.66794 13.05L11.9464 10.7252C14.4995 8.1345 15.9869 4.64 16.0958 0.966667ZM7.7732 11.1167H10.2222L8.99531 12.3685L7.76847 11.1167H7.7732ZM11.2785 10.0437L11.1743 10.15H6.83057L6.72636 10.0437C5.91162 9.2075 5.2011 8.26983 4.6232 7.25H13.3864C12.8085 8.26983 12.0979 9.2075 11.2832 10.0437H11.2785ZM11.8422 1.93333C12.3632 1.93333 12.7895 2.36833 12.7895 2.9C12.7895 3.43167 12.3632 3.86667 11.8422 3.86667C11.3211 3.86667 10.8948 3.43167 10.8948 2.9C10.8948 2.36833 11.3211 1.93333 11.8422 1.93333ZM10.0137 3.38333C10.2695 4.41283 11.2974 5.03633 12.3064 4.77533C12.9743 4.60133 13.5 4.06967 13.6706 3.38333H14.85C14.6369 4.38383 14.3148 5.35533 13.8837 6.28333H4.11636C3.68531 5.35533 3.3632 4.38383 3.15005 3.38333H10.0137ZM0.947413 1.45V0.966667H1.90426C2.0132 4.64 3.50057 8.1345 6.05373 10.7252L8.66373 13.3883L10.0848 14.8383L13.1685 17.9848C15.66 20.5127 17.0574 23.9588 17.0479 27.5452V28.0285H16.0911C15.9822 24.3552 14.4948 20.8607 11.9416 18.27L9.33162 15.6068L7.91057 14.1568L4.82689 11.0103C2.33531 8.47767 0.93794 5.03633 0.947413 1.45ZM7.57899 15.1815L8.33215 15.95L6.05373 18.2748C3.50057 20.8655 2.0132 24.36 1.90426 28.0333H0.947413V27.55C0.93794 23.9637 2.33531 20.5223 4.82689 17.9897L7.57899 15.1815Z" fill="#007A85"/>
</g>
<defs>
<clipPath id="clip0_12376_8372">
<rect width="18" height="29" fill="white"/>
</clipPath>
</defs>
</svg>
