<svg width="44" height="44" viewBox="0 0 44 44" fill="none" xmlns="http://www.w3.org/2000/svg">
<g id="Group 266">
<g id="Group 264">
<g id="Ellipse 39" filter="url(#filter0_d_10866_6579)">
<circle cx="22" cy="18" r="18" fill="white"/>
<circle cx="22" cy="18" r="17.75" stroke="#029AAD" stroke-width="0.5"/>
</g>
<path id="Vector" d="M15 29.8V30.6C15 30.82 15.154 31 15.3422 31H16.711C16.8992 31 17.0532 30.82 17.0532 30.6C17.0532 30.064 17.0874 29.528 17.149 29H25.851C25.916 29.528 25.9468 30.064 25.9468 30.6C25.9468 30.82 26.1008 31 26.289 31H27.6578C27.846 31 28 30.82 28 30.6V29.8C28.0068 26.62 26.9255 23.568 24.9955 21.324L23.0074 19L24.9955 16.676C26.9255 14.432 28.0068 11.38 28 8.2V7.4C28 7.18 27.846 7 27.6578 7H26.289C26.1008 7 25.9468 7.18 25.9468 7.4C25.9468 7.936 25.9126 8.472 25.851 9H24.8723C24.6875 8.148 23.945 7.632 23.2161 7.848C22.7336 7.992 22.3538 8.432 22.2306 9H17.1524C17.0874 8.472 17.0566 7.936 17.0566 7.4C17.0566 7.18 16.9026 7 16.7144 7H15.3422C15.154 7 15 7.18 15 7.4V8.2C14.9932 11.38 16.0745 14.432 18.0045 16.676L19.9926 19L18.0045 21.324C16.0745 23.568 14.9932 26.62 15 29.8ZM17.2756 28.2C17.4296 27.372 17.6623 26.568 17.9737 25.8H19.4965C19.6812 26.652 20.4238 27.168 21.1527 26.952C21.6352 26.808 22.015 26.368 22.1382 25.8H25.0297C25.3411 26.568 25.5738 27.372 25.7278 28.2H17.2756ZM22.388 21.8H20.6189L21.5051 20.764L22.3914 21.8H22.388ZM19.8558 22.688L19.931 22.6H23.069L23.1442 22.688C23.7328 23.38 24.2461 24.156 24.6636 25H22.1348C21.95 24.148 21.2074 23.632 20.4786 23.848C19.9961 23.992 19.6162 24.432 19.493 25H18.333C18.7505 24.156 19.2638 23.38 19.8523 22.688H19.8558ZM26.6278 7.8H27.319V8.2C27.3258 11.168 26.3164 14.016 24.5164 16.112L22.5283 18.436L21.9842 17.8L23.6302 15.876C25.4746 13.732 26.5491 10.84 26.6278 7.8ZM20.6154 16.2H22.3846L21.4983 17.236L20.612 16.2H20.6154ZM23.1477 15.312L23.0724 15.4H19.9345L19.8592 15.312C19.2706 14.62 18.7573 13.844 18.3398 13H24.6704C24.2529 13.844 23.7397 14.62 23.1511 15.312H23.1477ZM22.234 9.8C22.4188 10.652 23.1613 11.168 23.8902 10.952C24.3727 10.808 24.7525 10.368 24.8757 9.8H25.7278C25.5738 10.628 25.3411 11.432 25.0297 12.2H17.9737C17.6623 11.432 17.4296 10.628 17.2756 9.8H22.234ZM15.6844 8.2V7.8H16.3757C16.4544 10.84 17.5288 13.732 19.3733 15.876L21.2588 18.08L22.2853 19.28L24.513 21.884C26.313 23.976 27.3224 26.828 27.3156 29.796V30.196H26.6243C26.5456 27.156 25.4712 24.264 23.6267 22.12L21.7412 19.916L20.7147 18.716L18.487 16.112C16.687 14.016 15.6776 11.168 15.6844 8.2ZM20.4751 19.564L21.0192 20.2L19.3733 22.124C17.5288 24.268 16.4544 27.16 16.3757 30.2H15.6844V29.8C15.6776 26.832 16.687 23.984 18.487 21.888L20.4751 19.564Z" fill="url(#paint0_linear_10866_6579)"/>
</g>
</g>
<defs>
<filter id="filter0_d_10866_6579" x="0" y="0" width="44" height="44" filterUnits="userSpaceOnUse" color-interpolation-filters="sRGB">
<feFlood flood-opacity="0" result="BackgroundImageFix"/>
<feColorMatrix in="SourceAlpha" type="matrix" values="0 0 0 0 0 0 0 0 0 0 0 0 0 0 0 0 0 0 127 0" result="hardAlpha"/>
<feOffset dy="4"/>
<feGaussianBlur stdDeviation="2"/>
<feComposite in2="hardAlpha" operator="out"/>
<feColorMatrix type="matrix" values="0 0 0 0 0 0 0 0 0 0 0 0 0 0 0 0 0 0 0.25 0"/>
<feBlend mode="normal" in2="BackgroundImageFix" result="effect1_dropShadow_10866_6579"/>
<feBlend mode="normal" in="SourceGraphic" in2="effect1_dropShadow_10866_6579" result="shape"/>
</filter>
<linearGradient id="paint0_linear_10866_6579" x1="21.5" y1="7" x2="21.5" y2="31" gradientUnits="userSpaceOnUse">
<stop stop-color="#029CAE"/>
<stop offset="1" stop-color="#0D5B95"/>
</linearGradient>
</defs>
</svg>
