<svg width="27" height="31" viewBox="0 0 27 31" fill="none" xmlns="http://www.w3.org/2000/svg">
<g clip-path="url(#clip0_12376_8392)">
<path d="M24.9717 22.973C25.4635 22.0088 25.6433 20.962 25.4805 19.9058C25.2295 18.2659 24.1746 16.8354 22.655 16.0741C21.8545 15.6713 21.0302 15.3953 20.1992 15.2494C19.6395 15.1511 19.0799 15.094 18.5473 15.0623V13.5683L20.7046 12.0965C20.8776 11.976 20.9827 11.7857 20.9827 11.5827V5.28642H21.7663C22.1428 5.28642 22.4447 5.00095 22.4447 4.65204C22.4447 4.30313 22.1394 4.01766 21.7663 4.01766H18.5507V1.76877H19.8939C20.267 1.76877 20.5723 1.48329 20.5723 1.13438C20.5723 0.785473 20.267 0.5 19.8939 0.5H15.8439C15.4708 0.5 15.1655 0.785473 15.1655 1.13438C15.1655 1.48329 15.4708 1.76877 15.8439 1.76877H17.1939V4.01766H13.975C13.6018 4.01766 13.2966 4.30313 13.2966 4.65204C13.2966 5.00095 13.6018 5.28642 13.975 5.28642H14.7551V11.589C14.7551 11.792 14.8569 11.9823 15.0332 12.1029L17.1905 13.5715V15.0306C16.2713 15.0401 15.6234 15.1099 15.5726 15.1162C14.3786 15.2526 13.1677 15.5032 11.9635 15.8616C11.4106 14.8942 10.3184 14.2312 9.0634 14.2312C7.25209 14.2312 5.77659 15.611 5.77659 17.3048C5.77659 17.6632 5.84443 18.0122 5.96993 18.342C3.21905 19.8265 1.23475 21.33 0.898949 21.644C-0.0100963 22.4941 -0.247534 23.4996 0.26126 24.337C0.773446 25.1775 1.635 25.6216 2.75774 25.6216H21.5322C22.5159 25.6216 23.2282 25.0982 23.5674 24.7874C23.7913 24.5812 23.9948 24.3655 24.1814 24.1466H24.2288C25.0056 24.1466 25.6399 24.7208 25.6399 25.4249C25.6399 26.1291 24.9785 26.7857 24.2288 26.7857H17.1702C16.0474 26.7857 15.0977 27.6294 15.0977 28.6254C15.0977 29.6214 16.0474 30.5 17.1702 30.5H20.6028C20.9794 30.5 21.2846 30.2145 21.2846 29.8656C21.2846 29.5167 20.9794 29.2312 20.6062 29.2312H17.1702C16.7733 29.2312 16.4545 28.8982 16.4545 28.6254C16.4545 28.3526 16.7598 28.0545 17.1702 28.0545H24.2288C25.7281 28.0545 26.9967 26.8491 26.9967 25.4249C26.9967 24.2577 26.1385 23.2712 24.9717 22.973ZM16.1153 9.95549H18.2692C18.4591 9.95549 18.6084 9.81275 18.6084 9.6383C18.6084 9.46384 18.4557 9.3211 18.2692 9.3211H16.1153V7.50677H18.2692C18.4557 7.50677 18.6084 7.36403 18.6084 7.18957C18.6084 7.01512 18.4557 6.87238 18.2692 6.87238H16.1153V5.28642H19.6294V11.2623L17.8723 12.4613L16.1153 11.2655V9.95549ZM21.5356 24.3497H2.76453C1.9335 24.3528 1.61465 23.9849 1.44505 23.7089C1.17031 23.2617 1.64518 22.7447 1.86227 22.5417C2.04543 22.3672 4.10435 20.759 7.1232 19.1889L7.16051 19.1731C7.33011 19.0938 7.459 18.9479 7.50988 18.7766C7.56415 18.6053 7.53362 18.4213 7.43186 18.2691C7.23852 17.9804 7.13676 17.6474 7.13676 17.308C7.13676 16.312 8.00171 15.5032 9.06679 15.5032C10.1319 15.5032 10.9968 16.312 11.0002 17.3048C11.0002 17.7679 10.8103 18.212 10.4677 18.5482C10.2133 18.802 10.2234 19.2048 10.4948 19.4459C10.7662 19.6869 11.1969 19.6742 11.4547 19.4205C12.0348 18.8464 12.357 18.0946 12.357 17.3048C12.357 17.2287 12.357 17.1557 12.3502 17.0828C13.4831 16.7434 14.6262 16.5055 15.7456 16.3786C15.7591 16.3786 16.3493 16.3152 17.1939 16.3025V18.3547C17.1939 18.7036 17.4992 18.9891 17.8723 18.9891C18.2454 18.9891 18.5507 18.7068 18.5507 18.3547V16.3374C19.0086 16.3659 19.4903 16.4167 19.9618 16.4992C20.6537 16.6197 21.3491 16.8544 22.0275 17.1938C23.1672 17.7647 23.9609 18.8464 24.1508 20.0866C24.3577 21.4442 23.8184 22.7922 22.6312 23.8834C22.4786 24.0229 22.0648 24.3497 21.5356 24.3497Z" fill="#007A85"/>
<path d="M6.13255 21.3838C5.76282 21.3838 5.46094 21.6693 5.46094 22.015C5.46094 22.3607 5.76282 22.643 6.13255 22.643C6.50227 22.643 6.80755 22.3607 6.80415 22.015C6.80415 21.6661 6.50227 21.3838 6.13255 21.3838Z" fill="#007A85"/>
</g>
<defs>
<clipPath id="clip0_12376_8392">
<rect width="27" height="30" fill="white" transform="translate(0 0.5)"/>
</clipPath>
</defs>
</svg>
