<svg width="44" height="44" viewBox="0 0 44 44" fill="none" xmlns="http://www.w3.org/2000/svg">
<g id="Group 265">
<g id="Ellipse 38" filter="url(#filter0_d_10866_6574)">
<circle cx="22" cy="18" r="18" fill="white"/>
<circle cx="22" cy="18" r="17.75" stroke="#0299AC" stroke-width="0.5"/>
</g>
<path id="Subtract" fill-rule="evenodd" clip-rule="evenodd" d="M11.5 9.2572V27.2758C11.5 27.9702 12.0276 28.533 12.6787 28.533H25.4594C26.3116 29.4392 27.4894 30 28.7863 30C30.0831 30 31.26 29.4392 32.1123 28.533C32.9698 27.623 33.5 26.362 33.5 24.9712V11.7716C33.5 11.0771 32.9724 10.5144 32.3214 10.5144H22.2693L20.4881 8.61354C20.1202 8.22114 19.6191 8 19.0986 8H12.6787C12.0276 8 11.5 8.56273 11.5 9.2572ZM32.7148 13.9375V13.9378H32.7157C32.7154 13.9377 32.7151 13.9376 32.7148 13.9375ZM32.7148 11.7706V13.9375C32.5916 13.8916 32.4595 13.8663 32.3222 13.8663H31.1436V12.6091C31.1436 12.3776 30.968 12.1903 30.751 12.1903H13.4647C13.2477 12.1903 13.0712 12.3776 13.0712 12.6091V16.3807H12.6787C12.541 16.3807 12.4087 16.4061 12.2852 16.4522V9.2572C12.2852 9.02571 12.4616 8.83844 12.6787 8.83844H19.0995C19.4118 8.83844 19.7117 8.97113 19.9323 9.20638L21.83 11.2296C21.9032 11.3077 22.0037 11.3519 22.1079 11.3519H32.3214C32.5384 11.3519 32.7148 11.5392 32.7148 11.7706ZM32.7148 22.1891V22.1924L32.7157 22.1905C32.7154 22.19 32.7151 22.1896 32.7148 22.1891ZM32.7148 15.1244V22.1891C31.8686 20.8348 30.4249 19.9415 28.7872 19.9415C26.1846 19.9415 24.0726 22.1943 24.0726 24.9703C24.0726 25.9743 24.3478 26.9097 24.8233 27.6945H12.6787C12.4616 27.6945 12.2852 27.5072 12.2852 27.2758V17.6379C12.2852 17.4064 12.4616 17.2191 12.6787 17.2191H22.893C22.9971 17.2191 23.0977 17.1749 23.1709 17.0968L25.0686 15.0736C25.2891 14.8384 25.5891 14.7057 25.9014 14.7057H32.3214C32.5384 14.7057 32.7148 14.8929 32.7148 15.1244ZM30.3566 13.0278V13.8663H13.8564V13.0278H30.3566ZM29.2061 24.5948H31.1708C31.3878 24.5948 31.5634 24.7821 31.5634 25.0136C31.5634 25.245 31.3878 25.4323 31.1708 25.4323H29.2061V27.5279C29.2061 27.7594 29.0305 27.9467 28.8135 27.9467C28.5965 27.9467 28.4209 27.7594 28.4209 27.5279V25.4323H26.4562C26.2392 25.4323 26.0636 25.245 26.0636 25.0136C26.0636 24.7821 26.2392 24.5948 26.4562 24.5948H28.4209V22.4992C28.4209 22.2677 28.5965 22.0804 28.8135 22.0804C29.0305 22.0804 29.2061 22.2677 29.2061 22.4992V24.5948Z" fill="url(#paint0_linear_10866_6574)"/>
</g>
<defs>
<filter id="filter0_d_10866_6574" x="0" y="0" width="44" height="44" filterUnits="userSpaceOnUse" color-interpolation-filters="sRGB">
<feFlood flood-opacity="0" result="BackgroundImageFix"/>
<feColorMatrix in="SourceAlpha" type="matrix" values="0 0 0 0 0 0 0 0 0 0 0 0 0 0 0 0 0 0 127 0" result="hardAlpha"/>
<feOffset dy="4"/>
<feGaussianBlur stdDeviation="2"/>
<feComposite in2="hardAlpha" operator="out"/>
<feColorMatrix type="matrix" values="0 0 0 0 0 0 0 0 0 0 0 0 0 0 0 0 0 0 0.25 0"/>
<feBlend mode="normal" in2="BackgroundImageFix" result="effect1_dropShadow_10866_6574"/>
<feBlend mode="normal" in="SourceGraphic" in2="effect1_dropShadow_10866_6574" result="shape"/>
</filter>
<linearGradient id="paint0_linear_10866_6574" x1="22.5" y1="8" x2="22.5" y2="30" gradientUnits="userSpaceOnUse">
<stop stop-color="#029CAE"/>
<stop offset="1" stop-color="#0D5B95"/>
</linearGradient>
</defs>
</svg>
