<svg width="38" height="25" viewBox="0 0 38 25" fill="none" xmlns="http://www.w3.org/2000/svg">
<g clip-path="url(#clip0_12376_8377)">
<path d="M32.2687 2.61385C28.7146 0.92841 24.0026 0 19 0C13.9974 0 9.28541 0.92841 5.73129 2.61385C2.03561 4.36636 0 6.74923 0 9.32359V15.6764C0 18.2508 2.03561 20.6336 5.73129 22.3861C9.28541 24.0716 13.9982 25 19 25C24.0018 25 28.7146 24.0716 32.2687 22.3861C35.9644 20.6336 38 18.2508 38 15.6764V9.32359C38 6.74923 35.9644 4.36636 32.2687 2.61385ZM6.24169 3.69054C9.63933 2.07961 14.1703 1.19218 19 1.19218C23.8297 1.19218 28.3599 2.07961 31.7583 3.69054C35.0144 5.23441 36.8078 7.23504 36.8078 9.32284C36.8078 10.0873 36.5664 10.8391 36.1022 11.5619C32.9669 8.37655 26.3914 6.35208 19 6.35208C11.6086 6.35208 5.03314 8.37729 1.89776 11.5626C1.43357 10.8399 1.19216 10.0873 1.19216 9.32359C1.19216 7.23578 2.98561 5.23516 6.24169 3.69129V3.69054ZM35.3549 12.5045C34.5047 13.3971 33.2947 14.2272 31.7583 14.9559C28.3607 16.5668 23.8297 17.4543 19 17.4543C14.1703 17.4543 9.64008 16.5668 6.24169 14.9559C4.70529 14.2272 3.49525 13.3971 2.6451 12.5045C5.47573 9.52104 11.9335 7.545 19 7.545C26.0665 7.545 32.5235 9.52104 35.3549 12.5045ZM36.8078 15.6764C36.8078 17.7642 35.0144 19.7648 31.7583 21.3087C28.3607 22.9196 23.8297 23.8071 19 23.8071C14.1703 23.8071 9.64008 22.9196 6.24169 21.3087C2.98561 19.7648 1.19216 17.7642 1.19216 15.6764V12.6274C1.21749 12.6617 1.24357 12.6952 1.27039 12.7295C1.30541 12.8278 1.36651 12.9188 1.45369 12.9895C1.47678 13.0089 1.50137 13.0246 1.52671 13.0402C2.49682 14.1556 3.91251 15.1712 5.73129 16.0341C9.28541 17.7195 13.9982 18.6479 19 18.6479C24.0018 18.6479 28.7146 17.7195 32.2687 16.0341C34.0875 15.172 35.5024 14.1564 36.4725 13.041C36.4979 13.026 36.5225 13.0089 36.5463 12.9903C36.6335 12.9195 36.6946 12.8286 36.7296 12.7302C36.7564 12.6967 36.7818 12.6624 36.8078 12.6282V15.6772V15.6764Z" fill="#007A85"/>
<path d="M25.03 13.5813C26.1834 13.5813 27.1215 12.6432 27.1215 11.4897C27.1215 10.3363 26.1834 9.39819 25.03 9.39819C23.8766 9.39819 22.9385 10.3363 22.9385 11.4897C22.9385 12.6432 23.8766 13.5813 25.03 13.5813ZM25.03 10.5904C25.5255 10.5904 25.9293 10.9935 25.9293 11.4897C25.9293 11.986 25.5262 12.3891 25.03 12.3891C24.5337 12.3891 24.1306 11.986 24.1306 11.4897C24.1306 10.9935 24.5337 10.5904 25.03 10.5904Z" fill="#007A85"/>
<path d="M8.75245 11.1909C7.74732 11.1909 6.9292 12.0091 6.9292 13.0142C6.9292 14.0194 7.74732 14.8375 8.75245 14.8375C9.75759 14.8375 10.5757 14.0194 10.5757 13.0142C10.5757 12.0091 9.75759 11.1909 8.75245 11.1909ZM8.75245 13.6453C8.40449 13.6453 8.12136 13.3622 8.12136 13.0142C8.12136 12.6662 8.40449 12.3831 8.75245 12.3831C9.10042 12.3831 9.38355 12.6662 9.38355 13.0142C9.38355 13.3622 9.10042 13.6453 8.75245 13.6453Z" fill="#007A85"/>
<path d="M28.6782 14.0171C28.7698 14.0171 28.863 13.9962 28.9501 13.9515C28.9628 13.9448 30.2623 13.2876 32.1101 13.0693C32.4372 13.0305 32.6704 12.734 32.6317 12.4076C32.5929 12.0805 32.2971 11.8473 31.97 11.886C29.8957 12.1312 28.4643 12.8621 28.404 12.8927C28.1119 13.0439 27.9979 13.4023 28.1484 13.6944C28.2542 13.9001 28.4628 14.0178 28.6789 14.0178L28.6782 14.0171Z" fill="#007A85"/>
<path d="M20.5899 16.1607C20.622 16.4669 20.8805 16.6949 21.1823 16.6949C21.2032 16.6949 21.224 16.6942 21.2456 16.692C23.2976 16.4766 24.7215 15.7732 24.7811 15.7434C25.0754 15.5967 25.1939 15.239 25.0471 14.9447C24.9003 14.6504 24.5427 14.5304 24.2484 14.6764C24.2357 14.6824 22.9459 15.3143 21.1212 15.5057C20.7941 15.54 20.5564 15.8336 20.5907 16.1607H20.5899Z" fill="#007A85"/>
<path d="M18.9871 9.33398C18.929 9.331 18.8798 9.29449 18.8597 9.24009C18.7196 8.84742 18.4119 8.54863 18.0155 8.41973C17.6214 8.29157 17.1989 8.35118 16.8562 8.58365C16.8539 8.58514 16.8524 8.58589 16.8502 8.58738C16.8018 8.62091 16.7384 8.62016 16.69 8.58738C16.3458 8.35192 15.9218 8.29157 15.5254 8.41973C15.129 8.54863 14.8213 8.84742 14.6812 9.24009C14.6618 9.29449 14.6119 9.331 14.5545 9.33398C14.5531 9.33398 14.5516 9.33398 14.5501 9.33398C14.1343 9.3459 13.7551 9.54634 13.5099 9.88313C13.2648 10.2199 13.1918 10.6424 13.3087 11.0433C13.3251 11.0999 13.3058 11.1595 13.2581 11.1968C12.9287 11.4516 12.7402 11.8361 12.7402 12.2518C12.7402 12.6676 12.9287 13.0528 13.2596 13.3084C13.3058 13.3442 13.3251 13.4038 13.3087 13.4604C13.3087 13.4626 13.3073 13.4656 13.3065 13.4679C13.1925 13.8658 13.2663 14.2852 13.5099 14.6205C13.7551 14.9573 14.1336 15.1578 14.5501 15.1697C14.5516 15.1697 14.5531 15.1697 14.5538 15.1697C14.6119 15.1727 14.6611 15.2092 14.6805 15.2636C14.8205 15.6563 15.1283 15.955 15.5247 16.0839C15.9211 16.2121 16.3458 16.1518 16.6893 15.9163C16.7377 15.8828 16.801 15.8828 16.8494 15.9163C16.8517 15.9178 16.8532 15.9185 16.8554 15.92C17.0797 16.072 17.3382 16.1495 17.5998 16.1495C17.7384 16.1495 17.8784 16.1279 18.0148 16.0832C18.4112 15.9543 18.7189 15.6555 18.859 15.2628C18.8784 15.2084 18.9283 15.1719 18.9856 15.169C18.9871 15.169 18.9886 15.169 18.9894 15.169C19.4051 15.157 19.7844 14.9566 20.0295 14.6198C20.2724 14.2852 20.3469 13.8658 20.2329 13.4686C20.2322 13.4656 20.2314 13.4626 20.2307 13.4597C20.2143 13.403 20.2337 13.3434 20.2799 13.3077L20.2814 13.3062C20.6107 13.0513 20.7992 12.6669 20.7992 12.2503C20.7992 11.8338 20.6107 11.4494 20.2799 11.1938C20.2337 11.158 20.2143 11.0984 20.2307 11.0418C20.2307 11.0395 20.2322 11.0366 20.2329 11.0336C20.3469 10.6357 20.2732 10.2162 20.0295 9.88089C19.7844 9.5441 19.4059 9.34366 18.9894 9.33174C18.9879 9.33174 18.9871 9.33174 18.9856 9.33174L18.9871 9.33398ZM19.0669 10.5843C19.0855 10.6104 19.1041 10.6521 19.0885 10.7072C19.0885 10.7095 19.087 10.7124 19.0862 10.7147C18.9342 11.243 19.1168 11.8018 19.5542 12.1393C19.5996 12.1743 19.6093 12.2198 19.6093 12.2518C19.6093 12.2839 19.5996 12.3286 19.5542 12.3643L19.5527 12.3658C19.1175 12.7026 18.935 13.26 19.0862 13.7883C19.087 13.7912 19.0877 13.7942 19.0885 13.7972C19.1049 13.8523 19.0855 13.8948 19.0669 13.9201C19.0482 13.9455 19.0147 13.976 18.9588 13.9783C18.9573 13.9783 18.9558 13.9783 18.9544 13.9783C18.4007 13.9947 17.9231 14.3419 17.7369 14.8627C17.7175 14.9171 17.6773 14.9402 17.6467 14.9499C17.6162 14.9596 17.57 14.9648 17.523 14.932C17.5215 14.9305 17.5193 14.9298 17.5178 14.9283C17.0618 14.6191 16.4732 14.6205 16.0179 14.932C15.9702 14.9648 15.924 14.9596 15.8942 14.9499C15.8637 14.9402 15.8234 14.9171 15.8041 14.8627C15.6178 14.3411 15.1402 13.9939 14.5866 13.9775C14.5851 13.9775 14.5836 13.9775 14.5829 13.9775C14.527 13.9753 14.4935 13.9447 14.4748 13.9194C14.4562 13.8941 14.4376 13.8516 14.4532 13.7965C14.4532 13.7942 14.4547 13.7912 14.4554 13.789C14.6074 13.26 14.4249 12.7019 13.9875 12.3643C13.9421 12.3293 13.9324 12.2839 13.9324 12.2518C13.9324 12.2198 13.9421 12.1751 13.989 12.1386C14.4264 11.8003 14.6082 11.2392 14.4532 10.7072C14.4368 10.6521 14.4562 10.6096 14.4748 10.5835C14.4935 10.5582 14.527 10.5276 14.5829 10.5254C14.5844 10.5254 14.5858 10.5254 14.5873 10.5254C15.1409 10.509 15.6185 10.1618 15.8048 9.64096C15.8242 9.58657 15.8644 9.56347 15.895 9.55379C15.9255 9.5441 15.971 9.53888 16.0187 9.57167C16.4739 9.88313 17.0625 9.88387 17.5185 9.57539L17.5238 9.57167C17.5715 9.53963 17.6176 9.5441 17.6475 9.55379C17.678 9.56347 17.7175 9.58657 17.7376 9.64096C17.9239 10.1618 18.4015 10.5098 18.9551 10.5254C18.9566 10.5254 18.9581 10.5254 18.9588 10.5254C19.0147 10.5276 19.0482 10.5582 19.0669 10.5835V10.5843Z" fill="#007A85"/>
<path d="M18.0036 11.734C18.122 11.509 18.087 11.2244 17.8978 11.0351C17.7085 10.8459 17.4239 10.8108 17.1989 10.9293C17.0916 10.7699 16.9098 10.6648 16.7034 10.6648C16.497 10.6648 16.3152 10.7699 16.2079 10.9293C15.9829 10.8108 15.6982 10.8459 15.509 11.0351C15.3197 11.2244 15.2847 11.509 15.4032 11.734C15.2437 11.8413 15.1387 12.0231 15.1387 12.2295C15.1387 12.4359 15.2437 12.6177 15.4032 12.725C15.2847 12.9501 15.3197 13.2347 15.509 13.4239C15.6252 13.5402 15.778 13.5983 15.9307 13.5983C16.0261 13.5983 16.1215 13.5752 16.2086 13.5298C16.3159 13.6892 16.4977 13.7943 16.7041 13.7943C16.9105 13.7943 17.0923 13.6892 17.1996 13.5298C17.286 13.5752 17.3814 13.5983 17.4775 13.5983C17.6303 13.5983 17.7823 13.5402 17.8993 13.4239C18.0885 13.2347 18.1235 12.9501 18.0051 12.725C18.1645 12.6177 18.2696 12.4359 18.2696 12.2295C18.2696 12.0231 18.1645 11.8413 18.0051 11.734H18.0036ZM16.7779 12.7504C16.4486 12.7504 16.1818 12.4836 16.1818 12.1543C16.1818 11.8249 16.4486 11.5582 16.7779 11.5582C17.1072 11.5582 17.374 11.8249 17.374 12.1543C17.374 12.4836 17.1072 12.7504 16.7779 12.7504Z" fill="#007A85"/>
</g>
<defs>
<clipPath id="clip0_12376_8377">
<rect width="38" height="25" fill="white"/>
</clipPath>
</defs>
</svg>
