<svg width="31" height="31" viewBox="0 0 31 31" fill="none" xmlns="http://www.w3.org/2000/svg">
<g clip-path="url(#clip0_12376_8374)">
<path d="M27.081 22.2565H25.9707V21.1496C25.9707 20.5354 25.4714 20.0361 24.8571 20.0361H23.369C22.7547 20.0361 22.2554 20.5354 22.2554 21.1496V22.2598H21.1517C20.5374 22.2598 20.0381 22.7591 20.0381 23.3733V24.8612C20.0381 25.4754 20.5374 25.9747 21.1517 25.9747H22.262V27.0849C22.262 27.6991 22.7613 28.1983 23.3756 28.1983H24.8637C25.478 28.1983 25.9773 27.6991 25.9773 27.0849V25.9747H27.0876C27.7019 25.9747 28.2012 25.4754 28.2012 24.8612V23.37C28.1946 22.7558 27.692 22.2565 27.081 22.2565ZM22.7942 24.894H21.1517C21.132 24.894 21.1155 24.8809 21.1155 24.8579V23.37C21.1155 23.3503 21.132 23.3339 21.1517 23.3339H22.8007C23.0964 23.3339 23.3395 23.0908 23.3395 22.7952V21.1496C23.3395 21.1299 23.3559 21.1135 23.3756 21.1135H24.8637C24.8834 21.1135 24.8998 21.1299 24.8998 21.1496V22.7985C24.8998 23.0941 25.1429 23.3372 25.4385 23.3372H27.0876C27.1073 23.3372 27.1237 23.3536 27.1237 23.3733L27.1171 24.8579C27.1171 24.8776 27.1007 24.894 27.081 24.894H25.432C25.1363 24.894 24.8932 25.1371 24.8932 25.4327V27.0816C24.8932 27.1013 24.8768 27.1177 24.8571 27.1177H23.369C23.3493 27.1177 23.3329 27.1013 23.3329 27.0816V25.4327C23.3329 25.1371 23.0898 24.894 22.7942 24.894Z" fill="#007A85"/>
<path d="M29.213 19.4974C29.6795 18.0291 29.9193 16.5018 29.9193 14.958C29.9193 10.9607 28.3622 7.2064 25.5371 4.38493C22.7088 1.5569 18.9508 0 14.9596 0C10.9684 0 7.21045 1.5569 4.38211 4.38165C1.55706 7.20968 0 10.9673 0 14.958C0 18.9488 1.55706 22.7031 4.38211 25.5312C7.20716 28.3559 10.9619 29.9128 14.9563 29.9128C16.5003 29.9128 18.0245 29.6763 19.4961 29.2066C20.7707 30.3628 22.4066 30.9967 24.1115 30.9967C27.9089 30.9967 31 27.9092 31 24.1122C31.0033 22.4075 30.3693 20.7718 29.213 19.4908V19.4974ZM18.6782 28.3329C18.0475 28.507 17.4069 28.6351 16.7598 28.7205C17.2394 28.3592 17.7026 27.9585 18.1395 27.5315C18.2971 27.8074 18.4778 28.0767 18.6782 28.3329ZM24.1148 29.9227C20.9119 29.9227 18.3037 27.3147 18.3037 24.1122C18.3037 20.9097 20.9119 18.3018 24.1148 18.3018C27.3176 18.3018 29.9258 20.9097 29.9258 24.1122C29.9258 27.3147 27.3176 29.9227 24.1148 29.9227ZM21.6182 14.4194H15.4951V8.92753C17.2459 8.90125 18.9837 8.74687 20.6623 8.46768C21.2503 10.2118 21.5722 12.2121 21.6149 14.4194H21.6182ZM21.362 7.24253C20.3765 4.77908 18.8326 2.74921 16.7663 1.19559C20.2024 1.65215 23.3921 3.40612 25.6258 6.08635C24.2396 6.57247 22.8074 6.96006 21.362 7.24253ZM15.4951 7.85675V1.62259C17.6533 3.06781 19.2629 5.02214 20.2812 7.44289C18.7209 7.69252 17.1145 7.83376 15.4951 7.85675ZM15.4984 15.4934H21.6215C21.6051 16.2916 21.5558 17.0536 21.4737 17.7598C19.9232 18.4069 18.6716 19.5893 17.9325 21.1002C17.108 21.0313 16.29 20.9918 15.4984 20.9787V15.4934ZM28.8221 15.4934C28.7794 16.5773 28.6151 17.6448 28.3293 18.6762C27.1238 17.7401 25.6357 17.2244 24.1082 17.2244C23.6122 17.2244 23.103 17.2835 22.584 17.4018C22.6431 16.804 22.6792 16.1635 22.6924 15.4934H28.8188H28.8221ZM22.6957 14.4194C22.6497 12.153 22.331 10.087 21.7397 8.26732C23.3001 7.952 24.8374 7.52501 26.3157 6.98962C27.8563 9.18044 28.7235 11.7424 28.8254 14.4194H22.6957ZM15.4951 22.0561C16.1849 22.0692 16.8616 22.0988 17.5186 22.148C17.3248 22.7951 17.2262 23.452 17.2262 24.1122C17.2262 24.9268 17.3741 25.7249 17.6566 26.4903C17.0226 27.1472 16.2966 27.7515 15.4918 28.2902V22.0528L15.4951 22.0561ZM8.17951 21.6455C6.61916 21.9608 5.08181 22.3878 3.60358 22.9232C2.06294 20.7324 1.19572 18.1704 1.09389 15.4934H7.22359C7.26958 17.7598 7.58822 19.8258 8.17951 21.6455ZM9.63802 7.43961C10.6498 5.02543 12.2594 3.0711 14.4209 1.62259V7.85675C12.8014 7.83047 11.1951 7.69252 9.63802 7.44289V7.43961ZM8.55399 7.24582C7.09876 6.96006 5.66652 6.57247 4.29013 6.08964C6.52389 3.40612 9.71357 1.64887 13.1496 1.19888C11.09 2.74921 9.54276 4.77908 8.55399 7.24582ZM14.4209 8.93081V14.4194H8.29776C8.34375 12.2187 8.66239 10.2184 9.2504 8.46768C10.9224 8.75016 12.6602 8.90782 14.4242 8.93081H14.4209ZM1.09389 14.4194C1.19572 11.7457 2.06294 9.18373 3.60358 6.98962C5.08181 7.52501 6.61916 7.952 8.17951 8.26732C7.58493 10.087 7.26629 12.1563 7.22359 14.4194H1.09389ZM14.4176 20.982C12.6667 21.0083 10.929 21.1626 9.2504 21.4418C8.66239 19.701 8.34375 17.7007 8.29776 15.4967H14.4176V20.982ZM8.55399 22.6703C9.53947 25.1337 11.0834 27.1636 13.1496 28.7172C9.71357 28.2639 6.52389 26.5067 4.29013 23.8264C5.67638 23.3403 7.10861 22.9527 8.55399 22.6703ZM14.4209 22.0593V28.2935C12.2594 26.845 10.6531 24.8907 9.63802 22.4765C11.1918 22.2269 12.8014 22.0856 14.4209 22.0626V22.0593Z" fill="#007A85"/>
</g>
<defs>
<clipPath id="clip0_12376_8374">
<rect width="31" height="31" fill="white"/>
</clipPath>
</defs>
</svg>
