<svg width="29" height="31" viewBox="0 0 29 31" fill="none" xmlns="http://www.w3.org/2000/svg">
<g clip-path="url(#clip0_12376_8385)">
<path d="M12.9015 3.21808H16.0985C16.3185 3.21808 16.4971 3.04319 16.4971 2.82779C16.4971 2.61239 16.3185 2.4375 16.0985 2.4375H12.9015C12.6815 2.4375 12.5029 2.61239 12.5029 2.82779C12.5029 3.04319 12.6815 3.21808 12.9015 3.21808Z" fill="#007A85"/>
<path d="M16.0987 3.47459H12.9016C12.5376 3.47459 12.2412 3.18431 12.2412 2.82787C12.2412 2.47143 12.5376 2.18115 12.9016 2.18115H16.0987C16.4626 2.18115 16.759 2.47143 16.759 2.82787C16.759 3.18431 16.4626 3.47459 16.0987 3.47459ZM12.9016 2.69453C12.8262 2.69453 12.7649 2.75453 12.7649 2.82839C12.7649 2.90224 12.8262 2.96224 12.9016 2.96224H16.0987C16.1741 2.96224 16.2353 2.90224 16.2353 2.82839C16.2353 2.75453 16.1741 2.69453 16.0987 2.69453H12.9016Z" fill="#007A85"/>
<path d="M14.4996 0.256348C6.64908 0.256348 0.261719 6.51174 0.261719 14.2001V30.3532C0.261719 30.5686 0.440295 30.7435 0.660242 30.7435H28.3395C28.5595 30.7435 28.738 30.5686 28.738 30.3532V14.2001C28.738 6.51174 22.3507 0.256348 14.4996 0.256348ZM14.4996 1.03641C21.9118 1.03641 27.941 6.94152 27.941 14.2001C27.941 20.1975 23.7128 25.4846 17.8171 26.9539V22.8941C21.5164 21.5407 23.9825 18.0824 23.9825 14.2001C23.9825 9.07913 19.7281 4.91314 14.4996 4.91314C9.27116 4.91314 5.01676 9.07913 5.01676 14.2001C5.01676 18.0824 7.48278 21.5407 11.1821 22.8941V26.9539C5.28646 25.4851 1.05824 20.198 1.05824 14.2001C1.05824 6.94203 7.08793 1.03641 14.4996 1.03641ZM16.5551 15.4986C16.5551 16.6085 15.6329 17.5116 14.5001 17.5116C13.3674 17.5116 12.4452 16.6085 12.4452 15.4986C12.4452 14.3888 13.3674 13.4856 14.5001 13.4856C15.6329 13.4856 16.5551 14.3888 16.5551 15.4986ZM12.5463 17.5311H8.14315C8.28245 15.8869 9.69273 14.5904 11.4067 14.5904H11.8032C11.7026 14.8755 11.6476 15.1807 11.6476 15.4986C11.6476 16.2992 11.9938 17.0213 12.5463 17.5311ZM17.3516 15.4986C17.3516 15.1807 17.2961 14.8755 17.1961 14.5904H17.5925C19.3065 14.5904 20.7163 15.8869 20.855 17.5311H16.453C17.0054 17.0213 17.3516 16.2992 17.3516 15.4986ZM21.6536 17.5311C21.5128 15.4561 19.7453 13.8103 17.592 13.8103H16.7693C16.2482 13.1395 15.4244 12.7056 14.4996 12.7056C13.5748 12.7056 12.751 13.1395 12.23 13.8103H11.4073C9.25336 13.8103 7.4854 15.4566 7.34453 17.5311H6.50821C6.05889 16.4997 5.81381 15.3709 5.81381 14.2001C5.81381 9.50942 9.71001 5.69372 14.4996 5.69372C19.2892 5.69372 23.1854 9.50942 23.1854 14.2001C23.1854 15.3709 22.9403 16.4992 22.491 17.5311H21.6536ZM1.05824 18.7686C2.63138 23.1598 6.404 26.639 11.1821 27.7571V29.9634H1.05824V18.7686ZM11.9791 27.4458V22.6192C11.9791 22.4525 11.8702 22.3033 11.7084 22.2494C9.60946 21.5514 7.92058 20.1221 6.89731 18.3117H22.1024C21.0792 20.1226 19.3903 21.5514 17.2914 22.2494C17.1296 22.3033 17.0206 22.4525 17.0206 22.6192V29.9634H11.9791V27.4458ZM27.9415 29.9634H17.8177V27.7571C22.5958 26.638 26.3684 23.1588 27.9415 18.7681V29.9634Z" fill="#007A85"/>
<path d="M28.3396 31H0.660364C0.296405 31 0 30.7097 0 30.3533V14.2001C0 6.37027 6.50467 0 14.4997 0C22.4948 0 28.9995 6.37027 28.9995 14.2001V30.3533C28.9995 30.7097 28.7031 31 28.3391 31H28.3396ZM14.4997 0.512863C6.79322 0.512863 0.523683 6.65286 0.523683 14.2001V30.3533C0.523683 30.4271 0.584954 30.4871 0.660364 30.4871H28.3396C28.415 30.4871 28.4763 30.4271 28.4763 30.3533V14.2001C28.4763 6.65286 22.2068 0.512863 14.5003 0.512863H14.4997ZM28.203 30.2199H17.5554V27.5546L17.7565 27.5074C20.0345 26.974 22.1602 25.8652 23.904 24.3005C25.6175 22.7629 26.9283 20.8207 27.6939 18.6836L28.203 17.2635V30.2204V30.2199ZM18.0796 29.7071H27.6798V20.0847C26.8665 21.8151 25.7003 23.385 24.2586 24.6785C22.5006 26.256 20.3681 27.3869 18.0796 27.9577V29.7071ZM17.2826 30.2199H11.7174V22.6193C11.7174 22.5619 11.6802 22.5106 11.6242 22.4921C9.50904 21.7885 7.74894 20.3478 6.66858 18.4359L6.45335 18.0553H22.5467L22.3314 18.4359C21.2505 20.3483 19.4904 21.789 17.3758 22.4921C17.3203 22.5106 17.2826 22.5619 17.2826 22.6193V30.2199ZM12.2411 29.7071H16.7589V22.6193C16.7589 22.3418 16.9391 22.0957 17.2072 22.0064C19.0558 21.3915 20.6164 20.1786 21.6443 18.5677H7.35513C8.38312 20.1786 9.94369 21.3915 11.7923 22.0064C12.0604 22.0957 12.2406 22.3418 12.2406 22.6193V29.7071H12.2411ZM11.444 30.2199H0.796522V17.2635L1.30554 18.6836C2.07169 20.8212 3.38195 22.7634 5.09544 24.301C6.8393 25.8657 8.96546 26.9745 11.243 27.5074L11.444 27.5546V30.2199ZM1.3202 29.7071H10.9204V27.9577C8.63239 27.3874 6.49995 26.2565 4.74143 24.679C3.29973 23.3855 2.13296 21.8157 1.3202 20.0853V29.7071ZM17.556 27.2838V22.7162L17.7261 22.6542C19.4931 22.008 20.996 20.8648 22.0727 19.3493C23.151 17.8307 23.7213 16.0506 23.7213 14.2001C23.7213 9.22076 19.5847 5.16966 14.5003 5.16966C9.41582 5.16966 5.27925 9.22076 5.27925 14.2001C5.27925 16.05 5.84902 17.8307 6.9278 19.3493C8.00397 20.8648 9.50694 22.0075 11.2744 22.6542L11.4446 22.7162V27.2838L11.1183 27.2022C8.20664 26.4765 5.57304 24.7826 3.70349 22.4326C1.82923 20.0765 0.797046 17.1527 0.797046 14.2001C0.796522 6.80056 6.94404 0.780064 14.4997 0.780064C22.0554 0.780064 28.203 6.80005 28.203 14.2001C28.203 17.1532 27.1708 20.077 25.2965 22.4326C23.427 24.7826 20.7939 26.4765 17.8817 27.2022L17.5554 27.2838H17.556ZM18.0796 23.0706V26.6196C20.7494 25.8796 23.1557 24.2902 24.8839 22.1177C26.6869 19.8514 27.6798 17.0399 27.6798 14.2001C27.6798 7.08315 21.7674 1.29293 14.5003 1.29293C7.23311 1.29293 1.3202 7.08315 1.3202 14.2001C1.3202 17.0394 2.31311 19.8514 4.11615 22.1177C5.8443 24.2902 8.25063 25.8796 10.9204 26.6196V23.0706C9.12675 22.3772 7.60021 21.1951 6.49734 19.6421C5.3578 18.0374 4.75504 16.1557 4.75504 14.2001C4.75504 8.93818 9.12623 4.6568 14.4997 4.6568C19.8732 4.6568 24.2444 8.93766 24.2444 14.2001C24.2444 16.1557 23.6422 18.0374 22.5021 19.6421C21.3993 21.1951 19.8727 22.3772 18.0791 23.0706H18.0796ZM22.6645 17.7876H21.4092L21.393 17.5481C21.2605 15.5956 19.591 14.0668 17.5926 14.0668H16.64L16.5615 13.9658C16.0655 13.3278 15.3141 12.9621 14.4997 12.9621C13.6854 12.9621 12.9339 13.3278 12.438 13.9658L12.3594 14.0668H11.4074C9.40849 14.0668 7.73847 15.5962 7.60597 17.5481L7.58974 17.7876H6.33552L6.26744 17.6317C5.79246 16.5419 5.55156 15.3874 5.55156 14.2001C5.55156 9.36847 9.5656 5.43737 14.4992 5.43737C19.4328 5.43737 23.4469 9.36847 23.4469 14.2001C23.4469 15.3869 23.206 16.5414 22.731 17.6317L22.6629 17.7876H22.6645ZM21.892 17.2748H22.3168C22.72 16.2947 22.9242 15.2613 22.9242 14.2001C22.9242 9.65105 19.1453 5.95024 14.5003 5.95024C9.85519 5.95024 6.07629 9.65105 6.07629 14.2001C6.07629 15.2613 6.28053 16.2947 6.68377 17.2748H7.10743C7.37346 15.17 9.21682 13.5539 11.4079 13.5539H12.1039C12.6988 12.8503 13.565 12.4492 14.5003 12.4492C15.4356 12.4492 16.3017 12.8503 16.8966 13.5539H17.5926C19.7832 13.5539 21.6265 15.17 21.892 17.2748ZM21.1395 17.7876H15.7932L16.2735 17.3445C16.7998 16.8588 17.0893 16.2034 17.0893 15.4987C17.0893 15.2177 17.0417 14.9402 16.948 14.674L16.828 14.334H17.5916C18.4834 14.334 19.336 14.6612 19.9916 15.2561C20.6431 15.847 21.0426 16.6475 21.1154 17.5102L21.139 17.7876H21.1395ZM17.0281 17.2748H20.5567C20.3016 15.8926 19.0505 14.8469 17.5921 14.8469H17.5413C17.5895 15.0607 17.6136 15.2787 17.6136 15.4987C17.6136 16.1372 17.4046 16.7598 17.0281 17.2748ZM13.2062 17.7876H7.85891L7.88248 17.5102C7.95527 16.648 8.35484 15.8475 9.00683 15.2561C9.66248 14.6617 10.515 14.334 11.4074 14.334H12.1709L12.051 14.674C11.9573 14.9402 11.9096 15.2177 11.9096 15.4987C11.9096 16.2034 12.1992 16.8588 12.7255 17.3445L13.2057 17.7876H13.2062ZM8.44177 17.2748H11.9714C11.5949 16.7598 11.3859 16.1372 11.3859 15.4987C11.3859 15.2787 11.41 15.0607 11.4582 14.8469H11.4074C9.94841 14.8469 8.69733 15.8926 8.44177 17.2748ZM14.4997 17.7681C13.222 17.7681 12.183 16.7501 12.183 15.4987C12.183 14.2473 13.2225 13.2293 14.4997 13.2293C15.777 13.2293 16.8165 14.2473 16.8165 15.4987C16.8165 16.7501 15.777 17.7681 14.4997 17.7681ZM14.4997 13.7422C13.511 13.7422 12.7066 14.5304 12.7066 15.4987C12.7066 16.467 13.511 17.2553 14.4997 17.2553C15.4885 17.2553 16.2928 16.467 16.2928 15.4987C16.2928 14.5304 15.4885 13.7422 14.4997 13.7422Z" fill="#007A85"/>
</g>
<defs>
<clipPath id="clip0_12376_8385">
<rect width="29" height="31" fill="white"/>
</clipPath>
</defs>
</svg>
