<svg width="32" height="31" viewBox="0 0 32 31" fill="none" xmlns="http://www.w3.org/2000/svg">
<g clip-path="url(#clip0_12376_8369)">
<path fill-rule="evenodd" clip-rule="evenodd" d="M0 27.1613V1.7715C0 0.792934 0.767374 0 1.7144 0H11.0525C11.8096 0 12.5385 0.311604 13.0736 0.864537L15.6644 3.54301H30.2856C31.2326 3.54301 32 4.33594 32 5.31451V23.914C32 25.8738 31.2288 27.6506 29.9815 28.9328C28.7419 30.2097 27.03 31 25.1437 31C23.2573 31 21.5442 30.2097 20.3046 28.9328H1.7144C0.767374 28.9328 0 28.1399 0 27.1613ZM30.8579 8.36691V5.31319C30.8579 4.987 30.6013 4.72313 30.2856 4.72313H15.4296C15.2782 4.72313 15.1319 4.66081 15.0254 4.55075L12.2651 1.6999C11.9443 1.36841 11.508 1.18144 11.0538 1.18144H1.7144C1.39872 1.18144 1.14208 1.44531 1.14208 1.7715V11.9099C1.32173 11.8449 1.51422 11.8091 1.7144 11.8091H2.28544V6.49463C2.28544 6.16844 2.54209 5.90457 2.85776 5.90457H28.0014C28.3171 5.90457 28.5725 6.16844 28.5725 6.49463V8.26614H30.2869C30.4871 8.26614 30.6796 8.30194 30.8592 8.36691H30.8579ZM30.8579 19.9984V10.039C30.8579 9.71278 30.6013 9.44891 30.2856 9.44891H20.9475C20.4932 9.44891 20.0569 9.63587 19.7361 9.96736L16.9759 12.8182C16.8694 12.9283 16.7231 12.9906 16.5717 12.9906H1.7144C1.39872 12.9906 1.14208 13.2545 1.14208 13.5806V27.1613C1.14208 27.4875 1.39872 27.7514 1.7144 27.7514H19.3794C18.6877 26.6455 18.2874 25.3275 18.2874 23.9127C18.2874 20.001 21.3594 16.8266 25.145 16.8266C27.5279 16.8266 29.6286 18.0863 30.8592 19.9957L30.8579 19.9984ZM27.4278 8.26614V7.08469H3.42752V8.26614H27.4278Z" fill="#007A85"/>
<path fill-rule="evenodd" clip-rule="evenodd" d="M28.6122 23.3836H25.7545V20.4306C25.7545 20.1044 25.4991 19.8406 25.1834 19.8406C24.8678 19.8406 24.6124 20.1044 24.6124 20.4306V23.3836H21.7546C21.439 23.3836 21.1836 23.6475 21.1836 23.9736C21.1836 24.2998 21.439 24.5637 21.7546 24.5637H24.6124V27.5167C24.6124 27.8428 24.8678 28.1067 25.1834 28.1067C25.4991 28.1067 25.7545 27.8428 25.7545 27.5167V24.5637H28.6122C28.9279 24.5637 29.1833 24.2998 29.1833 23.9736C29.1833 23.6475 28.9279 23.3836 28.6122 23.3836Z" fill="white"/>
</g>
<defs>
<clipPath id="clip0_12376_8369">
<rect width="32" height="31" fill="white"/>
</clipPath>
</defs>
</svg>
