<svg width="134" height="124" viewBox="0 0 134 124" fill="none" xmlns="http://www.w3.org/2000/svg">
<rect width="133.374" height="124" rx="20" fill="#00838F"/>
<path d="M47.0632 66.625C46.7799 66.8083 46.3715 67.0333 45.8382 67.3C45.3215 67.55 44.7049 67.7667 43.9882 67.95C43.2882 68.1333 42.5215 68.2167 41.6882 68.2C40.2715 68.1833 39.0049 67.9333 37.8882 67.45C36.7715 66.9667 35.8132 66.3083 35.0132 65.475C34.2299 64.625 33.6299 63.6583 33.2132 62.575C32.7965 61.475 32.5882 60.3083 32.5882 59.075C32.5882 57.7083 32.8049 56.4583 33.2382 55.325C33.6882 54.175 34.3132 53.1833 35.1132 52.35C35.9132 51.5 36.8549 50.8417 37.9382 50.375C39.0382 49.9083 40.2382 49.675 41.5382 49.675C42.6382 49.675 43.6382 49.825 44.5382 50.125C45.4382 50.425 46.1965 50.7667 46.8132 51.15L45.7632 53.6C45.2799 53.2667 44.6799 52.95 43.9632 52.65C43.2632 52.35 42.4799 52.2 41.6132 52.2C40.4799 52.2 39.4299 52.5 38.4632 53.1C37.5132 53.7 36.7465 54.5083 36.1632 55.525C35.5965 56.5417 35.3132 57.6833 35.3132 58.95C35.3132 60.2333 35.5715 61.3833 36.0882 62.4C36.6215 63.4167 37.3715 64.2167 38.3382 64.8C39.3049 65.3833 40.4382 65.675 41.7382 65.675C42.6715 65.675 43.4882 65.5333 44.1882 65.25C44.9049 64.9667 45.4882 64.6417 45.9382 64.275L47.0632 66.625ZM60.4966 51.525L56.1966 58.625L54.6716 57.875C55.1049 57.675 55.5882 57.575 56.1216 57.575C56.7382 57.5583 57.3382 57.6333 57.9216 57.8C58.5049 57.95 59.0299 58.2167 59.4966 58.6C59.9632 58.9833 60.3299 59.5 60.5966 60.15C60.8799 60.7833 61.0216 61.575 61.0216 62.525C61.0216 63.6917 60.7549 64.7 60.2216 65.55C59.6882 66.4 58.9799 67.0583 58.0966 67.525C57.2132 67.975 56.2382 68.2 55.1716 68.2C54.3716 68.2 53.5632 68.0333 52.7466 67.7C51.9466 67.3667 51.2882 66.9333 50.7716 66.4L52.0966 64.25C52.3966 64.6167 52.8216 64.95 53.3716 65.25C53.9216 65.5333 54.5049 65.675 55.1216 65.675C55.9882 65.675 56.7382 65.3833 57.3716 64.8C58.0049 64.2 58.3216 63.3917 58.3216 62.375C58.3216 61.4583 58.0549 60.7333 57.5216 60.2C56.9882 59.6667 56.2549 59.4 55.3216 59.4C54.8382 59.4 54.4382 59.4333 54.1216 59.5C53.8049 59.5667 53.5132 59.65 53.2466 59.75L53.1466 59.65L56.8966 53.7L57.6966 54.05H51.7966V51.525H60.4966ZM66.1819 68V49.875H71.2069C73.0069 49.875 74.5319 50.15 75.7819 50.7C77.0319 51.2333 78.0486 51.9583 78.8319 52.875C79.6153 53.775 80.1819 54.775 80.5319 55.875C80.8986 56.975 81.0819 58.075 81.0819 59.175C81.0819 60.525 80.8403 61.75 80.3569 62.85C79.8903 63.9333 79.2319 64.8583 78.3819 65.625C77.5486 66.3917 76.5903 66.9833 75.5069 67.4C74.4236 67.8 73.2819 68 72.0819 68H66.1819ZM68.7819 65.475H71.5819C72.8986 65.475 74.0653 65.225 75.0819 64.725C76.0986 64.225 76.8986 63.4917 77.4819 62.525C78.0819 61.5583 78.3819 60.3833 78.3819 59C78.3819 57.8667 78.1903 56.8917 77.8069 56.075C77.4403 55.2417 76.9486 54.5583 76.3319 54.025C75.7153 53.475 75.0236 53.0667 74.2569 52.8C73.4903 52.5333 72.7069 52.4 71.9069 52.4H68.7819V65.475ZM99.4284 66.625C99.1451 66.8083 98.7368 67.0333 98.2034 67.3C97.6868 67.55 97.0701 67.7667 96.3534 67.95C95.6534 68.1333 94.8868 68.2167 94.0534 68.2C92.6368 68.1833 91.3701 67.9333 90.2534 67.45C89.1368 66.9667 88.1784 66.3083 87.3784 65.475C86.5951 64.625 85.9951 63.6583 85.5784 62.575C85.1618 61.475 84.9534 60.3083 84.9534 59.075C84.9534 57.7083 85.1701 56.4583 85.6034 55.325C86.0534 54.175 86.6784 53.1833 87.4784 52.35C88.2784 51.5 89.2201 50.8417 90.3034 50.375C91.4034 49.9083 92.6034 49.675 93.9034 49.675C95.0034 49.675 96.0034 49.825 96.9034 50.125C97.8034 50.425 98.5618 50.7667 99.1784 51.15L98.1284 53.6C97.6451 53.2667 97.0451 52.95 96.3284 52.65C95.6284 52.35 94.8451 52.2 93.9784 52.2C92.8451 52.2 91.7951 52.5 90.8284 53.1C89.8784 53.7 89.1118 54.5083 88.5284 55.525C87.9618 56.5417 87.6784 57.6833 87.6784 58.95C87.6784 60.2333 87.9368 61.3833 88.4534 62.4C88.9868 63.4167 89.7368 64.2167 90.7034 64.8C91.6701 65.3833 92.8034 65.675 94.1034 65.675C95.0368 65.675 95.8534 65.5333 96.5534 65.25C97.2701 64.9667 97.8534 64.6417 98.3034 64.275L99.4284 66.625Z" fill="white"/>
</svg>
