<svg width="83" height="73" viewBox="0 0 83 73" fill="none" xmlns="http://www.w3.org/2000/svg">
<rect x="3" width="78" height="73" rx="20" fill="#00838F"/>
<path d="M27.8655 41.01C27.6615 41.142 27.3675 41.304 26.9835 41.496C26.6115 41.676 26.1675 41.832 25.6515 41.964C25.1475 42.096 24.5955 42.156 23.9955 42.144C22.9755 42.132 22.0635 41.952 21.2595 41.604C20.4555 41.256 19.7655 40.782 19.1895 40.182C18.6255 39.57 18.1935 38.874 17.8935 38.094C17.5935 37.302 17.4435 36.462 17.4435 35.574C17.4435 34.59 17.5995 33.69 17.9115 32.874C18.2355 32.046 18.6855 31.332 19.2615 30.732C19.8375 30.12 20.5155 29.646 21.2955 29.31C22.0875 28.974 22.9515 28.806 23.8875 28.806C24.6795 28.806 25.3995 28.914 26.0475 29.13C26.6955 29.346 27.2415 29.592 27.6855 29.868L26.9295 31.632C26.5815 31.392 26.1495 31.164 25.6335 30.948C25.1295 30.732 24.5655 30.624 23.9415 30.624C23.1255 30.624 22.3695 30.84 21.6735 31.272C20.9895 31.704 20.4375 32.286 20.0175 33.018C19.6095 33.75 19.4055 34.572 19.4055 35.484C19.4055 36.408 19.5915 37.236 19.9635 37.968C20.3475 38.7 20.8875 39.276 21.5835 39.696C22.2795 40.116 23.0955 40.326 24.0315 40.326C24.7035 40.326 25.2915 40.224 25.7955 40.02C26.3115 39.816 26.7315 39.582 27.0555 39.318L27.8655 41.01ZM37.5375 30.138L34.4415 35.25L33.3435 34.71C33.6555 34.566 34.0035 34.494 34.3875 34.494C34.8315 34.482 35.2635 34.536 35.6835 34.656C36.1035 34.764 36.4815 34.956 36.8175 35.232C37.1535 35.508 37.4175 35.88 37.6095 36.348C37.8135 36.804 37.9155 37.374 37.9155 38.058C37.9155 38.898 37.7235 39.624 37.3395 40.236C36.9555 40.848 36.4455 41.322 35.8095 41.658C35.1735 41.982 34.4715 42.144 33.7035 42.144C33.1275 42.144 32.5455 42.024 31.9575 41.784C31.3815 41.544 30.9075 41.232 30.5355 40.848L31.4895 39.3C31.7055 39.564 32.0115 39.804 32.4075 40.02C32.8035 40.224 33.2235 40.326 33.6675 40.326C34.2915 40.326 34.8315 40.116 35.2875 39.696C35.7435 39.264 35.9715 38.682 35.9715 37.95C35.9715 37.29 35.7795 36.768 35.3955 36.384C35.0115 36 34.4835 35.808 33.8115 35.808C33.4635 35.808 33.1755 35.832 32.9475 35.88C32.7195 35.928 32.5095 35.988 32.3175 36.06L32.2455 35.988L34.9455 31.704L35.5215 31.956H31.2735V30.138H37.5375ZM41.631 42V28.95H45.249C46.545 28.95 47.643 29.148 48.543 29.544C49.443 29.928 50.175 30.45 50.739 31.11C51.303 31.758 51.711 32.478 51.963 33.27C52.227 34.062 52.359 34.854 52.359 35.646C52.359 36.618 52.185 37.5 51.837 38.292C51.501 39.072 51.027 39.738 50.415 40.29C49.815 40.842 49.125 41.268 48.345 41.568C47.565 41.856 46.743 42 45.879 42H41.631ZM43.503 40.182H45.519C46.467 40.182 47.307 40.002 48.039 39.642C48.771 39.282 49.347 38.754 49.767 38.058C50.199 37.362 50.415 36.516 50.415 35.52C50.415 34.704 50.277 34.002 50.001 33.414C49.737 32.814 49.383 32.322 48.939 31.938C48.495 31.542 47.997 31.248 47.445 31.056C46.893 30.864 46.329 30.768 45.753 30.768H43.503V40.182ZM65.5685 41.01C65.3645 41.142 65.0705 41.304 64.6865 41.496C64.3145 41.676 63.8705 41.832 63.3545 41.964C62.8505 42.096 62.2985 42.156 61.6985 42.144C60.6785 42.132 59.7665 41.952 58.9625 41.604C58.1585 41.256 57.4685 40.782 56.8925 40.182C56.3285 39.57 55.8965 38.874 55.5965 38.094C55.2965 37.302 55.1465 36.462 55.1465 35.574C55.1465 34.59 55.3025 33.69 55.6145 32.874C55.9385 32.046 56.3885 31.332 56.9645 30.732C57.5405 30.12 58.2185 29.646 58.9985 29.31C59.7905 28.974 60.6545 28.806 61.5905 28.806C62.3825 28.806 63.1025 28.914 63.7505 29.13C64.3985 29.346 64.9445 29.592 65.3885 29.868L64.6325 31.632C64.2845 31.392 63.8525 31.164 63.3365 30.948C62.8325 30.732 62.2685 30.624 61.6445 30.624C60.8285 30.624 60.0725 30.84 59.3765 31.272C58.6925 31.704 58.1405 32.286 57.7205 33.018C57.3125 33.75 57.1085 34.572 57.1085 35.484C57.1085 36.408 57.2945 37.236 57.6665 37.968C58.0505 38.7 58.5905 39.276 59.2865 39.696C59.9825 40.116 60.7985 40.326 61.7345 40.326C62.4065 40.326 62.9945 40.224 63.4985 40.02C64.0145 39.816 64.4345 39.582 64.7585 39.318L65.5685 41.01Z" fill="white"/>
</svg>
