<svg width="134" height="124" viewBox="0 0 134 124" fill="none" xmlns="http://www.w3.org/2000/svg">
<rect width="133.374" height="124" rx="20" fill="#00838F"/>
<path d="M54.2991 56.01C54.0951 56.142 53.8011 56.304 53.4171 56.496C53.0451 56.676 52.6011 56.832 52.0851 56.964C51.5811 57.096 51.0291 57.156 50.4291 57.144C49.4091 57.132 48.4971 56.952 47.6931 56.604C46.8891 56.256 46.1991 55.782 45.6231 55.182C45.0591 54.57 44.6271 53.874 44.3271 53.094C44.0271 52.302 43.8771 51.462 43.8771 50.574C43.8771 49.59 44.0331 48.69 44.3451 47.874C44.6691 47.046 45.1191 46.332 45.6951 45.732C46.2711 45.12 46.9491 44.646 47.7291 44.31C48.5211 43.974 49.3851 43.806 50.3211 43.806C51.1131 43.806 51.8331 43.914 52.4811 44.13C53.1291 44.346 53.6751 44.592 54.1191 44.868L53.3631 46.632C53.0151 46.392 52.5831 46.164 52.0671 45.948C51.5631 45.732 50.9991 45.624 50.3751 45.624C49.5591 45.624 48.8031 45.84 48.1071 46.272C47.4231 46.704 46.8711 47.286 46.4511 48.018C46.0431 48.75 45.8391 49.572 45.8391 50.484C45.8391 51.408 46.0251 52.236 46.3971 52.968C46.7811 53.7 47.3211 54.276 48.0171 54.696C48.7131 55.116 49.5291 55.326 50.4651 55.326C51.1371 55.326 51.7251 55.224 52.2291 55.02C52.7451 54.816 53.1651 54.582 53.4891 54.318L54.2991 56.01ZM67.5171 56.01C67.3131 56.142 67.0191 56.304 66.6351 56.496C66.2631 56.676 65.8191 56.832 65.3031 56.964C64.7991 57.096 64.2471 57.156 63.6471 57.144C62.6271 57.132 61.7151 56.952 60.9111 56.604C60.1071 56.256 59.4171 55.782 58.8411 55.182C58.2771 54.57 57.8451 53.874 57.5451 53.094C57.2451 52.302 57.0951 51.462 57.0951 50.574C57.0951 49.59 57.2511 48.69 57.5631 47.874C57.8871 47.046 58.3371 46.332 58.9131 45.732C59.4891 45.12 60.1671 44.646 60.9471 44.31C61.7391 43.974 62.6031 43.806 63.5391 43.806C64.3311 43.806 65.0511 43.914 65.6991 44.13C66.3471 44.346 66.8931 44.592 67.3371 44.868L66.5811 46.632C66.2331 46.392 65.8011 46.164 65.2851 45.948C64.7811 45.732 64.2171 45.624 63.5931 45.624C62.7771 45.624 62.0211 45.84 61.3251 46.272C60.6411 46.704 60.0891 47.286 59.6691 48.018C59.2611 48.75 59.0571 49.572 59.0571 50.484C59.0571 51.408 59.2431 52.236 59.6151 52.968C59.9991 53.7 60.5391 54.276 61.2351 54.696C61.9311 55.116 62.7471 55.326 63.6831 55.326C64.3551 55.326 64.9431 55.224 65.4471 55.02C65.9631 54.816 66.3831 54.582 66.7071 54.318L67.5171 56.01ZM71.1232 57V43.95H74.7412C76.0372 43.95 77.1352 44.148 78.0352 44.544C78.9352 44.928 79.6672 45.45 80.2312 46.11C80.7952 46.758 81.2032 47.478 81.4552 48.27C81.7192 49.062 81.8512 49.854 81.8512 50.646C81.8512 51.618 81.6772 52.5 81.3292 53.292C80.9932 54.072 80.5192 54.738 79.9072 55.29C79.3072 55.842 78.6172 56.268 77.8372 56.568C77.0572 56.856 76.2352 57 75.3712 57H71.1232ZM72.9952 55.182H75.0112C75.9592 55.182 76.7992 55.002 77.5312 54.642C78.2632 54.282 78.8392 53.754 79.2592 53.058C79.6912 52.362 79.9072 51.516 79.9072 50.52C79.9072 49.704 79.7692 49.002 79.4932 48.414C79.2292 47.814 78.8752 47.322 78.4312 46.938C77.9872 46.542 77.4892 46.248 76.9372 46.056C76.3852 45.864 75.8212 45.768 75.2452 45.768H72.9952V55.182ZM85.4487 43.95H87.3207V57H85.4487V43.95ZM28.6075 78.298C28.2715 78.574 27.8635 78.79 27.3835 78.946C26.9155 79.102 26.4415 79.18 25.9615 79.18C25.1455 79.18 24.4195 79.018 23.7835 78.694C23.1595 78.37 22.6735 77.914 22.3255 77.326C21.9775 76.738 21.8035 76.042 21.8035 75.238C21.8035 74.422 21.9895 73.72 22.3615 73.132C22.7335 72.544 23.2195 72.094 23.8195 71.782C24.4315 71.458 25.0855 71.296 25.7815 71.296C26.4055 71.296 26.9515 71.38 27.4195 71.548C27.8995 71.716 28.3135 71.95 28.6615 72.25L27.7615 73.42C27.5575 73.252 27.2995 73.102 26.9875 72.97C26.6755 72.838 26.3275 72.772 25.9435 72.772C25.5115 72.772 25.1155 72.88 24.7555 73.096C24.4075 73.312 24.1315 73.606 23.9275 73.978C23.7235 74.35 23.6215 74.77 23.6215 75.238C23.6215 75.694 23.7235 76.108 23.9275 76.48C24.1435 76.852 24.4375 77.146 24.8095 77.362C25.1935 77.578 25.6255 77.686 26.1055 77.686C26.4175 77.686 26.7055 77.638 26.9695 77.542C27.2455 77.446 27.4855 77.32 27.6895 77.164L28.6075 78.298ZM35.3208 65.95C36.6408 65.95 37.6788 66.22 38.4348 66.76C39.1908 67.3 39.5688 68.128 39.5688 69.244C39.5688 69.952 39.4068 70.564 39.0828 71.08C38.7588 71.584 38.3028 71.98 37.7148 72.268C37.1388 72.556 36.4608 72.718 35.6808 72.754L35.4108 71.746C36.3228 71.77 37.1388 71.932 37.8588 72.232C38.5788 72.52 39.1488 72.928 39.5688 73.456C40.0008 73.972 40.2168 74.59 40.2168 75.31C40.2168 75.97 40.0908 76.534 39.8388 77.002C39.5988 77.47 39.2688 77.854 38.8488 78.154C38.4408 78.442 37.9728 78.658 37.4448 78.802C36.9288 78.934 36.3888 79 35.8248 79H31.8828V65.95H35.3208ZM35.6628 71.602C36.3468 71.602 36.8448 71.41 37.1568 71.026C37.4688 70.63 37.6248 70.168 37.6248 69.64C37.6248 68.992 37.4208 68.518 37.0128 68.218C36.6168 67.918 36.0828 67.768 35.4108 67.768H33.7548V71.602H35.6628ZM35.7348 77.254C36.4428 77.254 37.0428 77.098 37.5348 76.786C38.0268 76.474 38.2728 75.988 38.2728 75.328C38.2728 74.848 38.1408 74.47 37.8768 74.194C37.6128 73.918 37.2768 73.72 36.8688 73.6C36.4608 73.48 36.0408 73.42 35.6088 73.42H33.7548V77.254H35.7348ZM43.3857 71.476H45.2037V79H43.3857V71.476ZM43.2957 68.776C43.2957 68.5 43.4037 68.266 43.6197 68.074C43.8477 67.882 44.0937 67.786 44.3577 67.786C44.6217 67.786 44.8617 67.882 45.0777 68.074C45.2937 68.266 45.4017 68.5 45.4017 68.776C45.4017 69.076 45.2937 69.316 45.0777 69.496C44.8617 69.676 44.6217 69.766 44.3577 69.766C44.0937 69.766 43.8477 69.676 43.6197 69.496C43.4037 69.316 43.2957 69.076 43.2957 68.776ZM48.1159 75.166C48.1159 74.41 48.2959 73.732 48.6559 73.132C49.0159 72.52 49.5139 72.04 50.1499 71.692C50.7859 71.344 51.5119 71.17 52.3279 71.17C53.1559 71.17 53.8759 71.344 54.4879 71.692C55.1119 72.04 55.5919 72.52 55.9279 73.132C56.2759 73.732 56.4499 74.41 56.4499 75.166C56.4499 75.922 56.2759 76.606 55.9279 77.218C55.5799 77.818 55.0939 78.298 54.4699 78.658C53.8579 79.006 53.1319 79.18 52.2919 79.18C51.4999 79.18 50.7859 79.018 50.1499 78.694C49.5259 78.37 49.0279 77.908 48.6559 77.308C48.2959 76.696 48.1159 75.982 48.1159 75.166ZM49.9519 75.184C49.9519 75.652 50.0539 76.078 50.2579 76.462C50.4619 76.834 50.7379 77.134 51.0859 77.362C51.4459 77.578 51.8419 77.686 52.2739 77.686C52.9579 77.686 53.5159 77.446 53.9479 76.966C54.3919 76.486 54.6139 75.892 54.6139 75.184C54.6139 74.476 54.3919 73.882 53.9479 73.402C53.5159 72.91 52.9579 72.664 52.2739 72.664C51.8299 72.664 51.4339 72.778 51.0859 73.006C50.7379 73.234 50.4619 73.54 50.2579 73.924C50.0539 74.308 49.9519 74.728 49.9519 75.184ZM63.3588 65.95C64.7988 65.95 65.9268 66.31 66.7428 67.03C67.5588 67.75 67.9668 68.758 67.9668 70.054C67.9668 70.57 67.8888 71.08 67.7328 71.584C67.5768 72.088 67.3248 72.55 66.9768 72.97C66.6408 73.378 66.1908 73.708 65.6268 73.96C65.0748 74.2 64.3968 74.32 63.5928 74.32H61.6668V79H59.7948V65.95H63.3588ZM63.5748 72.484C64.0668 72.484 64.4748 72.406 64.7988 72.25C65.1348 72.082 65.3928 71.872 65.5728 71.62C65.7648 71.368 65.8968 71.104 65.9688 70.828C66.0528 70.552 66.0948 70.306 66.0948 70.09C66.0948 69.85 66.0528 69.598 65.9688 69.334C65.8968 69.058 65.7648 68.806 65.5728 68.578C65.3928 68.338 65.1468 68.146 64.8348 68.002C64.5228 67.846 64.1328 67.768 63.6648 67.768H61.6668V72.484H63.5748ZM70.2629 75.166C70.2629 74.41 70.4429 73.732 70.8029 73.132C71.1629 72.52 71.6609 72.04 72.2969 71.692C72.9329 71.344 73.6589 71.17 74.4749 71.17C75.3029 71.17 76.0229 71.344 76.6349 71.692C77.2589 72.04 77.7389 72.52 78.0749 73.132C78.4229 73.732 78.5969 74.41 78.5969 75.166C78.5969 75.922 78.4229 76.606 78.0749 77.218C77.7269 77.818 77.2409 78.298 76.6169 78.658C76.0049 79.006 75.2789 79.18 74.4389 79.18C73.6469 79.18 72.9329 79.018 72.2969 78.694C71.6729 78.37 71.1749 77.908 70.8029 77.308C70.4429 76.696 70.2629 75.982 70.2629 75.166ZM72.0989 75.184C72.0989 75.652 72.2009 76.078 72.4049 76.462C72.6089 76.834 72.8849 77.134 73.2329 77.362C73.5929 77.578 73.9889 77.686 74.4209 77.686C75.1049 77.686 75.6629 77.446 76.0949 76.966C76.5389 76.486 76.7609 75.892 76.7609 75.184C76.7609 74.476 76.5389 73.882 76.0949 73.402C75.6629 72.91 75.1049 72.664 74.4209 72.664C73.9769 72.664 73.5809 72.778 73.2329 73.006C72.8849 73.234 72.6089 73.54 72.4049 73.924C72.2009 74.308 72.0989 74.728 72.0989 75.184ZM83.1298 71.476L83.3098 73.636L83.2378 73.348C83.4418 72.892 83.7238 72.502 84.0838 72.178C84.4558 71.854 84.8398 71.608 85.2358 71.44C85.6438 71.26 85.9858 71.17 86.2618 71.17L86.1718 72.97C85.6078 72.934 85.1098 73.042 84.6778 73.294C84.2578 73.546 83.9278 73.882 83.6878 74.302C83.4478 74.722 83.3278 75.172 83.3278 75.652V79H81.5098V71.476H83.1298ZM89.8053 68.182H91.6413V71.494H93.6573V72.916H91.6413V79H89.8053V72.916H88.4733V71.494H89.8053V68.182ZM99.5295 79.18C98.8215 79.18 98.1795 79.03 97.6035 78.73C97.0275 78.43 96.5715 77.992 96.2355 77.416C95.8995 76.828 95.7315 76.102 95.7315 75.238C95.7315 74.398 95.9055 73.678 96.2535 73.078C96.6135 72.466 97.0815 71.998 97.6575 71.674C98.2455 71.338 98.8815 71.17 99.5655 71.17C100.286 71.17 100.88 71.32 101.348 71.62C101.816 71.92 102.176 72.28 102.428 72.7L102.32 72.988L102.5 71.476H104.174V79H102.356V77.092L102.536 77.542C102.488 77.638 102.386 77.776 102.23 77.956C102.074 78.136 101.87 78.322 101.618 78.514C101.366 78.694 101.06 78.85 100.7 78.982C100.352 79.114 99.9615 79.18 99.5295 79.18ZM100.016 77.686C100.616 77.686 101.12 77.53 101.528 77.218C101.948 76.894 102.224 76.456 102.356 75.904V74.356C102.212 73.864 101.918 73.456 101.474 73.132C101.042 72.808 100.538 72.646 99.9615 72.646C99.5295 72.646 99.1335 72.754 98.7735 72.97C98.4135 73.174 98.1255 73.468 97.9095 73.852C97.6935 74.224 97.5855 74.656 97.5855 75.148C97.5855 75.628 97.6935 76.06 97.9095 76.444C98.1375 76.828 98.4375 77.134 98.8095 77.362C99.1815 77.578 99.5835 77.686 100.016 77.686ZM107.734 65.014H109.552V79H107.734V65.014Z" fill="white"/>
</svg>
