<svg width="134" height="124" viewBox="0 0 134 124" fill="none" xmlns="http://www.w3.org/2000/svg">
<rect width="133.374" height="124" rx="20" fill="#00838F"/>
<path d="M54.2991 45.01C54.0951 45.142 53.8011 45.304 53.4171 45.496C53.0451 45.676 52.6011 45.832 52.0851 45.964C51.5811 46.096 51.0291 46.156 50.4291 46.144C49.4091 46.132 48.4971 45.952 47.6931 45.604C46.8891 45.256 46.1991 44.782 45.6231 44.182C45.0591 43.57 44.6271 42.874 44.3271 42.094C44.0271 41.302 43.8771 40.462 43.8771 39.574C43.8771 38.59 44.0331 37.69 44.3451 36.874C44.6691 36.046 45.1191 35.332 45.6951 34.732C46.2711 34.12 46.9491 33.646 47.7291 33.31C48.5211 32.974 49.3851 32.806 50.3211 32.806C51.1131 32.806 51.8331 32.914 52.4811 33.13C53.1291 33.346 53.6751 33.592 54.1191 33.868L53.3631 35.632C53.0151 35.392 52.5831 35.164 52.0671 34.948C51.5631 34.732 50.9991 34.624 50.3751 34.624C49.5591 34.624 48.8031 34.84 48.1071 35.272C47.4231 35.704 46.8711 36.286 46.4511 37.018C46.0431 37.75 45.8391 38.572 45.8391 39.484C45.8391 40.408 46.0251 41.236 46.3971 41.968C46.7811 42.7 47.3211 43.276 48.0171 43.696C48.7131 44.116 49.5291 44.326 50.4651 44.326C51.1371 44.326 51.7251 44.224 52.2291 44.02C52.7451 43.816 53.1651 43.582 53.4891 43.318L54.2991 45.01ZM67.5171 45.01C67.3131 45.142 67.0191 45.304 66.6351 45.496C66.2631 45.676 65.8191 45.832 65.3031 45.964C64.7991 46.096 64.2471 46.156 63.6471 46.144C62.6271 46.132 61.7151 45.952 60.9111 45.604C60.1071 45.256 59.4171 44.782 58.8411 44.182C58.2771 43.57 57.8451 42.874 57.5451 42.094C57.2451 41.302 57.0951 40.462 57.0951 39.574C57.0951 38.59 57.2511 37.69 57.5631 36.874C57.8871 36.046 58.3371 35.332 58.9131 34.732C59.4891 34.12 60.1671 33.646 60.9471 33.31C61.7391 32.974 62.6031 32.806 63.5391 32.806C64.3311 32.806 65.0511 32.914 65.6991 33.13C66.3471 33.346 66.8931 33.592 67.3371 33.868L66.5811 35.632C66.2331 35.392 65.8011 35.164 65.2851 34.948C64.7811 34.732 64.2171 34.624 63.5931 34.624C62.7771 34.624 62.0211 34.84 61.3251 35.272C60.6411 35.704 60.0891 36.286 59.6691 37.018C59.2611 37.75 59.0571 38.572 59.0571 39.484C59.0571 40.408 59.2431 41.236 59.6151 41.968C59.9991 42.7 60.5391 43.276 61.2351 43.696C61.9311 44.116 62.7471 44.326 63.6831 44.326C64.3551 44.326 64.9431 44.224 65.4471 44.02C65.9631 43.816 66.3831 43.582 66.7071 43.318L67.5171 45.01ZM71.1232 46V32.95H74.7412C76.0372 32.95 77.1352 33.148 78.0352 33.544C78.9352 33.928 79.6672 34.45 80.2312 35.11C80.7952 35.758 81.2032 36.478 81.4552 37.27C81.7192 38.062 81.8512 38.854 81.8512 39.646C81.8512 40.618 81.6772 41.5 81.3292 42.292C80.9932 43.072 80.5192 43.738 79.9072 44.29C79.3072 44.842 78.6172 45.268 77.8372 45.568C77.0572 45.856 76.2352 46 75.3712 46H71.1232ZM72.9952 44.182H75.0112C75.9592 44.182 76.7992 44.002 77.5312 43.642C78.2632 43.282 78.8392 42.754 79.2592 42.058C79.6912 41.362 79.9072 40.516 79.9072 39.52C79.9072 38.704 79.7692 38.002 79.4932 37.414C79.2292 36.814 78.8752 36.322 78.4312 35.938C77.9872 35.542 77.4892 35.248 76.9372 35.056C76.3852 34.864 75.8212 34.768 75.2452 34.768H72.9952V44.182ZM85.4487 32.95H87.3207V46H85.4487V32.95ZM18.0806 54.95C18.9926 54.95 19.8026 55.112 20.5106 55.436C21.2186 55.748 21.7706 56.21 22.1666 56.822C22.5746 57.422 22.7786 58.166 22.7786 59.054C22.7786 59.57 22.7006 60.08 22.5446 60.584C22.3886 61.088 22.1366 61.544 21.7886 61.952C21.4526 62.36 20.9966 62.69 20.4206 62.942C19.8566 63.182 19.1606 63.302 18.3326 63.302H16.4066V68H14.5346V54.95H18.0806ZM18.2966 61.484C18.9686 61.484 19.4846 61.358 19.8446 61.106C20.2166 60.842 20.4746 60.53 20.6186 60.17C20.7626 59.798 20.8346 59.45 20.8346 59.126C20.8346 58.886 20.7926 58.634 20.7086 58.37C20.6246 58.094 20.4866 57.836 20.2946 57.596C20.1146 57.344 19.8686 57.146 19.5566 57.002C19.2446 56.846 18.8606 56.768 18.4046 56.768H16.4066V61.484H18.2966ZM20.4926 62.6L23.8766 68H21.6806L18.2426 62.636L20.4926 62.6ZM29.9258 68.18C29.2178 68.18 28.5758 68.03 27.9998 67.73C27.4238 67.43 26.9678 66.992 26.6318 66.416C26.2958 65.828 26.1278 65.102 26.1278 64.238C26.1278 63.398 26.3018 62.678 26.6498 62.078C27.0098 61.466 27.4778 60.998 28.0538 60.674C28.6418 60.338 29.2778 60.17 29.9618 60.17C30.6818 60.17 31.2758 60.32 31.7438 60.62C32.2118 60.92 32.5718 61.28 32.8238 61.7L32.7158 61.988L32.8958 60.476H34.5698V68H32.7518V66.092L32.9318 66.542C32.8838 66.638 32.7818 66.776 32.6258 66.956C32.4698 67.136 32.2658 67.322 32.0138 67.514C31.7618 67.694 31.4558 67.85 31.0958 67.982C30.7478 68.114 30.3578 68.18 29.9258 68.18ZM30.4118 66.686C31.0118 66.686 31.5158 66.53 31.9238 66.218C32.3438 65.894 32.6198 65.456 32.7518 64.904V63.356C32.6078 62.864 32.3138 62.456 31.8698 62.132C31.4378 61.808 30.9338 61.646 30.3578 61.646C29.9258 61.646 29.5298 61.754 29.1698 61.97C28.8098 62.174 28.5218 62.468 28.3058 62.852C28.0898 63.224 27.9818 63.656 27.9818 64.148C27.9818 64.628 28.0898 65.06 28.3058 65.444C28.5338 65.828 28.8338 66.134 29.2058 66.362C29.5778 66.578 29.9798 66.686 30.4118 66.686ZM39.7505 60.476L39.9305 62.636L39.8585 62.348C40.0625 61.892 40.3445 61.502 40.7045 61.178C41.0765 60.854 41.4605 60.608 41.8565 60.44C42.2645 60.26 42.6065 60.17 42.8825 60.17L42.7925 61.97C42.2285 61.934 41.7305 62.042 41.2985 62.294C40.8785 62.546 40.5485 62.882 40.3085 63.302C40.0685 63.722 39.9485 64.172 39.9485 64.652V68H38.1305V60.476H39.7505ZM48.9176 68.18C48.0536 68.18 47.3096 68.012 46.6856 67.676C46.0616 67.328 45.5816 66.854 45.2456 66.254C44.9096 65.642 44.7416 64.952 44.7416 64.184C44.7416 63.44 44.9276 62.768 45.2996 62.168C45.6836 61.556 46.1936 61.07 46.8296 60.71C47.4656 60.35 48.1736 60.17 48.9536 60.17C49.9616 60.17 50.7956 60.464 51.4556 61.052C52.1276 61.628 52.5776 62.444 52.8056 63.5L46.6676 65.624L46.2356 64.58L51.1676 62.78L50.7896 63.032C50.6456 62.648 50.4176 62.318 50.1056 62.042C49.7936 61.754 49.3676 61.61 48.8276 61.61C48.1556 61.61 47.6036 61.844 47.1716 62.312C46.7516 62.768 46.5416 63.356 46.5416 64.076C46.5416 64.844 46.7696 65.462 47.2256 65.93C47.6816 66.398 48.2576 66.632 48.9536 66.632C49.2776 66.632 49.5896 66.578 49.8896 66.47C50.1896 66.35 50.4716 66.194 50.7356 66.002L51.5636 67.352C51.1796 67.604 50.7536 67.808 50.2856 67.964C49.8296 68.108 49.3736 68.18 48.9176 68.18ZM68.6685 67.01C68.4645 67.142 68.1705 67.304 67.7865 67.496C67.4145 67.676 66.9705 67.832 66.4545 67.964C65.9505 68.096 65.3985 68.156 64.7985 68.144C63.7785 68.132 62.8665 67.952 62.0625 67.604C61.2585 67.256 60.5685 66.782 59.9925 66.182C59.4285 65.57 58.9965 64.874 58.6965 64.094C58.3965 63.302 58.2465 62.462 58.2465 61.574C58.2465 60.59 58.4025 59.69 58.7145 58.874C59.0385 58.046 59.4885 57.332 60.0645 56.732C60.6405 56.12 61.3185 55.646 62.0985 55.31C62.8905 54.974 63.7545 54.806 64.6905 54.806C65.4825 54.806 66.2025 54.914 66.8505 55.13C67.4985 55.346 68.0445 55.592 68.4885 55.868L67.7325 57.632C67.3845 57.392 66.9525 57.164 66.4365 56.948C65.9325 56.732 65.3685 56.624 64.7445 56.624C63.9285 56.624 63.1725 56.84 62.4765 57.272C61.7925 57.704 61.2405 58.286 60.8205 59.018C60.4125 59.75 60.2085 60.572 60.2085 61.484C60.2085 62.408 60.3945 63.236 60.7665 63.968C61.1505 64.7 61.6905 65.276 62.3865 65.696C63.0825 66.116 63.8985 66.326 64.8345 66.326C65.5065 66.326 66.0945 66.224 66.5985 66.02C67.1145 65.816 67.5345 65.582 67.8585 65.318L68.6685 67.01ZM74.9925 68.18C74.2845 68.18 73.6425 68.03 73.0665 67.73C72.4905 67.43 72.0345 66.992 71.6985 66.416C71.3625 65.828 71.1945 65.102 71.1945 64.238C71.1945 63.398 71.3685 62.678 71.7165 62.078C72.0765 61.466 72.5445 60.998 73.1205 60.674C73.7085 60.338 74.3445 60.17 75.0285 60.17C75.7485 60.17 76.3425 60.32 76.8105 60.62C77.2785 60.92 77.6385 61.28 77.8905 61.7L77.7825 61.988L77.9625 60.476H79.6365V68H77.8185V66.092L77.9985 66.542C77.9505 66.638 77.8485 66.776 77.6925 66.956C77.5365 67.136 77.3325 67.322 77.0805 67.514C76.8285 67.694 76.5225 67.85 76.1625 67.982C75.8145 68.114 75.4245 68.18 74.9925 68.18ZM75.4785 66.686C76.0785 66.686 76.5825 66.53 76.9905 66.218C77.4105 65.894 77.6865 65.456 77.8185 64.904V63.356C77.6745 62.864 77.3805 62.456 76.9365 62.132C76.5045 61.808 76.0005 61.646 75.4245 61.646C74.9925 61.646 74.5965 61.754 74.2365 61.97C73.8765 62.174 73.5885 62.468 73.3725 62.852C73.1565 63.224 73.0485 63.656 73.0485 64.148C73.0485 64.628 73.1565 65.06 73.3725 65.444C73.6005 65.828 73.9005 66.134 74.2725 66.362C74.6445 66.578 75.0465 66.686 75.4785 66.686ZM84.8353 60.476L84.9973 62.222L84.9253 61.97C85.1653 61.43 85.5493 60.998 86.0773 60.674C86.6173 60.35 87.2473 60.188 87.9673 60.188C88.6753 60.188 89.2573 60.398 89.7133 60.818C90.1693 61.226 90.4033 61.766 90.4153 62.438V68H88.5973V63.068C88.5853 62.684 88.4713 62.372 88.2553 62.132C88.0393 61.88 87.7033 61.748 87.2473 61.736C86.6113 61.736 86.0773 62 85.6453 62.528C85.2253 63.056 85.0153 63.734 85.0153 64.562V68H83.1973V60.476H84.8353ZM100.146 67.298C99.8096 67.574 99.4016 67.79 98.9216 67.946C98.4536 68.102 97.9796 68.18 97.4996 68.18C96.6836 68.18 95.9576 68.018 95.3216 67.694C94.6976 67.37 94.2116 66.914 93.8636 66.326C93.5156 65.738 93.3416 65.042 93.3416 64.238C93.3416 63.422 93.5276 62.72 93.8996 62.132C94.2716 61.544 94.7576 61.094 95.3576 60.782C95.9696 60.458 96.6236 60.296 97.3196 60.296C97.9436 60.296 98.4896 60.38 98.9576 60.548C99.4376 60.716 99.8516 60.95 100.2 61.25L99.2996 62.42C99.0956 62.252 98.8376 62.102 98.5256 61.97C98.2136 61.838 97.8656 61.772 97.4816 61.772C97.0496 61.772 96.6536 61.88 96.2936 62.096C95.9456 62.312 95.6696 62.606 95.4656 62.978C95.2616 63.35 95.1596 63.77 95.1596 64.238C95.1596 64.694 95.2616 65.108 95.4656 65.48C95.6816 65.852 95.9756 66.146 96.3476 66.362C96.7316 66.578 97.1636 66.686 97.6436 66.686C97.9556 66.686 98.2436 66.638 98.5076 66.542C98.7836 66.446 99.0236 66.32 99.2276 66.164L100.146 67.298ZM106.517 68.18C105.653 68.18 104.909 68.012 104.285 67.676C103.661 67.328 103.181 66.854 102.845 66.254C102.509 65.642 102.341 64.952 102.341 64.184C102.341 63.44 102.527 62.768 102.899 62.168C103.283 61.556 103.793 61.07 104.429 60.71C105.065 60.35 105.773 60.17 106.553 60.17C107.561 60.17 108.395 60.464 109.055 61.052C109.727 61.628 110.177 62.444 110.405 63.5L104.267 65.624L103.835 64.58L108.767 62.78L108.389 63.032C108.245 62.648 108.017 62.318 107.705 62.042C107.393 61.754 106.967 61.61 106.427 61.61C105.755 61.61 105.203 61.844 104.771 62.312C104.351 62.768 104.141 63.356 104.141 64.076C104.141 64.844 104.369 65.462 104.825 65.93C105.281 66.398 105.857 66.632 106.553 66.632C106.877 66.632 107.189 66.578 107.489 66.47C107.789 66.35 108.071 66.194 108.335 66.002L109.163 67.352C108.779 67.604 108.353 67.808 107.885 67.964C107.429 68.108 106.973 68.18 106.517 68.18ZM114.786 60.476L114.966 62.636L114.894 62.348C115.098 61.892 115.38 61.502 115.74 61.178C116.112 60.854 116.496 60.608 116.892 60.44C117.3 60.26 117.642 60.17 117.918 60.17L117.828 61.97C117.264 61.934 116.766 62.042 116.334 62.294C115.914 62.546 115.584 62.882 115.344 63.302C115.104 63.722 114.984 64.172 114.984 64.652V68H113.166V60.476H114.786ZM28.781 76.95H30.653V90H28.781V76.95ZM36.2793 82.476L36.4413 84.222L36.3693 83.97C36.6093 83.43 36.9933 82.998 37.5213 82.674C38.0613 82.35 38.6913 82.188 39.4113 82.188C40.1193 82.188 40.7013 82.398 41.1573 82.818C41.6133 83.226 41.8473 83.766 41.8593 84.438V90H40.0413V85.068C40.0293 84.684 39.9153 84.372 39.6993 84.132C39.4833 83.88 39.1473 83.748 38.6913 83.736C38.0553 83.736 37.5213 84 37.0893 84.528C36.6693 85.056 36.4593 85.734 36.4593 86.562V90H34.6413V82.476H36.2793ZM45.4335 82.476H47.2515V90H45.4335V82.476ZM45.3435 79.776C45.3435 79.5 45.4515 79.266 45.6675 79.074C45.8955 78.882 46.1415 78.786 46.4055 78.786C46.6695 78.786 46.9095 78.882 47.1255 79.074C47.3415 79.266 47.4495 79.5 47.4495 79.776C47.4495 80.076 47.3415 80.316 47.1255 80.496C46.9095 80.676 46.6695 80.766 46.4055 80.766C46.1415 80.766 45.8955 80.676 45.6675 80.496C45.4515 80.316 45.3435 80.076 45.3435 79.776ZM51.5317 79.182H53.3677V82.494H55.3837V83.916H53.3677V90H51.5317V83.916H50.1997V82.494H51.5317V79.182ZM58.1059 82.476H59.9239V90H58.1059V82.476ZM58.0159 79.776C58.0159 79.5 58.1239 79.266 58.3399 79.074C58.5679 78.882 58.8139 78.786 59.0779 78.786C59.3419 78.786 59.5819 78.882 59.7979 79.074C60.0139 79.266 60.1219 79.5 60.1219 79.776C60.1219 80.076 60.0139 80.316 59.7979 80.496C59.5819 80.676 59.3419 80.766 59.0779 80.766C58.8139 80.766 58.5679 80.676 58.3399 80.496C58.1239 80.316 58.0159 80.076 58.0159 79.776ZM66.6341 90.18C65.9261 90.18 65.2841 90.03 64.7081 89.73C64.1321 89.43 63.6761 88.992 63.3401 88.416C63.0041 87.828 62.8361 87.102 62.8361 86.238C62.8361 85.398 63.0101 84.678 63.3581 84.078C63.7181 83.466 64.1861 82.998 64.7621 82.674C65.3501 82.338 65.9861 82.17 66.6701 82.17C67.3901 82.17 67.9841 82.32 68.4521 82.62C68.9201 82.92 69.2801 83.28 69.5321 83.7L69.4241 83.988L69.6041 82.476H71.2781V90H69.4601V88.092L69.6401 88.542C69.5921 88.638 69.4901 88.776 69.3341 88.956C69.1781 89.136 68.9741 89.322 68.7221 89.514C68.4701 89.694 68.1641 89.85 67.8041 89.982C67.4561 90.114 67.0661 90.18 66.6341 90.18ZM67.1201 88.686C67.7201 88.686 68.2241 88.53 68.6321 88.218C69.0521 87.894 69.3281 87.456 69.4601 86.904V85.356C69.3161 84.864 69.0221 84.456 68.5781 84.132C68.1461 83.808 67.6421 83.646 67.0661 83.646C66.6341 83.646 66.2381 83.754 65.8781 83.97C65.5181 84.174 65.2301 84.468 65.0141 84.852C64.7981 85.224 64.6901 85.656 64.6901 86.148C64.6901 86.628 64.7981 87.06 65.0141 87.444C65.2421 87.828 65.5421 88.134 65.9141 88.362C66.2861 88.578 66.6881 88.686 67.1201 88.686ZM75.5589 79.182H77.3949V82.494H79.4109V83.916H77.3949V90H75.5589V83.916H74.2269V82.494H75.5589V79.182ZM82.1331 82.476H83.9511V90H82.1331V82.476ZM82.0431 79.776C82.0431 79.5 82.1511 79.266 82.3671 79.074C82.5951 78.882 82.8411 78.786 83.1051 78.786C83.3691 78.786 83.6091 78.882 83.8251 79.074C84.0411 79.266 84.1491 79.5 84.1491 79.776C84.1491 80.076 84.0411 80.316 83.8251 80.496C83.6091 80.676 83.3691 80.766 83.1051 80.766C82.8411 80.766 82.5951 80.676 82.3671 80.496C82.1511 80.316 82.0431 80.076 82.0431 79.776ZM90.6433 90.216L86.4133 82.476H88.5553L91.3453 88.326L90.2293 88.272L92.7673 82.476H94.7833L90.7333 90.216H90.6433ZM100.566 90.18C99.702 90.18 98.958 90.012 98.334 89.676C97.71 89.328 97.23 88.854 96.894 88.254C96.558 87.642 96.39 86.952 96.39 86.184C96.39 85.44 96.576 84.768 96.948 84.168C97.332 83.556 97.842 83.07 98.478 82.71C99.114 82.35 99.822 82.17 100.602 82.17C101.61 82.17 102.444 82.464 103.104 83.052C103.776 83.628 104.226 84.444 104.454 85.5L98.316 87.624L97.884 86.58L102.816 84.78L102.438 85.032C102.294 84.648 102.066 84.318 101.754 84.042C101.442 83.754 101.016 83.61 100.476 83.61C99.804 83.61 99.252 83.844 98.82 84.312C98.4 84.768 98.19 85.356 98.19 86.076C98.19 86.844 98.418 87.462 98.874 87.93C99.33 88.398 99.906 88.632 100.602 88.632C100.926 88.632 101.238 88.578 101.538 88.47C101.838 88.35 102.12 88.194 102.384 88.002L103.212 89.352C102.828 89.604 102.402 89.808 101.934 89.964C101.478 90.108 101.022 90.18 100.566 90.18Z" fill="white"/>
</svg>
