<svg width="134" height="124" viewBox="0 0 134 124" fill="none" xmlns="http://www.w3.org/2000/svg">
<rect width="133.374" height="124" rx="20" fill="#00838F"/>
<path d="M54.2991 34.01C54.0951 34.142 53.8011 34.304 53.4171 34.496C53.0451 34.676 52.6011 34.832 52.0851 34.964C51.5811 35.096 51.0291 35.156 50.4291 35.144C49.4091 35.132 48.4971 34.952 47.6931 34.604C46.8891 34.256 46.1991 33.782 45.6231 33.182C45.0591 32.57 44.6271 31.874 44.3271 31.094C44.0271 30.302 43.8771 29.462 43.8771 28.574C43.8771 27.59 44.0331 26.69 44.3451 25.874C44.6691 25.046 45.1191 24.332 45.6951 23.732C46.2711 23.12 46.9491 22.646 47.7291 22.31C48.5211 21.974 49.3851 21.806 50.3211 21.806C51.1131 21.806 51.8331 21.914 52.4811 22.13C53.1291 22.346 53.6751 22.592 54.1191 22.868L53.3631 24.632C53.0151 24.392 52.5831 24.164 52.0671 23.948C51.5631 23.732 50.9991 23.624 50.3751 23.624C49.5591 23.624 48.8031 23.84 48.1071 24.272C47.4231 24.704 46.8711 25.286 46.4511 26.018C46.0431 26.75 45.8391 27.572 45.8391 28.484C45.8391 29.408 46.0251 30.236 46.3971 30.968C46.7811 31.7 47.3211 32.276 48.0171 32.696C48.7131 33.116 49.5291 33.326 50.4651 33.326C51.1371 33.326 51.7251 33.224 52.2291 33.02C52.7451 32.816 53.1651 32.582 53.4891 32.318L54.2991 34.01ZM67.5171 34.01C67.3131 34.142 67.0191 34.304 66.6351 34.496C66.2631 34.676 65.8191 34.832 65.3031 34.964C64.7991 35.096 64.2471 35.156 63.6471 35.144C62.6271 35.132 61.7151 34.952 60.9111 34.604C60.1071 34.256 59.4171 33.782 58.8411 33.182C58.2771 32.57 57.8451 31.874 57.5451 31.094C57.2451 30.302 57.0951 29.462 57.0951 28.574C57.0951 27.59 57.2511 26.69 57.5631 25.874C57.8871 25.046 58.3371 24.332 58.9131 23.732C59.4891 23.12 60.1671 22.646 60.9471 22.31C61.7391 21.974 62.6031 21.806 63.5391 21.806C64.3311 21.806 65.0511 21.914 65.6991 22.13C66.3471 22.346 66.8931 22.592 67.3371 22.868L66.5811 24.632C66.2331 24.392 65.8011 24.164 65.2851 23.948C64.7811 23.732 64.2171 23.624 63.5931 23.624C62.7771 23.624 62.0211 23.84 61.3251 24.272C60.6411 24.704 60.0891 25.286 59.6691 26.018C59.2611 26.75 59.0571 27.572 59.0571 28.484C59.0571 29.408 59.2431 30.236 59.6151 30.968C59.9991 31.7 60.5391 32.276 61.2351 32.696C61.9311 33.116 62.7471 33.326 63.6831 33.326C64.3551 33.326 64.9431 33.224 65.4471 33.02C65.9631 32.816 66.3831 32.582 66.7071 32.318L67.5171 34.01ZM71.1232 35V21.95H74.7412C76.0372 21.95 77.1352 22.148 78.0352 22.544C78.9352 22.928 79.6672 23.45 80.2312 24.11C80.7952 24.758 81.2032 25.478 81.4552 26.27C81.7192 27.062 81.8512 27.854 81.8512 28.646C81.8512 29.618 81.6772 30.5 81.3292 31.292C80.9932 32.072 80.5192 32.738 79.9072 33.29C79.3072 33.842 78.6172 34.268 77.8372 34.568C77.0572 34.856 76.2352 35 75.3712 35H71.1232ZM72.9952 33.182H75.0112C75.9592 33.182 76.7992 33.002 77.5312 32.642C78.2632 32.282 78.8392 31.754 79.2592 31.058C79.6912 30.362 79.9072 29.516 79.9072 28.52C79.9072 27.704 79.7692 27.002 79.4932 26.414C79.2292 25.814 78.8752 25.322 78.4312 24.938C77.9872 24.542 77.4892 24.248 76.9372 24.056C76.3852 23.864 75.8212 23.768 75.2452 23.768H72.9952V33.182ZM85.4487 21.95H87.3207V35H85.4487V21.95ZM10.2331 43.95C11.6731 43.95 12.8011 44.31 13.6171 45.03C14.4331 45.75 14.8411 46.758 14.8411 48.054C14.8411 48.57 14.7631 49.08 14.6071 49.584C14.4511 50.088 14.1991 50.55 13.8511 50.97C13.5151 51.378 13.0651 51.708 12.5011 51.96C11.9491 52.2 11.2711 52.32 10.4671 52.32H8.54112V57H6.66912V43.95H10.2331ZM10.4491 50.484C10.9411 50.484 11.3491 50.406 11.6731 50.25C12.0091 50.082 12.2671 49.872 12.4471 49.62C12.6391 49.368 12.7711 49.104 12.8431 48.828C12.9271 48.552 12.9691 48.306 12.9691 48.09C12.9691 47.85 12.9271 47.598 12.8431 47.334C12.7711 47.058 12.6391 46.806 12.4471 46.578C12.2671 46.338 12.0211 46.146 11.7091 46.002C11.3971 45.846 11.0071 45.768 10.5391 45.768H8.54112V50.484H10.4491ZM21.3132 57.18C20.4492 57.18 19.7052 57.012 19.0812 56.676C18.4572 56.328 17.9772 55.854 17.6412 55.254C17.3052 54.642 17.1372 53.952 17.1372 53.184C17.1372 52.44 17.3232 51.768 17.6952 51.168C18.0792 50.556 18.5892 50.07 19.2252 49.71C19.8612 49.35 20.5692 49.17 21.3492 49.17C22.3572 49.17 23.1912 49.464 23.8512 50.052C24.5232 50.628 24.9732 51.444 25.2012 52.5L19.0632 54.624L18.6312 53.58L23.5632 51.78L23.1852 52.032C23.0412 51.648 22.8132 51.318 22.5012 51.042C22.1892 50.754 21.7632 50.61 21.2232 50.61C20.5512 50.61 19.9992 50.844 19.5672 51.312C19.1472 51.768 18.9372 52.356 18.9372 53.076C18.9372 53.844 19.1652 54.462 19.6212 54.93C20.0772 55.398 20.6532 55.632 21.3492 55.632C21.6732 55.632 21.9852 55.578 22.2852 55.47C22.5852 55.35 22.8672 55.194 23.1312 55.002L23.9592 56.352C23.5752 56.604 23.1492 56.808 22.6812 56.964C22.2252 57.108 21.7692 57.18 21.3132 57.18ZM31.0403 57.18C30.3323 57.18 29.6963 57.018 29.1323 56.694C28.5683 56.358 28.1243 55.884 27.8003 55.272C27.4763 54.66 27.3143 53.946 27.3143 53.13C27.3143 52.29 27.4883 51.576 27.8363 50.988C28.1843 50.4 28.6523 49.95 29.2403 49.638C29.8403 49.326 30.5123 49.17 31.2563 49.17C31.8323 49.17 32.3783 49.29 32.8943 49.53C33.4223 49.758 33.8363 50.082 34.1363 50.502L34.0643 51.132V43.014H35.8823V57H34.0463V55.2L34.2443 55.686C33.8843 56.118 33.4283 56.478 32.8763 56.766C32.3363 57.042 31.7243 57.18 31.0403 57.18ZM31.5983 55.65C32.2343 55.65 32.7623 55.488 33.1823 55.164C33.6143 54.828 33.9023 54.384 34.0463 53.832V52.338C33.9143 51.834 33.6203 51.42 33.1643 51.096C32.7203 50.772 32.1983 50.61 31.5983 50.61C31.1663 50.61 30.7643 50.718 30.3923 50.934C30.0203 51.138 29.7203 51.432 29.4923 51.816C29.2763 52.188 29.1683 52.62 29.1683 53.112C29.1683 53.58 29.2763 54.006 29.4923 54.39C29.7203 54.774 30.0203 55.08 30.3923 55.308C30.7643 55.536 31.1663 55.65 31.5983 55.65ZM39.4401 49.476H41.2581V57H39.4401V49.476ZM39.3501 46.776C39.3501 46.5 39.4581 46.266 39.6741 46.074C39.9021 45.882 40.1481 45.786 40.4121 45.786C40.6761 45.786 40.9161 45.882 41.1321 46.074C41.3481 46.266 41.4561 46.5 41.4561 46.776C41.4561 47.076 41.3481 47.316 41.1321 47.496C40.9161 47.676 40.6761 47.766 40.4121 47.766C40.1481 47.766 39.9021 47.676 39.6741 47.496C39.4581 47.316 39.3501 47.076 39.3501 46.776ZM47.9683 57.18C47.2603 57.18 46.6183 57.03 46.0423 56.73C45.4663 56.43 45.0103 55.992 44.6743 55.416C44.3383 54.828 44.1703 54.102 44.1703 53.238C44.1703 52.398 44.3443 51.678 44.6923 51.078C45.0523 50.466 45.5203 49.998 46.0963 49.674C46.6843 49.338 47.3203 49.17 48.0043 49.17C48.7243 49.17 49.3183 49.32 49.7863 49.62C50.2543 49.92 50.6143 50.28 50.8663 50.7L50.7583 50.988L50.9383 49.476H52.6123V57H50.7943V55.092L50.9743 55.542C50.9263 55.638 50.8243 55.776 50.6683 55.956C50.5123 56.136 50.3083 56.322 50.0563 56.514C49.8043 56.694 49.4983 56.85 49.1383 56.982C48.7903 57.114 48.4003 57.18 47.9683 57.18ZM48.4543 55.686C49.0543 55.686 49.5583 55.53 49.9663 55.218C50.3863 54.894 50.6623 54.456 50.7943 53.904V52.356C50.6503 51.864 50.3563 51.456 49.9123 51.132C49.4803 50.808 48.9763 50.646 48.4003 50.646C47.9683 50.646 47.5723 50.754 47.2123 50.97C46.8523 51.174 46.5643 51.468 46.3483 51.852C46.1323 52.224 46.0243 52.656 46.0243 53.148C46.0243 53.628 46.1323 54.06 46.3483 54.444C46.5763 54.828 46.8763 55.134 47.2483 55.362C47.6203 55.578 48.0223 55.686 48.4543 55.686ZM56.8931 46.182H58.7291V49.494H60.7451V50.916H58.7291V57H56.8931V50.916H55.5611V49.494H56.8931V46.182ZM65.0873 49.476L65.2673 51.636L65.1953 51.348C65.3993 50.892 65.6813 50.502 66.0413 50.178C66.4133 49.854 66.7973 49.608 67.1933 49.44C67.6013 49.26 67.9433 49.17 68.2193 49.17L68.1293 50.97C67.5653 50.934 67.0673 51.042 66.6353 51.294C66.2153 51.546 65.8853 51.882 65.6453 52.302C65.4053 52.722 65.2853 53.172 65.2853 53.652V57H63.4673V49.476H65.0873ZM71.0427 49.476H72.8607V57H71.0427V49.476ZM70.9527 46.776C70.9527 46.5 71.0607 46.266 71.2767 46.074C71.5047 45.882 71.7507 45.786 72.0147 45.786C72.2787 45.786 72.5187 45.882 72.7347 46.074C72.9507 46.266 73.0587 46.5 73.0587 46.776C73.0587 47.076 72.9507 47.316 72.7347 47.496C72.5187 47.676 72.2787 47.766 72.0147 47.766C71.7507 47.766 71.5047 47.676 71.2767 47.496C71.0607 47.316 70.9527 47.076 70.9527 46.776ZM82.5769 56.298C82.2409 56.574 81.8329 56.79 81.3529 56.946C80.8849 57.102 80.4109 57.18 79.9309 57.18C79.1149 57.18 78.3889 57.018 77.7529 56.694C77.1289 56.37 76.6429 55.914 76.2949 55.326C75.9469 54.738 75.7729 54.042 75.7729 53.238C75.7729 52.422 75.9589 51.72 76.3309 51.132C76.7029 50.544 77.1889 50.094 77.7889 49.782C78.4009 49.458 79.0549 49.296 79.7509 49.296C80.3749 49.296 80.9209 49.38 81.3889 49.548C81.8689 49.716 82.2829 49.95 82.6309 50.25L81.7309 51.42C81.5269 51.252 81.2689 51.102 80.9569 50.97C80.6449 50.838 80.2969 50.772 79.9129 50.772C79.4809 50.772 79.0849 50.88 78.7249 51.096C78.3769 51.312 78.1009 51.606 77.8969 51.978C77.6929 52.35 77.5909 52.77 77.5909 53.238C77.5909 53.694 77.6929 54.108 77.8969 54.48C78.1129 54.852 78.4069 55.146 78.7789 55.362C79.1629 55.578 79.5949 55.686 80.0749 55.686C80.3869 55.686 80.6749 55.638 80.9389 55.542C81.2149 55.446 81.4549 55.32 81.6589 55.164L82.5769 56.298ZM87.0402 55.416C86.7762 56.052 86.5122 56.682 86.2482 57.306C85.9962 57.93 85.7382 58.56 85.4742 59.196H83.9982C84.2382 58.56 84.4722 57.93 84.7002 57.306C84.9402 56.682 85.1742 56.052 85.4022 55.416H87.0402ZM91.9364 57L97.6784 43.41H97.7864L103.528 57H101.35L97.1744 46.362L98.5244 45.48L93.8084 57H91.9364ZM95.4104 52.104H100.09L100.738 53.724H94.8524L95.4104 52.104ZM108.396 52.698L103.572 43.95H105.894L109.692 51.078L109.098 51.114L112.86 43.95H115.164L110.286 52.698V57H108.396V52.698ZM115.085 57L120.827 43.41H120.935L126.677 57H124.499L120.323 46.362L121.673 45.48L116.957 57H115.085ZM118.559 52.104H123.239L123.887 53.724H118.001L118.559 52.104ZM18.0806 65.95C18.9926 65.95 19.8026 66.112 20.5106 66.436C21.2186 66.748 21.7706 67.21 22.1666 67.822C22.5746 68.422 22.7786 69.166 22.7786 70.054C22.7786 70.57 22.7006 71.08 22.5446 71.584C22.3886 72.088 22.1366 72.544 21.7886 72.952C21.4526 73.36 20.9966 73.69 20.4206 73.942C19.8566 74.182 19.1606 74.302 18.3326 74.302H16.4066V79H14.5346V65.95H18.0806ZM18.2966 72.484C18.9686 72.484 19.4846 72.358 19.8446 72.106C20.2166 71.842 20.4746 71.53 20.6186 71.17C20.7626 70.798 20.8346 70.45 20.8346 70.126C20.8346 69.886 20.7926 69.634 20.7086 69.37C20.6246 69.094 20.4866 68.836 20.2946 68.596C20.1146 68.344 19.8686 68.146 19.5566 68.002C19.2446 67.846 18.8606 67.768 18.4046 67.768H16.4066V72.484H18.2966ZM20.4926 73.6L23.8766 79H21.6806L18.2426 73.636L20.4926 73.6ZM29.9258 79.18C29.2178 79.18 28.5758 79.03 27.9998 78.73C27.4238 78.43 26.9678 77.992 26.6318 77.416C26.2958 76.828 26.1278 76.102 26.1278 75.238C26.1278 74.398 26.3018 73.678 26.6498 73.078C27.0098 72.466 27.4778 71.998 28.0538 71.674C28.6418 71.338 29.2778 71.17 29.9618 71.17C30.6818 71.17 31.2758 71.32 31.7438 71.62C32.2118 71.92 32.5718 72.28 32.8238 72.7L32.7158 72.988L32.8958 71.476H34.5698V79H32.7518V77.092L32.9318 77.542C32.8838 77.638 32.7818 77.776 32.6258 77.956C32.4698 78.136 32.2658 78.322 32.0138 78.514C31.7618 78.694 31.4558 78.85 31.0958 78.982C30.7478 79.114 30.3578 79.18 29.9258 79.18ZM30.4118 77.686C31.0118 77.686 31.5158 77.53 31.9238 77.218C32.3438 76.894 32.6198 76.456 32.7518 75.904V74.356C32.6078 73.864 32.3138 73.456 31.8698 73.132C31.4378 72.808 30.9338 72.646 30.3578 72.646C29.9258 72.646 29.5298 72.754 29.1698 72.97C28.8098 73.174 28.5218 73.468 28.3058 73.852C28.0898 74.224 27.9818 74.656 27.9818 75.148C27.9818 75.628 28.0898 76.06 28.3058 76.444C28.5338 76.828 28.8338 77.134 29.2058 77.362C29.5778 77.578 29.9798 77.686 30.4118 77.686ZM39.7505 71.476L39.9305 73.636L39.8585 73.348C40.0625 72.892 40.3445 72.502 40.7045 72.178C41.0765 71.854 41.4605 71.608 41.8565 71.44C42.2645 71.26 42.6065 71.17 42.8825 71.17L42.7925 72.97C42.2285 72.934 41.7305 73.042 41.2985 73.294C40.8785 73.546 40.5485 73.882 40.3085 74.302C40.0685 74.722 39.9485 75.172 39.9485 75.652V79H38.1305V71.476H39.7505ZM48.9176 79.18C48.0536 79.18 47.3096 79.012 46.6856 78.676C46.0616 78.328 45.5816 77.854 45.2456 77.254C44.9096 76.642 44.7416 75.952 44.7416 75.184C44.7416 74.44 44.9276 73.768 45.2996 73.168C45.6836 72.556 46.1936 72.07 46.8296 71.71C47.4656 71.35 48.1736 71.17 48.9536 71.17C49.9616 71.17 50.7956 71.464 51.4556 72.052C52.1276 72.628 52.5776 73.444 52.8056 74.5L46.6676 76.624L46.2356 75.58L51.1676 73.78L50.7896 74.032C50.6456 73.648 50.4176 73.318 50.1056 73.042C49.7936 72.754 49.3676 72.61 48.8276 72.61C48.1556 72.61 47.6036 72.844 47.1716 73.312C46.7516 73.768 46.5416 74.356 46.5416 75.076C46.5416 75.844 46.7696 76.462 47.2256 76.93C47.6816 77.398 48.2576 77.632 48.9536 77.632C49.2776 77.632 49.5896 77.578 49.8896 77.47C50.1896 77.35 50.4716 77.194 50.7356 77.002L51.5636 78.352C51.1796 78.604 50.7536 78.808 50.2856 78.964C49.8296 79.108 49.3736 79.18 48.9176 79.18ZM68.6685 78.01C68.4645 78.142 68.1705 78.304 67.7865 78.496C67.4145 78.676 66.9705 78.832 66.4545 78.964C65.9505 79.096 65.3985 79.156 64.7985 79.144C63.7785 79.132 62.8665 78.952 62.0625 78.604C61.2585 78.256 60.5685 77.782 59.9925 77.182C59.4285 76.57 58.9965 75.874 58.6965 75.094C58.3965 74.302 58.2465 73.462 58.2465 72.574C58.2465 71.59 58.4025 70.69 58.7145 69.874C59.0385 69.046 59.4885 68.332 60.0645 67.732C60.6405 67.12 61.3185 66.646 62.0985 66.31C62.8905 65.974 63.7545 65.806 64.6905 65.806C65.4825 65.806 66.2025 65.914 66.8505 66.13C67.4985 66.346 68.0445 66.592 68.4885 66.868L67.7325 68.632C67.3845 68.392 66.9525 68.164 66.4365 67.948C65.9325 67.732 65.3685 67.624 64.7445 67.624C63.9285 67.624 63.1725 67.84 62.4765 68.272C61.7925 68.704 61.2405 69.286 60.8205 70.018C60.4125 70.75 60.2085 71.572 60.2085 72.484C60.2085 73.408 60.3945 74.236 60.7665 74.968C61.1505 75.7 61.6905 76.276 62.3865 76.696C63.0825 77.116 63.8985 77.326 64.8345 77.326C65.5065 77.326 66.0945 77.224 66.5985 77.02C67.1145 76.816 67.5345 76.582 67.8585 76.318L68.6685 78.01ZM74.9925 79.18C74.2845 79.18 73.6425 79.03 73.0665 78.73C72.4905 78.43 72.0345 77.992 71.6985 77.416C71.3625 76.828 71.1945 76.102 71.1945 75.238C71.1945 74.398 71.3685 73.678 71.7165 73.078C72.0765 72.466 72.5445 71.998 73.1205 71.674C73.7085 71.338 74.3445 71.17 75.0285 71.17C75.7485 71.17 76.3425 71.32 76.8105 71.62C77.2785 71.92 77.6385 72.28 77.8905 72.7L77.7825 72.988L77.9625 71.476H79.6365V79H77.8185V77.092L77.9985 77.542C77.9505 77.638 77.8485 77.776 77.6925 77.956C77.5365 78.136 77.3325 78.322 77.0805 78.514C76.8285 78.694 76.5225 78.85 76.1625 78.982C75.8145 79.114 75.4245 79.18 74.9925 79.18ZM75.4785 77.686C76.0785 77.686 76.5825 77.53 76.9905 77.218C77.4105 76.894 77.6865 76.456 77.8185 75.904V74.356C77.6745 73.864 77.3805 73.456 76.9365 73.132C76.5045 72.808 76.0005 72.646 75.4245 72.646C74.9925 72.646 74.5965 72.754 74.2365 72.97C73.8765 73.174 73.5885 73.468 73.3725 73.852C73.1565 74.224 73.0485 74.656 73.0485 75.148C73.0485 75.628 73.1565 76.06 73.3725 76.444C73.6005 76.828 73.9005 77.134 74.2725 77.362C74.6445 77.578 75.0465 77.686 75.4785 77.686ZM84.8353 71.476L84.9973 73.222L84.9253 72.97C85.1653 72.43 85.5493 71.998 86.0773 71.674C86.6173 71.35 87.2473 71.188 87.9673 71.188C88.6753 71.188 89.2573 71.398 89.7133 71.818C90.1693 72.226 90.4033 72.766 90.4153 73.438V79H88.5973V74.068C88.5853 73.684 88.4713 73.372 88.2553 73.132C88.0393 72.88 87.7033 72.748 87.2473 72.736C86.6113 72.736 86.0773 73 85.6453 73.528C85.2253 74.056 85.0153 74.734 85.0153 75.562V79H83.1973V71.476H84.8353ZM100.146 78.298C99.8096 78.574 99.4016 78.79 98.9216 78.946C98.4536 79.102 97.9796 79.18 97.4996 79.18C96.6836 79.18 95.9576 79.018 95.3216 78.694C94.6976 78.37 94.2116 77.914 93.8636 77.326C93.5156 76.738 93.3416 76.042 93.3416 75.238C93.3416 74.422 93.5276 73.72 93.8996 73.132C94.2716 72.544 94.7576 72.094 95.3576 71.782C95.9696 71.458 96.6236 71.296 97.3196 71.296C97.9436 71.296 98.4896 71.38 98.9576 71.548C99.4376 71.716 99.8516 71.95 100.2 72.25L99.2996 73.42C99.0956 73.252 98.8376 73.102 98.5256 72.97C98.2136 72.838 97.8656 72.772 97.4816 72.772C97.0496 72.772 96.6536 72.88 96.2936 73.096C95.9456 73.312 95.6696 73.606 95.4656 73.978C95.2616 74.35 95.1596 74.77 95.1596 75.238C95.1596 75.694 95.2616 76.108 95.4656 76.48C95.6816 76.852 95.9756 77.146 96.3476 77.362C96.7316 77.578 97.1636 77.686 97.6436 77.686C97.9556 77.686 98.2436 77.638 98.5076 77.542C98.7836 77.446 99.0236 77.32 99.2276 77.164L100.146 78.298ZM106.517 79.18C105.653 79.18 104.909 79.012 104.285 78.676C103.661 78.328 103.181 77.854 102.845 77.254C102.509 76.642 102.341 75.952 102.341 75.184C102.341 74.44 102.527 73.768 102.899 73.168C103.283 72.556 103.793 72.07 104.429 71.71C105.065 71.35 105.773 71.17 106.553 71.17C107.561 71.17 108.395 71.464 109.055 72.052C109.727 72.628 110.177 73.444 110.405 74.5L104.267 76.624L103.835 75.58L108.767 73.78L108.389 74.032C108.245 73.648 108.017 73.318 107.705 73.042C107.393 72.754 106.967 72.61 106.427 72.61C105.755 72.61 105.203 72.844 104.771 73.312C104.351 73.768 104.141 74.356 104.141 75.076C104.141 75.844 104.369 76.462 104.825 76.93C105.281 77.398 105.857 77.632 106.553 77.632C106.877 77.632 107.189 77.578 107.489 77.47C107.789 77.35 108.071 77.194 108.335 77.002L109.163 78.352C108.779 78.604 108.353 78.808 107.885 78.964C107.429 79.108 106.973 79.18 106.517 79.18ZM114.786 71.476L114.966 73.636L114.894 73.348C115.098 72.892 115.38 72.502 115.74 72.178C116.112 71.854 116.496 71.608 116.892 71.44C117.3 71.26 117.642 71.17 117.918 71.17L117.828 72.97C117.264 72.934 116.766 73.042 116.334 73.294C115.914 73.546 115.584 73.882 115.344 74.302C115.104 74.722 114.984 75.172 114.984 75.652V79H113.166V71.476H114.786ZM49.8211 90.416C49.3651 90.176 48.8731 89.972 48.3451 89.804C47.8171 89.636 47.3071 89.552 46.8151 89.552C46.1311 89.552 45.5911 89.708 45.1951 90.02C44.7991 90.32 44.6011 90.74 44.6011 91.28C44.6011 91.652 44.7331 91.976 44.9971 92.252C45.2611 92.528 45.6031 92.768 46.0231 92.972C46.4431 93.176 46.8871 93.368 47.3551 93.548C47.8951 93.74 48.4171 93.986 48.9211 94.286C49.4251 94.574 49.8391 94.964 50.1631 95.456C50.4871 95.948 50.6491 96.608 50.6491 97.436C50.6491 98.12 50.4751 98.744 50.1271 99.308C49.7791 99.872 49.2811 100.322 48.6331 100.658C47.9971 100.982 47.2291 101.144 46.3291 101.144C45.4891 101.144 44.6911 101.012 43.9351 100.748C43.1911 100.472 42.5491 100.148 42.0091 99.776L42.8551 98.282C43.2751 98.606 43.7911 98.888 44.4031 99.128C45.0151 99.368 45.5971 99.488 46.1491 99.488C46.5571 99.488 46.9531 99.422 47.3371 99.29C47.7211 99.146 48.0391 98.924 48.2911 98.624C48.5551 98.324 48.6871 97.928 48.6871 97.436C48.6871 97.028 48.5731 96.68 48.3451 96.392C48.1171 96.104 47.8171 95.858 47.4451 95.654C47.0851 95.45 46.6951 95.27 46.2751 95.114C45.8671 94.958 45.4471 94.79 45.0151 94.61C44.5951 94.418 44.2051 94.184 43.8451 93.908C43.4971 93.632 43.2091 93.296 42.9811 92.9C42.7651 92.492 42.6571 92 42.6571 91.424C42.6571 90.716 42.8191 90.104 43.1431 89.588C43.4791 89.072 43.9411 88.664 44.5291 88.364C45.1171 88.064 45.7891 87.902 46.5451 87.878C47.4091 87.878 48.1651 87.986 48.8131 88.202C49.4611 88.406 50.0311 88.658 50.5231 88.958L49.8211 90.416ZM54.5197 90.182H56.3557V93.494H58.3717V94.916H56.3557V101H54.5197V94.916H53.1877V93.494H54.5197V90.182ZM63.5059 101.306C62.8099 101.306 62.2399 101.096 61.7959 100.676C61.3519 100.256 61.1179 99.716 61.0939 99.056V93.476H62.9119V98.408C62.9359 98.804 63.0499 99.122 63.2539 99.362C63.4579 99.602 63.7819 99.734 64.2259 99.758C64.6339 99.758 64.9999 99.638 65.3239 99.398C65.6479 99.146 65.8999 98.804 66.0799 98.372C66.2719 97.94 66.3679 97.454 66.3679 96.914V93.476H68.1859V101H66.5479L66.4039 99.236L66.4759 99.524C66.2479 100.04 65.8639 100.466 65.3239 100.802C64.7959 101.138 64.1899 101.306 63.5059 101.306ZM74.8411 101.18C74.1331 101.18 73.4971 101.018 72.9331 100.694C72.3691 100.358 71.9251 99.884 71.6011 99.272C71.2771 98.66 71.1151 97.946 71.1151 97.13C71.1151 96.29 71.2891 95.576 71.6371 94.988C71.9851 94.4 72.4531 93.95 73.0411 93.638C73.6411 93.326 74.3131 93.17 75.0571 93.17C75.6331 93.17 76.1791 93.29 76.6951 93.53C77.2231 93.758 77.6371 94.082 77.9371 94.502L77.8651 95.132V87.014H79.6831V101H77.8471V99.2L78.0451 99.686C77.6851 100.118 77.2291 100.478 76.6771 100.766C76.1371 101.042 75.5251 101.18 74.8411 101.18ZM75.3991 99.65C76.0351 99.65 76.5631 99.488 76.9831 99.164C77.4151 98.828 77.7031 98.384 77.8471 97.832V96.338C77.7151 95.834 77.4211 95.42 76.9651 95.096C76.5211 94.772 75.9991 94.61 75.3991 94.61C74.9671 94.61 74.5651 94.718 74.1931 94.934C73.8211 95.138 73.5211 95.432 73.2931 95.816C73.0771 96.188 72.9691 96.62 72.9691 97.112C72.9691 97.58 73.0771 98.006 73.2931 98.39C73.5211 98.774 73.8211 99.08 74.1931 99.308C74.5651 99.536 74.9671 99.65 75.3991 99.65ZM83.8889 104.618L88.8389 93.476H90.5129L85.6529 104.618H83.8889ZM85.7609 101.054L82.1429 93.476H84.1769L87.1829 100.136L85.7609 101.054Z" fill="white"/>
</svg>
