<svg width="134" height="124" viewBox="0 0 134 124" fill="none" xmlns="http://www.w3.org/2000/svg">
<rect width="133.374" height="124" rx="20" fill="#00838F"/>
<path d="M60.8566 66.625C60.5733 66.8083 60.165 67.0333 59.6316 67.3C59.115 67.55 58.4983 67.7667 57.7816 67.95C57.0816 68.1333 56.315 68.2167 55.4816 68.2C54.065 68.1833 52.7983 67.9333 51.6816 67.45C50.565 66.9667 49.6066 66.3083 48.8066 65.475C48.0233 64.625 47.4233 63.6583 47.0066 62.575C46.59 61.475 46.3816 60.3083 46.3816 59.075C46.3816 57.7083 46.5983 56.4583 47.0316 55.325C47.4816 54.175 48.1066 53.1833 48.9066 52.35C49.7066 51.5 50.6483 50.8417 51.7316 50.375C52.8316 49.9083 54.0316 49.675 55.3316 49.675C56.4316 49.675 57.4316 49.825 58.3316 50.125C59.2316 50.425 59.99 50.7667 60.6066 51.15L59.5566 53.6C59.0733 53.2667 58.4733 52.95 57.7566 52.65C57.0566 52.35 56.2733 52.2 55.4066 52.2C54.2733 52.2 53.2233 52.5 52.2566 53.1C51.3066 53.7 50.54 54.5083 49.9566 55.525C49.39 56.5417 49.1066 57.6833 49.1066 58.95C49.1066 60.2333 49.365 61.3833 49.8816 62.4C50.415 63.4167 51.165 64.2167 52.1316 64.8C53.0983 65.3833 54.2316 65.675 55.5316 65.675C56.465 65.675 57.2816 65.5333 57.9816 65.25C58.6983 64.9667 59.2816 64.6417 59.7316 64.275L60.8566 66.625ZM70.815 49.875C72.815 49.875 74.3817 50.375 75.515 51.375C76.6484 52.375 77.215 53.775 77.215 55.575C77.215 56.2917 77.1067 57 76.89 57.7C76.6734 58.4 76.3234 59.0417 75.84 59.625C75.3734 60.1917 74.7484 60.65 73.965 61C73.1984 61.3333 72.2567 61.5 71.14 61.5H68.465V68H65.865V49.875H70.815ZM71.115 58.95C71.7984 58.95 72.365 58.8417 72.815 58.625C73.2817 58.3917 73.64 58.1 73.89 57.75C74.1567 57.4 74.34 57.0333 74.44 56.65C74.5567 56.2667 74.615 55.925 74.615 55.625C74.615 55.2917 74.5567 54.9417 74.44 54.575C74.34 54.1917 74.1567 53.8417 73.89 53.525C73.64 53.1917 73.2984 52.925 72.865 52.725C72.4317 52.5083 71.89 52.4 71.24 52.4H68.465V58.95H71.115ZM81.9041 49.875H84.5041V68H81.9041V49.875Z" fill="white"/>
</svg>
