<svg width="134" height="124" viewBox="0 0 134 124" fill="none" xmlns="http://www.w3.org/2000/svg">
<rect width="133.374" height="124" rx="20" fill="#00838F"/>
<path d="M29.8594 68.25C28.6594 68.25 27.626 68.0167 26.7594 67.55C25.8927 67.0667 25.226 66.4083 24.7594 65.575C24.2927 64.725 24.0594 63.7667 24.0594 62.7C24.0594 61.6667 24.3177 60.7333 24.8344 59.9C25.3677 59.05 26.076 58.375 26.9594 57.875C27.8427 57.375 28.826 57.125 29.9094 57.125C31.3094 57.125 32.4677 57.5333 33.3844 58.35C34.3177 59.15 34.9427 60.2833 35.2594 61.75L26.7344 64.7L26.1344 63.25L32.9844 60.75L32.4594 61.1C32.2594 60.5667 31.9427 60.1083 31.5094 59.725C31.076 59.325 30.4844 59.125 29.7344 59.125C28.801 59.125 28.0344 59.45 27.4344 60.1C26.851 60.7333 26.5594 61.55 26.5594 62.55C26.5594 63.6167 26.876 64.475 27.5094 65.125C28.1427 65.775 28.9427 66.1 29.9094 66.1C30.3594 66.1 30.7927 66.025 31.2094 65.875C31.626 65.7083 32.0177 65.4917 32.3844 65.225L33.5344 67.1C33.001 67.45 32.4094 67.7333 31.7594 67.95C31.126 68.15 30.4927 68.25 29.8594 68.25ZM47.6441 67.025C47.1775 67.4083 46.6108 67.7083 45.9441 67.925C45.2941 68.1417 44.6358 68.25 43.9691 68.25C42.8358 68.25 41.8275 68.025 40.9441 67.575C40.0775 67.125 39.4025 66.4917 38.9191 65.675C38.4358 64.8583 38.1941 63.8917 38.1941 62.775C38.1941 61.6417 38.4525 60.6667 38.9691 59.85C39.4858 59.0333 40.1608 58.4083 40.9941 57.975C41.8441 57.525 42.7525 57.3 43.7191 57.3C44.5858 57.3 45.3441 57.4167 45.9941 57.65C46.6608 57.8833 47.2358 58.2083 47.7191 58.625L46.4691 60.25C46.1858 60.0167 45.8275 59.8083 45.3941 59.625C44.9608 59.4417 44.4775 59.35 43.9441 59.35C43.3441 59.35 42.7941 59.5 42.2941 59.8C41.8108 60.1 41.4275 60.5083 41.1441 61.025C40.8608 61.5417 40.7191 62.125 40.7191 62.775C40.7191 63.4083 40.8608 63.9833 41.1441 64.5C41.4441 65.0167 41.8525 65.425 42.3691 65.725C42.9025 66.025 43.5025 66.175 44.1691 66.175C44.6025 66.175 45.0025 66.1083 45.3691 65.975C45.7525 65.8417 46.0858 65.6667 46.3691 65.45L47.6441 67.025ZM52.1932 68V49.875H57.2182C59.0182 49.875 60.5432 50.15 61.7932 50.7C63.0432 51.2333 64.0598 51.9583 64.8432 52.875C65.6265 53.775 66.1932 54.775 66.5432 55.875C66.9098 56.975 67.0932 58.075 67.0932 59.175C67.0932 60.525 66.8515 61.75 66.3682 62.85C65.9015 63.9333 65.2432 64.8583 64.3932 65.625C63.5598 66.3917 62.6015 66.9833 61.5182 67.4C60.4348 67.8 59.2932 68 58.0932 68H52.1932ZM54.7932 65.475H57.5932C58.9098 65.475 60.0765 65.225 61.0932 64.725C62.1098 64.225 62.9098 63.4917 63.4932 62.525C64.0932 61.5583 64.3932 60.3833 64.3932 59C64.3932 57.8667 64.2015 56.8917 63.8182 56.075C63.4515 55.2417 62.9598 54.5583 62.3432 54.025C61.7265 53.475 61.0348 53.0667 60.2682 52.8C59.5015 52.5333 58.7182 52.4 57.9182 52.4H54.7932V65.475ZM87.8646 68.625L73.8896 54.675L74.6646 54.925L74.7146 68H72.0896V49.3H72.1896L85.9896 63.25L85.3896 63.1L85.3396 49.875H87.9396V68.625H87.8646ZM92.2107 68L100.186 49.125H100.336L108.311 68H105.286L99.4857 53.225L101.361 52L94.8107 68H92.2107ZM97.0357 61.2H103.536L104.436 63.45H96.2607L97.0357 61.2Z" fill="white"/>
</svg>
