<svg width="134" height="124" viewBox="0 0 134 124" fill="none" xmlns="http://www.w3.org/2000/svg">
<rect width="133.374" height="124" rx="20" fill="#00838F"/>
<path d="M45.6894 43V29.95H49.3074C50.6034 29.95 51.7014 30.148 52.6014 30.544C53.5014 30.928 54.2334 31.45 54.7974 32.11C55.3614 32.758 55.7694 33.478 56.0214 34.27C56.2854 35.062 56.4174 35.854 56.4174 36.646C56.4174 37.618 56.2434 38.5 55.8954 39.292C55.5594 40.072 55.0854 40.738 54.4734 41.29C53.8734 41.842 53.1834 42.268 52.4034 42.568C51.6234 42.856 50.8014 43 49.9374 43H45.6894ZM47.5614 41.182H49.5774C50.5254 41.182 51.3654 41.002 52.0974 40.642C52.8294 40.282 53.4054 39.754 53.8254 39.058C54.2574 38.362 54.4734 37.516 54.4734 36.52C54.4734 35.704 54.3354 35.002 54.0594 34.414C53.7954 33.814 53.4414 33.322 52.9974 32.938C52.5534 32.542 52.0554 32.248 51.5034 32.056C50.9514 31.864 50.3874 31.768 49.8114 31.768H47.5614V41.182ZM62.7329 43.18C62.0249 43.18 61.3829 43.03 60.8069 42.73C60.2309 42.43 59.7749 41.992 59.4389 41.416C59.1029 40.828 58.9349 40.102 58.9349 39.238C58.9349 38.398 59.1089 37.678 59.4569 37.078C59.8169 36.466 60.2849 35.998 60.8609 35.674C61.4489 35.338 62.0849 35.17 62.7689 35.17C63.4889 35.17 64.0829 35.32 64.5509 35.62C65.0189 35.92 65.3789 36.28 65.6309 36.7L65.5229 36.988L65.7029 35.476H67.3769V43H65.5589V41.092L65.7389 41.542C65.6909 41.638 65.5889 41.776 65.4329 41.956C65.2769 42.136 65.0729 42.322 64.8209 42.514C64.5689 42.694 64.2629 42.85 63.9029 42.982C63.5549 43.114 63.1649 43.18 62.7329 43.18ZM63.2189 41.686C63.8189 41.686 64.3229 41.53 64.7309 41.218C65.1509 40.894 65.4269 40.456 65.5589 39.904V38.356C65.4149 37.864 65.1209 37.456 64.6769 37.132C64.2449 36.808 63.7409 36.646 63.1649 36.646C62.7329 36.646 62.3369 36.754 61.9769 36.97C61.6169 37.174 61.3289 37.468 61.1129 37.852C60.8969 38.224 60.7889 38.656 60.7889 39.148C60.7889 39.628 60.8969 40.06 61.1129 40.444C61.3409 40.828 61.6409 41.134 62.0129 41.362C62.3849 41.578 62.7869 41.686 63.2189 41.686ZM71.6576 32.182H73.4936V35.494H75.5096V36.916H73.4936V43H71.6576V36.916H70.3256V35.494H71.6576V32.182ZM81.3818 43.18C80.6738 43.18 80.0318 43.03 79.4558 42.73C78.8798 42.43 78.4238 41.992 78.0878 41.416C77.7518 40.828 77.5838 40.102 77.5838 39.238C77.5838 38.398 77.7578 37.678 78.1058 37.078C78.4658 36.466 78.9338 35.998 79.5098 35.674C80.0978 35.338 80.7338 35.17 81.4178 35.17C82.1378 35.17 82.7318 35.32 83.1998 35.62C83.6678 35.92 84.0278 36.28 84.2798 36.7L84.1718 36.988L84.3518 35.476H86.0258V43H84.2078V41.092L84.3878 41.542C84.3398 41.638 84.2378 41.776 84.0818 41.956C83.9258 42.136 83.7218 42.322 83.4698 42.514C83.2178 42.694 82.9118 42.85 82.5518 42.982C82.2038 43.114 81.8138 43.18 81.3818 43.18ZM81.8678 41.686C82.4678 41.686 82.9718 41.53 83.3798 41.218C83.7998 40.894 84.0758 40.456 84.2078 39.904V38.356C84.0638 37.864 83.7698 37.456 83.3258 37.132C82.8938 36.808 82.3898 36.646 81.8138 36.646C81.3818 36.646 80.9858 36.754 80.6258 36.97C80.2658 37.174 79.9778 37.468 79.7618 37.852C79.5458 38.224 79.4378 38.656 79.4378 39.148C79.4378 39.628 79.5458 40.06 79.7618 40.444C79.9898 40.828 80.2898 41.134 80.6618 41.362C81.0338 41.578 81.4358 41.686 81.8678 41.686ZM20.3263 51.95H28.1383V53.768H22.1983V57.728H27.3823V59.528H22.1983V65H20.3263V51.95ZM33.8454 65.18C32.9814 65.18 32.2374 65.012 31.6134 64.676C30.9894 64.328 30.5094 63.854 30.1734 63.254C29.8374 62.642 29.6694 61.952 29.6694 61.184C29.6694 60.44 29.8554 59.768 30.2274 59.168C30.6114 58.556 31.1214 58.07 31.7574 57.71C32.3934 57.35 33.1014 57.17 33.8814 57.17C34.8894 57.17 35.7234 57.464 36.3834 58.052C37.0554 58.628 37.5054 59.444 37.7334 60.5L31.5954 62.624L31.1634 61.58L36.0954 59.78L35.7174 60.032C35.5734 59.648 35.3454 59.318 35.0334 59.042C34.7214 58.754 34.2954 58.61 33.7554 58.61C33.0834 58.61 32.5314 58.844 32.0994 59.312C31.6794 59.768 31.4694 60.356 31.4694 61.076C31.4694 61.844 31.6974 62.462 32.1534 62.93C32.6094 63.398 33.1854 63.632 33.8814 63.632C34.2054 63.632 34.5174 63.578 34.8174 63.47C35.1174 63.35 35.3994 63.194 35.6634 63.002L36.4914 64.352C36.1074 64.604 35.6814 64.808 35.2134 64.964C34.7574 65.108 34.3014 65.18 33.8454 65.18ZM43.5724 65.18C42.8644 65.18 42.2284 65.018 41.6644 64.694C41.1004 64.358 40.6564 63.884 40.3324 63.272C40.0084 62.66 39.8464 61.946 39.8464 61.13C39.8464 60.29 40.0204 59.576 40.3684 58.988C40.7164 58.4 41.1844 57.95 41.7724 57.638C42.3724 57.326 43.0444 57.17 43.7884 57.17C44.3644 57.17 44.9104 57.29 45.4264 57.53C45.9544 57.758 46.3684 58.082 46.6684 58.502L46.5964 59.132V51.014H48.4144V65H46.5784V63.2L46.7764 63.686C46.4164 64.118 45.9604 64.478 45.4084 64.766C44.8684 65.042 44.2564 65.18 43.5724 65.18ZM44.1304 63.65C44.7664 63.65 45.2944 63.488 45.7144 63.164C46.1464 62.828 46.4344 62.384 46.5784 61.832V60.338C46.4464 59.834 46.1524 59.42 45.6964 59.096C45.2524 58.772 44.7304 58.61 44.1304 58.61C43.6984 58.61 43.2964 58.718 42.9244 58.934C42.5524 59.138 42.2524 59.432 42.0244 59.816C41.8084 60.188 41.7004 60.62 41.7004 61.112C41.7004 61.58 41.8084 62.006 42.0244 62.39C42.2524 62.774 42.5524 63.08 42.9244 63.308C43.2964 63.536 43.6984 63.65 44.1304 63.65ZM55.5002 65.18C54.6362 65.18 53.8922 65.012 53.2682 64.676C52.6442 64.328 52.1642 63.854 51.8282 63.254C51.4922 62.642 51.3242 61.952 51.3242 61.184C51.3242 60.44 51.5102 59.768 51.8822 59.168C52.2662 58.556 52.7762 58.07 53.4122 57.71C54.0482 57.35 54.7562 57.17 55.5362 57.17C56.5442 57.17 57.3782 57.464 58.0382 58.052C58.7102 58.628 59.1602 59.444 59.3882 60.5L53.2502 62.624L52.8182 61.58L57.7502 59.78L57.3722 60.032C57.2282 59.648 57.0002 59.318 56.6882 59.042C56.3762 58.754 55.9502 58.61 55.4102 58.61C54.7382 58.61 54.1862 58.844 53.7542 59.312C53.3342 59.768 53.1242 60.356 53.1242 61.076C53.1242 61.844 53.3522 62.462 53.8082 62.93C54.2642 63.398 54.8402 63.632 55.5362 63.632C55.8602 63.632 56.1722 63.578 56.4722 63.47C56.7722 63.35 57.0542 63.194 57.3182 63.002L58.1462 64.352C57.7622 64.604 57.3362 64.808 56.8682 64.964C56.4122 65.108 55.9562 65.18 55.5002 65.18ZM63.7693 57.476L63.9493 59.636L63.8773 59.348C64.0813 58.892 64.3633 58.502 64.7233 58.178C65.0953 57.854 65.4793 57.608 65.8753 57.44C66.2833 57.26 66.6253 57.17 66.9013 57.17L66.8113 58.97C66.2473 58.934 65.7493 59.042 65.3173 59.294C64.8973 59.546 64.5673 59.882 64.3273 60.302C64.0873 60.722 63.9673 61.172 63.9673 61.652V65H62.1493V57.476H63.7693ZM72.6814 65.18C71.9734 65.18 71.3314 65.03 70.7554 64.73C70.1794 64.43 69.7234 63.992 69.3874 63.416C69.0514 62.828 68.8834 62.102 68.8834 61.238C68.8834 60.398 69.0574 59.678 69.4054 59.078C69.7654 58.466 70.2334 57.998 70.8094 57.674C71.3974 57.338 72.0334 57.17 72.7174 57.17C73.4374 57.17 74.0314 57.32 74.4994 57.62C74.9674 57.92 75.3274 58.28 75.5794 58.7L75.4714 58.988L75.6514 57.476H77.3254V65H75.5074V63.092L75.6874 63.542C75.6394 63.638 75.5374 63.776 75.3814 63.956C75.2254 64.136 75.0214 64.322 74.7694 64.514C74.5174 64.694 74.2114 64.85 73.8514 64.982C73.5034 65.114 73.1134 65.18 72.6814 65.18ZM73.1674 63.686C73.7674 63.686 74.2714 63.53 74.6794 63.218C75.0994 62.894 75.3754 62.456 75.5074 61.904V60.356C75.3634 59.864 75.0694 59.456 74.6254 59.132C74.1934 58.808 73.6894 58.646 73.1134 58.646C72.6814 58.646 72.2854 58.754 71.9254 58.97C71.5654 59.174 71.2774 59.468 71.0614 59.852C70.8454 60.224 70.7374 60.656 70.7374 61.148C70.7374 61.628 70.8454 62.06 71.0614 62.444C71.2894 62.828 71.5894 63.134 71.9614 63.362C72.3334 63.578 72.7354 63.686 73.1674 63.686ZM81.6061 54.182H83.4421V57.494H85.4581V58.916H83.4421V65H81.6061V58.916H80.2741V57.494H81.6061V54.182ZM88.1804 57.476H89.9984V65H88.1804V57.476ZM88.0904 54.776C88.0904 54.5 88.1984 54.266 88.4144 54.074C88.6424 53.882 88.8884 53.786 89.1524 53.786C89.4164 53.786 89.6564 53.882 89.8724 54.074C90.0884 54.266 90.1964 54.5 90.1964 54.776C90.1964 55.076 90.0884 55.316 89.8724 55.496C89.6564 55.676 89.4164 55.766 89.1524 55.766C88.8884 55.766 88.6424 55.676 88.4144 55.496C88.1984 55.316 88.0904 55.076 88.0904 54.776ZM92.9106 61.166C92.9106 60.41 93.0906 59.732 93.4506 59.132C93.8106 58.52 94.3086 58.04 94.9446 57.692C95.5806 57.344 96.3066 57.17 97.1226 57.17C97.9506 57.17 98.6706 57.344 99.2826 57.692C99.9066 58.04 100.387 58.52 100.723 59.132C101.071 59.732 101.245 60.41 101.245 61.166C101.245 61.922 101.071 62.606 100.723 63.218C100.375 63.818 99.8886 64.298 99.2646 64.658C98.6526 65.006 97.9266 65.18 97.0866 65.18C96.2946 65.18 95.5806 65.018 94.9446 64.694C94.3206 64.37 93.8226 63.908 93.4506 63.308C93.0906 62.696 92.9106 61.982 92.9106 61.166ZM94.7466 61.184C94.7466 61.652 94.8486 62.078 95.0526 62.462C95.2566 62.834 95.5326 63.134 95.8806 63.362C96.2406 63.578 96.6366 63.686 97.0686 63.686C97.7526 63.686 98.3106 63.446 98.7426 62.966C99.1866 62.486 99.4086 61.892 99.4086 61.184C99.4086 60.476 99.1866 59.882 98.7426 59.402C98.3106 58.91 97.7526 58.664 97.0686 58.664C96.6246 58.664 96.2286 58.778 95.8806 59.006C95.5326 59.234 95.2566 59.54 95.0526 59.924C94.8486 60.308 94.7466 60.728 94.7466 61.184ZM105.795 57.476L105.957 59.222L105.885 58.97C106.125 58.43 106.509 57.998 107.037 57.674C107.577 57.35 108.207 57.188 108.927 57.188C109.635 57.188 110.217 57.398 110.673 57.818C111.129 58.226 111.363 58.766 111.375 59.438V65H109.557V60.068C109.545 59.684 109.431 59.372 109.215 59.132C108.999 58.88 108.663 58.748 108.207 58.736C107.571 58.736 107.037 59 106.605 59.528C106.185 60.056 105.975 60.734 105.975 61.562V65H104.157V57.476H105.795ZM32.5196 73.95C33.4316 73.95 34.2416 74.112 34.9496 74.436C35.6576 74.748 36.2096 75.21 36.6056 75.822C37.0136 76.422 37.2176 77.166 37.2176 78.054C37.2176 78.57 37.1396 79.08 36.9836 79.584C36.8276 80.088 36.5756 80.544 36.2276 80.952C35.8916 81.36 35.4356 81.69 34.8596 81.942C34.2956 82.182 33.5996 82.302 32.7716 82.302H30.8456V87H28.9736V73.95H32.5196ZM32.7356 80.484C33.4076 80.484 33.9236 80.358 34.2836 80.106C34.6556 79.842 34.9136 79.53 35.0576 79.17C35.2016 78.798 35.2736 78.45 35.2736 78.126C35.2736 77.886 35.2316 77.634 35.1476 77.37C35.0636 77.094 34.9256 76.836 34.7336 76.596C34.5536 76.344 34.3076 76.146 33.9956 76.002C33.6836 75.846 33.2996 75.768 32.8436 75.768H30.8456V80.484H32.7356ZM34.9316 81.6L38.3156 87H36.1196L32.6816 81.636L34.9316 81.6ZM44.4967 87.18C43.6327 87.18 42.8887 87.012 42.2647 86.676C41.6407 86.328 41.1607 85.854 40.8247 85.254C40.4887 84.642 40.3207 83.952 40.3207 83.184C40.3207 82.44 40.5067 81.768 40.8787 81.168C41.2627 80.556 41.7727 80.07 42.4087 79.71C43.0447 79.35 43.7527 79.17 44.5327 79.17C45.5407 79.17 46.3747 79.464 47.0347 80.052C47.7067 80.628 48.1567 81.444 48.3847 82.5L42.2467 84.624L41.8147 83.58L46.7467 81.78L46.3687 82.032C46.2247 81.648 45.9967 81.318 45.6847 81.042C45.3727 80.754 44.9467 80.61 44.4067 80.61C43.7347 80.61 43.1827 80.844 42.7507 81.312C42.3307 81.768 42.1207 82.356 42.1207 83.076C42.1207 83.844 42.3487 84.462 42.8047 84.93C43.2607 85.398 43.8367 85.632 44.5327 85.632C44.8567 85.632 45.1687 85.578 45.4687 85.47C45.7687 85.35 46.0507 85.194 46.3147 85.002L47.1427 86.352C46.7587 86.604 46.3327 86.808 45.8647 86.964C45.4087 87.108 44.9527 87.18 44.4967 87.18ZM53.3237 87.162C52.7717 87.162 52.2437 87.066 51.7397 86.874C51.2357 86.67 50.8097 86.382 50.4617 86.01L51.2357 84.966C51.5477 85.266 51.8717 85.494 52.2077 85.65C52.5557 85.806 52.8797 85.884 53.1797 85.884C53.5277 85.884 53.8337 85.818 54.0977 85.686C54.3617 85.542 54.4937 85.308 54.4937 84.984C54.4937 84.72 54.4037 84.516 54.2237 84.372C54.0557 84.228 53.8397 84.108 53.5757 84.012C53.3117 83.916 53.0297 83.826 52.7297 83.742C52.1057 83.538 51.6257 83.25 51.2897 82.878C50.9657 82.494 50.8037 82.044 50.8037 81.528C50.8037 81.132 50.8997 80.76 51.0917 80.412C51.2957 80.052 51.6017 79.764 52.0097 79.548C52.4177 79.32 52.9217 79.206 53.5217 79.206C54.0497 79.206 54.5237 79.272 54.9437 79.404C55.3637 79.524 55.7537 79.734 56.1137 80.034L55.4117 81.132C55.1957 80.916 54.9377 80.754 54.6377 80.646C54.3497 80.526 54.0857 80.46 53.8457 80.448C53.5217 80.448 53.2397 80.526 52.9997 80.682C52.7597 80.826 52.6397 81.024 52.6397 81.276C52.6397 81.528 52.7237 81.732 52.8917 81.888C53.0597 82.032 53.2757 82.152 53.5397 82.248C53.8157 82.332 54.0917 82.422 54.3677 82.518C54.9197 82.698 55.3757 82.944 55.7357 83.256C56.1077 83.568 56.2937 84.024 56.2937 84.624C56.2937 85.08 56.1857 85.5 55.9697 85.884C55.7537 86.268 55.4237 86.58 54.9797 86.82C54.5477 87.048 53.9957 87.162 53.3237 87.162ZM58.6708 83.166C58.6708 82.41 58.8508 81.732 59.2108 81.132C59.5708 80.52 60.0688 80.04 60.7048 79.692C61.3408 79.344 62.0668 79.17 62.8828 79.17C63.7108 79.17 64.4308 79.344 65.0428 79.692C65.6668 80.04 66.1468 80.52 66.4828 81.132C66.8308 81.732 67.0048 82.41 67.0048 83.166C67.0048 83.922 66.8308 84.606 66.4828 85.218C66.1348 85.818 65.6488 86.298 65.0248 86.658C64.4128 87.006 63.6868 87.18 62.8468 87.18C62.0548 87.18 61.3408 87.018 60.7048 86.694C60.0808 86.37 59.5828 85.908 59.2108 85.308C58.8508 84.696 58.6708 83.982 58.6708 83.166ZM60.5068 83.184C60.5068 83.652 60.6088 84.078 60.8128 84.462C61.0168 84.834 61.2928 85.134 61.6408 85.362C62.0008 85.578 62.3968 85.686 62.8288 85.686C63.5128 85.686 64.0708 85.446 64.5028 84.966C64.9468 84.486 65.1688 83.892 65.1688 83.184C65.1688 82.476 64.9468 81.882 64.5028 81.402C64.0708 80.91 63.5128 80.664 62.8288 80.664C62.3848 80.664 61.9888 80.778 61.6408 81.006C61.2928 81.234 61.0168 81.54 60.8128 81.924C60.6088 82.308 60.5068 82.728 60.5068 83.184ZM72.3297 87.306C71.6337 87.306 71.0637 87.096 70.6197 86.676C70.1757 86.256 69.9417 85.716 69.9177 85.056V79.476H71.7357V84.408C71.7597 84.804 71.8737 85.122 72.0777 85.362C72.2817 85.602 72.6057 85.734 73.0497 85.758C73.4577 85.758 73.8237 85.638 74.1477 85.398C74.4717 85.146 74.7237 84.804 74.9037 84.372C75.0957 83.94 75.1917 83.454 75.1917 82.914V79.476H77.0097V87H75.3717L75.2277 85.236L75.2997 85.524C75.0717 86.04 74.6877 86.466 74.1477 86.802C73.6197 87.138 73.0137 87.306 72.3297 87.306ZM82.207 79.476L82.387 81.636L82.315 81.348C82.519 80.892 82.801 80.502 83.161 80.178C83.533 79.854 83.917 79.608 84.313 79.44C84.721 79.26 85.063 79.17 85.339 79.17L85.249 80.97C84.685 80.934 84.187 81.042 83.755 81.294C83.335 81.546 83.005 81.882 82.765 82.302C82.525 82.722 82.405 83.172 82.405 83.652V87H80.587V79.476H82.207ZM94.002 86.298C93.666 86.574 93.258 86.79 92.778 86.946C92.31 87.102 91.836 87.18 91.356 87.18C90.54 87.18 89.814 87.018 89.178 86.694C88.554 86.37 88.068 85.914 87.72 85.326C87.372 84.738 87.198 84.042 87.198 83.238C87.198 82.422 87.384 81.72 87.756 81.132C88.128 80.544 88.614 80.094 89.214 79.782C89.826 79.458 90.48 79.296 91.176 79.296C91.8 79.296 92.346 79.38 92.814 79.548C93.294 79.716 93.708 79.95 94.056 80.25L93.156 81.42C92.952 81.252 92.694 81.102 92.382 80.97C92.07 80.838 91.722 80.772 91.338 80.772C90.906 80.772 90.51 80.88 90.15 81.096C89.802 81.312 89.526 81.606 89.322 81.978C89.118 82.35 89.016 82.77 89.016 83.238C89.016 83.694 89.118 84.108 89.322 84.48C89.538 84.852 89.832 85.146 90.204 85.362C90.588 85.578 91.02 85.686 91.5 85.686C91.812 85.686 92.1 85.638 92.364 85.542C92.64 85.446 92.88 85.32 93.084 85.164L94.002 86.298ZM100.373 87.18C99.5093 87.18 98.7653 87.012 98.1413 86.676C97.5173 86.328 97.0373 85.854 96.7013 85.254C96.3653 84.642 96.1973 83.952 96.1973 83.184C96.1973 82.44 96.3833 81.768 96.7553 81.168C97.1393 80.556 97.6493 80.07 98.2853 79.71C98.9213 79.35 99.6293 79.17 100.409 79.17C101.417 79.17 102.251 79.464 102.911 80.052C103.583 80.628 104.033 81.444 104.261 82.5L98.1233 84.624L97.6913 83.58L102.623 81.78L102.245 82.032C102.101 81.648 101.873 81.318 101.561 81.042C101.249 80.754 100.823 80.61 100.283 80.61C99.6113 80.61 99.0593 80.844 98.6273 81.312C98.2073 81.768 97.9973 82.356 97.9973 83.076C97.9973 83.844 98.2253 84.462 98.6813 84.93C99.1373 85.398 99.7133 85.632 100.409 85.632C100.733 85.632 101.045 85.578 101.345 85.47C101.645 85.35 101.927 85.194 102.191 85.002L103.019 86.352C102.635 86.604 102.209 86.808 101.741 86.964C101.285 87.108 100.829 87.18 100.373 87.18Z" fill="white"/>
</svg>
