<svg width="134" height="124" viewBox="0 0 134 124" fill="none" xmlns="http://www.w3.org/2000/svg">
<rect width="133.374" height="124" rx="20" fill="#00838F"/>
<path d="M28.2592 36.955C28.0438 37.0943 27.7335 37.2653 27.3282 37.468C26.9355 37.658 26.4668 37.8227 25.9222 37.962C25.3902 38.1013 24.8075 38.1647 24.1742 38.152C23.0975 38.1393 22.1348 37.9493 21.2862 37.582C20.4375 37.2147 19.7092 36.7143 19.1012 36.081C18.5058 35.435 18.0498 34.7003 17.7332 33.877C17.4165 33.041 17.2582 32.1543 17.2582 31.217C17.2582 30.1783 17.4228 29.2283 17.7522 28.367C18.0942 27.493 18.5692 26.7393 19.1772 26.106C19.7852 25.46 20.5008 24.9597 21.3242 24.605C22.1602 24.2503 23.0722 24.073 24.0602 24.073C24.8962 24.073 25.6562 24.187 26.3402 24.415C27.0242 24.643 27.6005 24.9027 28.0692 25.194L27.2712 27.056C26.9038 26.8027 26.4478 26.562 25.9032 26.334C25.3712 26.106 24.7758 25.992 24.1172 25.992C23.2558 25.992 22.4578 26.22 21.7232 26.676C21.0012 27.132 20.4185 27.7463 19.9752 28.519C19.5445 29.2917 19.3292 30.1593 19.3292 31.122C19.3292 32.0973 19.5255 32.9713 19.9182 33.744C20.3235 34.5167 20.8935 35.1247 21.6282 35.568C22.3628 36.0113 23.2242 36.233 24.2122 36.233C24.9215 36.233 25.5422 36.1253 26.0742 35.91C26.6188 35.6947 27.0622 35.4477 27.4042 35.169L28.2592 36.955ZM42.2116 36.955C41.9962 37.0943 41.6859 37.2653 41.2806 37.468C40.8879 37.658 40.4192 37.8227 39.8746 37.962C39.3426 38.1013 38.7599 38.1647 38.1266 38.152C37.0499 38.1393 36.0872 37.9493 35.2386 37.582C34.3899 37.2147 33.6616 36.7143 33.0536 36.081C32.4582 35.435 32.0022 34.7003 31.6856 33.877C31.3689 33.041 31.2106 32.1543 31.2106 31.217C31.2106 30.1783 31.3752 29.2283 31.7046 28.367C32.0466 27.493 32.5216 26.7393 33.1296 26.106C33.7376 25.46 34.4532 24.9597 35.2766 24.605C36.1126 24.2503 37.0246 24.073 38.0126 24.073C38.8486 24.073 39.6086 24.187 40.2926 24.415C40.9766 24.643 41.5529 24.9027 42.0216 25.194L41.2236 27.056C40.8562 26.8027 40.4002 26.562 39.8556 26.334C39.3236 26.106 38.7282 25.992 38.0696 25.992C37.2082 25.992 36.4102 26.22 35.6756 26.676C34.9536 27.132 34.3709 27.7463 33.9276 28.519C33.4969 29.2917 33.2816 30.1593 33.2816 31.122C33.2816 32.0973 33.4779 32.9713 33.8706 33.744C34.2759 34.5167 34.8459 35.1247 35.5806 35.568C36.3152 36.0113 37.1766 36.233 38.1646 36.233C38.8739 36.233 39.4946 36.1253 40.0266 35.91C40.5712 35.6947 41.0146 35.4477 41.3566 35.169L42.2116 36.955ZM46.0179 38V24.225H49.8369C51.2049 24.225 52.3639 24.434 53.3139 24.852C54.2639 25.2573 55.0366 25.8083 55.6319 26.505C56.2273 27.189 56.6579 27.949 56.9239 28.785C57.2026 29.621 57.3419 30.457 57.3419 31.293C57.3419 32.319 57.1583 33.25 56.7909 34.086C56.4363 34.9093 55.9359 35.6123 55.2899 36.195C54.6566 36.7777 53.9283 37.2273 53.1049 37.544C52.2816 37.848 51.4139 38 50.5019 38H46.0179ZM47.9939 36.081H50.1219C51.1226 36.081 52.0093 35.891 52.7819 35.511C53.5546 35.131 54.1626 34.5737 54.6059 33.839C55.0619 33.1043 55.2899 32.2113 55.2899 31.16C55.2899 30.2987 55.1443 29.5577 54.8529 28.937C54.5743 28.3037 54.2006 27.7843 53.7319 27.379C53.2633 26.961 52.7376 26.6507 52.1549 26.448C51.5723 26.2453 50.9769 26.144 50.3689 26.144H47.9939V36.081ZM61.1393 24.225H63.1153V38H61.1393V24.225ZM71.0089 38V24.225H74.8279C76.1959 24.225 77.3549 24.434 78.3049 24.852C79.2549 25.2573 80.0275 25.8083 80.6229 26.505C81.2182 27.189 81.6489 27.949 81.9149 28.785C82.1935 29.621 82.3329 30.457 82.3329 31.293C82.3329 32.319 82.1492 33.25 81.7819 34.086C81.4272 34.9093 80.9269 35.6123 80.2809 36.195C79.6475 36.7777 78.9192 37.2273 78.0959 37.544C77.2725 37.848 76.4049 38 75.4929 38H71.0089ZM72.9849 36.081H75.1129C76.1135 36.081 77.0002 35.891 77.7729 35.511C78.5455 35.131 79.1535 34.5737 79.5969 33.839C80.0529 33.1043 80.2809 32.2113 80.2809 31.16C80.2809 30.2987 80.1352 29.5577 79.8439 28.937C79.5652 28.3037 79.1915 27.7843 78.7229 27.379C78.2542 26.961 77.7285 26.6507 77.1459 26.448C76.5632 26.2453 75.9679 26.144 75.3599 26.144H72.9849V36.081ZM88.9992 38.19C88.2519 38.19 87.5742 38.0317 86.9662 37.715C86.3582 37.3983 85.8769 36.936 85.5222 36.328C85.1675 35.7073 84.9902 34.941 84.9902 34.029C84.9902 33.1423 85.1739 32.3823 85.5412 31.749C85.9212 31.103 86.4152 30.609 87.0232 30.267C87.6439 29.9123 88.3152 29.735 89.0372 29.735C89.7972 29.735 90.4242 29.8933 90.9182 30.21C91.4122 30.5267 91.7922 30.9067 92.0582 31.35L91.9442 31.654L92.1342 30.058H93.9012V38H91.9822V35.986L92.1722 36.461C92.1215 36.5623 92.0139 36.708 91.8492 36.898C91.6845 37.088 91.4692 37.2843 91.2032 37.487C90.9372 37.677 90.6142 37.8417 90.2342 37.981C89.8669 38.1203 89.4552 38.19 88.9992 38.19ZM89.5122 36.613C90.1455 36.613 90.6775 36.4483 91.1082 36.119C91.5515 35.777 91.8429 35.3147 91.9822 34.732V33.098C91.8302 32.5787 91.5199 32.148 91.0512 31.806C90.5952 31.464 90.0632 31.293 89.4552 31.293C88.9992 31.293 88.5812 31.407 88.2012 31.635C87.8212 31.8503 87.5172 32.1607 87.2892 32.566C87.0612 32.9587 86.9472 33.4147 86.9472 33.934C86.9472 34.4407 87.0612 34.8967 87.2892 35.302C87.5299 35.7073 87.8465 36.0303 88.2392 36.271C88.6319 36.499 89.0562 36.613 89.5122 36.613ZM98.4198 26.581H100.358V30.077H102.486V31.578H100.358V38H98.4198V31.578H97.0138V30.077H98.4198V26.581ZM108.684 38.19C107.937 38.19 107.259 38.0317 106.651 37.715C106.043 37.3983 105.562 36.936 105.207 36.328C104.853 35.7073 104.675 34.941 104.675 34.029C104.675 33.1423 104.859 32.3823 105.226 31.749C105.606 31.103 106.1 30.609 106.708 30.267C107.329 29.9123 108 29.735 108.722 29.735C109.482 29.735 110.109 29.8933 110.603 30.21C111.097 30.5267 111.477 30.9067 111.743 31.35L111.629 31.654L111.819 30.058H113.586V38H111.667V35.986L111.857 36.461C111.807 36.5623 111.699 36.708 111.534 36.898C111.37 37.088 111.154 37.2843 110.888 37.487C110.622 37.677 110.299 37.8417 109.919 37.981C109.552 38.1203 109.14 38.19 108.684 38.19ZM109.197 36.613C109.831 36.613 110.363 36.4483 110.793 36.119C111.237 35.777 111.528 35.3147 111.667 34.732V33.098C111.515 32.5787 111.205 32.148 110.736 31.806C110.28 31.464 109.748 31.293 109.14 31.293C108.684 31.293 108.266 31.407 107.886 31.635C107.506 31.8503 107.202 32.1607 106.974 32.566C106.746 32.9587 106.632 33.4147 106.632 33.934C106.632 34.4407 106.746 34.8967 106.974 35.302C107.215 35.7073 107.532 36.0303 107.924 36.271C108.317 36.499 108.741 36.613 109.197 36.613ZM17.7888 52.225H26.0348V54.144H19.7648V58.324H25.2368V60.224H19.7648V66H17.7888V52.225ZM32.059 66.19C31.147 66.19 30.3617 66.0127 29.703 65.658C29.0444 65.2907 28.5377 64.7903 28.183 64.157C27.8284 63.511 27.651 62.7827 27.651 61.972C27.651 61.1867 27.8474 60.4773 28.24 59.844C28.6454 59.198 29.1837 58.685 29.855 58.305C30.5264 57.925 31.2737 57.735 32.097 57.735C33.161 57.735 34.0414 58.0453 34.738 58.666C35.4474 59.274 35.9224 60.1353 36.163 61.25L29.684 63.492L29.228 62.39L34.434 60.49L34.035 60.756C33.883 60.3507 33.6424 60.0023 33.313 59.711C32.9837 59.407 32.534 59.255 31.964 59.255C31.2547 59.255 30.672 59.502 30.216 59.996C29.7727 60.4773 29.551 61.098 29.551 61.858C29.551 62.6687 29.7917 63.321 30.273 63.815C30.7544 64.309 31.3624 64.556 32.097 64.556C32.439 64.556 32.7684 64.499 33.085 64.385C33.4017 64.2583 33.6994 64.0937 33.978 63.891L34.852 65.316C34.4467 65.582 33.997 65.7973 33.503 65.962C33.0217 66.114 32.5404 66.19 32.059 66.19ZM42.3264 66.19C41.5791 66.19 40.9078 66.019 40.3124 65.677C39.7171 65.3223 39.2484 64.822 38.9064 64.176C38.5644 63.53 38.3934 62.7763 38.3934 61.915C38.3934 61.0283 38.5771 60.2747 38.9444 59.654C39.3118 59.0333 39.8058 58.5583 40.4264 58.229C41.0598 57.8997 41.7691 57.735 42.5544 57.735C43.1624 57.735 43.7388 57.8617 44.2834 58.115C44.8408 58.3557 45.2778 58.6977 45.5944 59.141L45.5184 59.806V51.237H47.4374V66H45.4994V64.1L45.7084 64.613C45.3284 65.069 44.8471 65.449 44.2644 65.753C43.6944 66.0443 43.0484 66.19 42.3264 66.19ZM42.9154 64.575C43.5868 64.575 44.1441 64.404 44.5874 64.062C45.0434 63.7073 45.3474 63.2387 45.4994 62.656V61.079C45.3601 60.547 45.0498 60.11 44.5684 59.768C44.0998 59.426 43.5488 59.255 42.9154 59.255C42.4594 59.255 42.0351 59.369 41.6424 59.597C41.2498 59.8123 40.9331 60.1227 40.6924 60.528C40.4644 60.9207 40.3504 61.3767 40.3504 61.896C40.3504 62.39 40.4644 62.8397 40.6924 63.245C40.9331 63.6503 41.2498 63.9733 41.6424 64.214C42.0351 64.4547 42.4594 64.575 42.9154 64.575ZM54.9169 66.19C54.0049 66.19 53.2196 66.0127 52.5609 65.658C51.9022 65.2907 51.3956 64.7903 51.0409 64.157C50.6862 63.511 50.5089 62.7827 50.5089 61.972C50.5089 61.1867 50.7052 60.4773 51.0979 59.844C51.5032 59.198 52.0416 58.685 52.7129 58.305C53.3842 57.925 54.1316 57.735 54.9549 57.735C56.0189 57.735 56.8992 58.0453 57.5959 58.666C58.3052 59.274 58.7802 60.1353 59.0209 61.25L52.5419 63.492L52.0859 62.39L57.2919 60.49L56.8929 60.756C56.7409 60.3507 56.5002 60.0023 56.1709 59.711C55.8416 59.407 55.3919 59.255 54.8219 59.255C54.1126 59.255 53.5299 59.502 53.0739 59.996C52.6306 60.4773 52.4089 61.098 52.4089 61.858C52.4089 62.6687 52.6496 63.321 53.1309 63.815C53.6122 64.309 54.2202 64.556 54.9549 64.556C55.2969 64.556 55.6262 64.499 55.9429 64.385C56.2596 64.2583 56.5572 64.0937 56.8359 63.891L57.7099 65.316C57.3046 65.582 56.8549 65.7973 56.3609 65.962C55.8796 66.114 55.3982 66.19 54.9169 66.19ZM63.6453 58.058L63.8353 60.338L63.7593 60.034C63.9747 59.5527 64.2723 59.141 64.6523 58.799C65.045 58.457 65.4503 58.1973 65.8683 58.02C66.299 57.83 66.66 57.735 66.9513 57.735L66.8563 59.635C66.261 59.597 65.7353 59.711 65.2793 59.977C64.836 60.243 64.4877 60.5977 64.2343 61.041C63.981 61.4843 63.8543 61.9593 63.8543 62.466V66H61.9353V58.058H63.6453ZM73.0526 66.19C72.3052 66.19 71.6276 66.0317 71.0196 65.715C70.4116 65.3983 69.9302 64.936 69.5756 64.328C69.2209 63.7073 69.0436 62.941 69.0436 62.029C69.0436 61.1423 69.2272 60.3823 69.5946 59.749C69.9746 59.103 70.4686 58.609 71.0766 58.267C71.6972 57.9123 72.3686 57.735 73.0906 57.735C73.8506 57.735 74.4776 57.8933 74.9716 58.21C75.4656 58.5267 75.8456 58.9067 76.1116 59.35L75.9976 59.654L76.1876 58.058H77.9546V66H76.0356V63.986L76.2256 64.461C76.1749 64.5623 76.0672 64.708 75.9026 64.898C75.7379 65.088 75.5226 65.2843 75.2566 65.487C74.9906 65.677 74.6676 65.8417 74.2876 65.981C73.9202 66.1203 73.5086 66.19 73.0526 66.19ZM73.5656 64.613C74.1989 64.613 74.7309 64.4483 75.1616 64.119C75.6049 63.777 75.8962 63.3147 76.0356 62.732V61.098C75.8836 60.5787 75.5732 60.148 75.1046 59.806C74.6486 59.464 74.1166 59.293 73.5086 59.293C73.0526 59.293 72.6346 59.407 72.2546 59.635C71.8746 59.8503 71.5706 60.1607 71.3426 60.566C71.1146 60.9587 71.0006 61.4147 71.0006 61.934C71.0006 62.4407 71.1146 62.8967 71.3426 63.302C71.5832 63.7073 71.8999 64.0303 72.2926 64.271C72.6852 64.499 73.1096 64.613 73.5656 64.613ZM82.4731 54.581H84.4111V58.077H86.5391V59.578H84.4111V66H82.4731V59.578H81.0671V58.077H82.4731V54.581ZM89.4126 58.058H91.3316V66H89.4126V58.058ZM89.3176 55.208C89.3176 54.9167 89.4316 54.6697 89.6596 54.467C89.9003 54.2643 90.1599 54.163 90.4386 54.163C90.7173 54.163 90.9706 54.2643 91.1986 54.467C91.4266 54.6697 91.5406 54.9167 91.5406 55.208C91.5406 55.5247 91.4266 55.778 91.1986 55.968C90.9706 56.158 90.7173 56.253 90.4386 56.253C90.1599 56.253 89.9003 56.158 89.6596 55.968C89.4316 55.778 89.3176 55.5247 89.3176 55.208ZM94.4056 61.953C94.4056 61.155 94.5956 60.4393 94.9756 59.806C95.3556 59.16 95.8813 58.6533 96.5526 58.286C97.2239 57.9187 97.9903 57.735 98.8516 57.735C99.7256 57.735 100.486 57.9187 101.132 58.286C101.79 58.6533 102.297 59.16 102.652 59.806C103.019 60.4393 103.203 61.155 103.203 61.953C103.203 62.751 103.019 63.473 102.652 64.119C102.284 64.7523 101.771 65.259 101.113 65.639C100.467 66.0063 99.7003 66.19 98.8136 66.19C97.9776 66.19 97.2239 66.019 96.5526 65.677C95.8939 65.335 95.3683 64.8473 94.9756 64.214C94.5956 63.568 94.4056 62.8143 94.4056 61.953ZM96.3436 61.972C96.3436 62.466 96.4513 62.9157 96.6666 63.321C96.8819 63.7137 97.1733 64.0303 97.5406 64.271C97.9206 64.499 98.3386 64.613 98.7946 64.613C99.5166 64.613 100.106 64.3597 100.562 63.853C101.03 63.3463 101.265 62.7193 101.265 61.972C101.265 61.2247 101.03 60.5977 100.562 60.091C100.106 59.5717 99.5166 59.312 98.7946 59.312C98.3259 59.312 97.9079 59.4323 97.5406 59.673C97.1733 59.9137 96.8819 60.2367 96.6666 60.642C96.4513 61.0473 96.3436 61.4907 96.3436 61.972ZM108.006 58.058L108.177 59.901L108.101 59.635C108.355 59.065 108.76 58.609 109.317 58.267C109.887 57.925 110.552 57.754 111.312 57.754C112.06 57.754 112.674 57.9757 113.155 58.419C113.637 58.8497 113.884 59.4197 113.896 60.129V66H111.977V60.794C111.965 60.3887 111.844 60.0593 111.616 59.806C111.388 59.54 111.034 59.4007 110.552 59.388C109.881 59.388 109.317 59.6667 108.861 60.224C108.418 60.7813 108.196 61.497 108.196 62.371V66H106.277V58.058H108.006ZM30.6596 80.225C31.6223 80.225 32.4773 80.396 33.2246 80.738C33.972 81.0673 34.5546 81.555 34.9726 82.201C35.4033 82.8343 35.6186 83.6197 35.6186 84.557C35.6186 85.1017 35.5363 85.64 35.3716 86.172C35.207 86.704 34.941 87.1853 34.5736 87.616C34.219 88.0467 33.7376 88.395 33.1296 88.661C32.5343 88.9143 31.7996 89.041 30.9256 89.041H28.8926V94H26.9166V80.225H30.6596ZM30.8876 87.122C31.597 87.122 32.1416 86.989 32.5216 86.723C32.9143 86.4443 33.1866 86.115 33.3386 85.735C33.4906 85.3423 33.5666 84.975 33.5666 84.633C33.5666 84.3797 33.5223 84.1137 33.4336 83.835C33.345 83.5437 33.1993 83.2713 32.9966 83.018C32.8066 82.752 32.547 82.543 32.2176 82.391C31.8883 82.2263 31.483 82.144 31.0016 82.144H28.8926V87.122H30.8876ZM33.2056 88.3L36.7776 94H34.4596L30.8306 88.338L33.2056 88.3ZM43.3021 94.19C42.3901 94.19 41.6047 94.0127 40.9461 93.658C40.2874 93.2907 39.7807 92.7903 39.4261 92.157C39.0714 91.511 38.8941 90.7827 38.8941 89.972C38.8941 89.1867 39.0904 88.4773 39.4831 87.844C39.8884 87.198 40.4267 86.685 41.0981 86.305C41.7694 85.925 42.5167 85.735 43.3401 85.735C44.4041 85.735 45.2844 86.0453 45.9811 86.666C46.6904 87.274 47.1654 88.1353 47.4061 89.25L40.9271 91.492L40.4711 90.39L45.6771 88.49L45.2781 88.756C45.1261 88.3507 44.8854 88.0023 44.5561 87.711C44.2267 87.407 43.7771 87.255 43.2071 87.255C42.4977 87.255 41.9151 87.502 41.4591 87.996C41.0157 88.4773 40.7941 89.098 40.7941 89.858C40.7941 90.6687 41.0347 91.321 41.5161 91.815C41.9974 92.309 42.6054 92.556 43.3401 92.556C43.6821 92.556 44.0114 92.499 44.3281 92.385C44.6447 92.2583 44.9424 92.0937 45.2211 91.891L46.0951 93.316C45.6897 93.582 45.2401 93.7973 44.7461 93.962C44.2647 94.114 43.7834 94.19 43.3021 94.19ZM52.6195 94.171C52.0368 94.171 51.4795 94.0697 50.9475 93.867C50.4155 93.6517 49.9658 93.3477 49.5985 92.955L50.4155 91.853C50.7448 92.1697 51.0868 92.4103 51.4415 92.575C51.8088 92.7397 52.1508 92.822 52.4675 92.822C52.8348 92.822 53.1578 92.7523 53.4365 92.613C53.7151 92.461 53.8545 92.214 53.8545 91.872C53.8545 91.5933 53.7595 91.378 53.5695 91.226C53.3921 91.074 53.1641 90.9473 52.8855 90.846C52.6068 90.7447 52.3091 90.6497 51.9925 90.561C51.3338 90.3457 50.8271 90.0417 50.4725 89.649C50.1305 89.2437 49.9595 88.7687 49.9595 88.224C49.9595 87.806 50.0608 87.4133 50.2635 87.046C50.4788 86.666 50.8018 86.362 51.2325 86.134C51.6631 85.8933 52.1951 85.773 52.8285 85.773C53.3858 85.773 53.8861 85.8427 54.3295 85.982C54.7728 86.1087 55.1845 86.3303 55.5645 86.647L54.8235 87.806C54.5955 87.578 54.3231 87.407 54.0065 87.293C53.7025 87.1663 53.4238 87.0967 53.1705 87.084C52.8285 87.084 52.5308 87.1663 52.2775 87.331C52.0241 87.483 51.8975 87.692 51.8975 87.958C51.8975 88.224 51.9861 88.4393 52.1635 88.604C52.3408 88.756 52.5688 88.8827 52.8475 88.984C53.1388 89.0727 53.4301 89.1677 53.7215 89.269C54.3041 89.459 54.7855 89.7187 55.1655 90.048C55.5581 90.3773 55.7545 90.8587 55.7545 91.492C55.7545 91.9733 55.6405 92.4167 55.4125 92.822C55.1845 93.2273 54.8361 93.5567 54.3675 93.81C53.9115 94.0507 53.3288 94.171 52.6195 94.171ZM58.2637 89.953C58.2637 89.155 58.4537 88.4393 58.8337 87.806C59.2137 87.16 59.7393 86.6533 60.4107 86.286C61.082 85.9187 61.8483 85.735 62.7097 85.735C63.5837 85.735 64.3437 85.9187 64.9897 86.286C65.6483 86.6533 66.155 87.16 66.5097 87.806C66.877 88.4393 67.0607 89.155 67.0607 89.953C67.0607 90.751 66.877 91.473 66.5097 92.119C66.1423 92.7523 65.6293 93.259 64.9707 93.639C64.3247 94.0063 63.5583 94.19 62.6717 94.19C61.8357 94.19 61.082 94.019 60.4107 93.677C59.752 93.335 59.2263 92.8473 58.8337 92.214C58.4537 91.568 58.2637 90.8143 58.2637 89.953ZM60.2017 89.972C60.2017 90.466 60.3093 90.9157 60.5247 91.321C60.74 91.7137 61.0313 92.0303 61.3987 92.271C61.7787 92.499 62.1967 92.613 62.6527 92.613C63.3747 92.613 63.9637 92.3597 64.4197 91.853C64.8883 91.3463 65.1227 90.7193 65.1227 89.972C65.1227 89.2247 64.8883 88.5977 64.4197 88.091C63.9637 87.5717 63.3747 87.312 62.6527 87.312C62.184 87.312 61.766 87.4323 61.3987 87.673C61.0313 87.9137 60.74 88.2367 60.5247 88.642C60.3093 89.0473 60.2017 89.4907 60.2017 89.972ZM72.6814 94.323C71.9467 94.323 71.3451 94.1013 70.8764 93.658C70.4077 93.2147 70.1607 92.6447 70.1354 91.948V86.058H72.0544V91.264C72.0797 91.682 72.2001 92.0177 72.4154 92.271C72.6307 92.5243 72.9727 92.6637 73.4414 92.689C73.8721 92.689 74.2584 92.5623 74.6004 92.309C74.9424 92.043 75.2084 91.682 75.3984 91.226C75.6011 90.77 75.7024 90.257 75.7024 89.687V86.058H77.6214V94H75.8924L75.7404 92.138L75.8164 92.442C75.5757 92.9867 75.1704 93.4363 74.6004 93.791C74.0431 94.1457 73.4034 94.323 72.6814 94.323ZM83.1073 86.058L83.2973 88.338L83.2213 88.034C83.4367 87.5527 83.7343 87.141 84.1143 86.799C84.507 86.457 84.9123 86.1973 85.3303 86.02C85.761 85.83 86.122 85.735 86.4133 85.735L86.3183 87.635C85.723 87.597 85.1973 87.711 84.7413 87.977C84.298 88.243 83.9497 88.5977 83.6963 89.041C83.443 89.4843 83.3163 89.9593 83.3163 90.466V94H81.3973V86.058H83.1073ZM95.5577 93.259C95.203 93.5503 94.7724 93.7783 94.2657 93.943C93.7717 94.1077 93.2714 94.19 92.7647 94.19C91.9034 94.19 91.137 94.019 90.4657 93.677C89.807 93.335 89.294 92.8537 88.9267 92.233C88.5594 91.6123 88.3757 90.8777 88.3757 90.029C88.3757 89.1677 88.572 88.4267 88.9647 87.806C89.3574 87.1853 89.8704 86.7103 90.5037 86.381C91.1497 86.039 91.84 85.868 92.5747 85.868C93.2334 85.868 93.8097 85.9567 94.3037 86.134C94.8104 86.3113 95.2474 86.5583 95.6147 86.875L94.6647 88.11C94.4494 87.9327 94.177 87.7743 93.8477 87.635C93.5184 87.4957 93.151 87.426 92.7457 87.426C92.2897 87.426 91.8717 87.54 91.4917 87.768C91.1244 87.996 90.833 88.3063 90.6177 88.699C90.4024 89.0917 90.2947 89.535 90.2947 90.029C90.2947 90.5103 90.4024 90.9473 90.6177 91.34C90.8457 91.7327 91.156 92.043 91.5487 92.271C91.954 92.499 92.41 92.613 92.9167 92.613C93.246 92.613 93.55 92.5623 93.8287 92.461C94.12 92.3597 94.3734 92.2267 94.5887 92.062L95.5577 93.259ZM102.283 94.19C101.371 94.19 100.586 94.0127 99.927 93.658C99.2683 93.2907 98.7616 92.7903 98.407 92.157C98.0523 91.511 97.875 90.7827 97.875 89.972C97.875 89.1867 98.0713 88.4773 98.464 87.844C98.8693 87.198 99.4076 86.685 100.079 86.305C100.75 85.925 101.498 85.735 102.321 85.735C103.385 85.735 104.265 86.0453 104.962 86.666C105.671 87.274 106.146 88.1353 106.387 89.25L99.908 91.492L99.452 90.39L104.658 88.49L104.259 88.756C104.107 88.3507 103.866 88.0023 103.537 87.711C103.208 87.407 102.758 87.255 102.188 87.255C101.479 87.255 100.896 87.502 100.44 87.996C99.9966 88.4773 99.775 89.098 99.775 89.858C99.775 90.6687 100.016 91.321 100.497 91.815C100.978 92.309 101.586 92.556 102.321 92.556C102.663 92.556 102.992 92.499 103.309 92.385C103.626 92.2583 103.923 92.0937 104.202 91.891L105.076 93.316C104.671 93.582 104.221 93.7973 103.727 93.962C103.246 94.114 102.764 94.19 102.283 94.19Z" fill="white"/>
</svg>
