<svg width="134" height="124" viewBox="0 0 134 124" fill="none" xmlns="http://www.w3.org/2000/svg">
<rect width="133.374" height="124" rx="20" fill="#00838F"/>
<path d="M46.9851 39.6L33.5691 26.208L34.3131 26.448L34.3611 39H31.8411V21.048H31.9371L45.1851 34.44L44.6091 34.296L44.5611 21.6H47.0571V39.6H46.9851ZM65.7733 37.68C65.5013 37.856 65.1093 38.072 64.5973 38.328C64.1013 38.568 63.5093 38.776 62.8213 38.952C62.1493 39.128 61.4133 39.208 60.6133 39.192C59.2533 39.176 58.0373 38.936 56.9653 38.472C55.8933 38.008 54.9733 37.376 54.2053 36.576C53.4533 35.76 52.8773 34.832 52.4773 33.792C52.0773 32.736 51.8773 31.616 51.8773 30.432C51.8773 29.12 52.0853 27.92 52.5013 26.832C52.9333 25.728 53.5333 24.776 54.3013 23.976C55.0693 23.16 55.9733 22.528 57.0133 22.08C58.0693 21.632 59.2213 21.408 60.4693 21.408C61.5253 21.408 62.4853 21.552 63.3493 21.84C64.2133 22.128 64.9413 22.456 65.5333 22.824L64.5253 25.176C64.0613 24.856 63.4853 24.552 62.7973 24.264C62.1253 23.976 61.3733 23.832 60.5413 23.832C59.4533 23.832 58.4453 24.12 57.5173 24.696C56.6053 25.272 55.8693 26.048 55.3093 27.024C54.7653 28 54.4933 29.096 54.4933 30.312C54.4933 31.544 54.7413 32.648 55.2373 33.624C55.7493 34.6 56.4693 35.368 57.3973 35.928C58.3253 36.488 59.4133 36.768 60.6613 36.768C61.5573 36.768 62.3413 36.632 63.0133 36.36C63.7013 36.088 64.2613 35.776 64.6933 35.424L65.7733 37.68ZM83.3974 37.68C83.1254 37.856 82.7334 38.072 82.2214 38.328C81.7254 38.568 81.1334 38.776 80.4454 38.952C79.7734 39.128 79.0374 39.208 78.2374 39.192C76.8774 39.176 75.6614 38.936 74.5894 38.472C73.5174 38.008 72.5974 37.376 71.8294 36.576C71.0774 35.76 70.5014 34.832 70.1014 33.792C69.7014 32.736 69.5014 31.616 69.5014 30.432C69.5014 29.12 69.7094 27.92 70.1254 26.832C70.5574 25.728 71.1574 24.776 71.9254 23.976C72.6934 23.16 73.5974 22.528 74.6374 22.08C75.6934 21.632 76.8454 21.408 78.0934 21.408C79.1494 21.408 80.1094 21.552 80.9734 21.84C81.8374 22.128 82.5654 22.456 83.1574 22.824L82.1494 25.176C81.6854 24.856 81.1094 24.552 80.4214 24.264C79.7494 23.976 78.9974 23.832 78.1654 23.832C77.0774 23.832 76.0694 24.12 75.1414 24.696C74.2294 25.272 73.4934 26.048 72.9334 27.024C72.3894 28 72.1174 29.096 72.1174 30.312C72.1174 31.544 72.3654 32.648 72.8614 33.624C73.3734 34.6 74.0934 35.368 75.0214 35.928C75.9494 36.488 77.0374 36.768 78.2854 36.768C79.1814 36.768 79.9654 36.632 80.6374 36.36C81.3254 36.088 81.8854 35.776 82.3174 35.424L83.3974 37.68ZM92.9334 21.6C94.1494 21.6 95.2294 21.816 96.1734 22.248C97.1174 22.664 97.8534 23.28 98.3814 24.096C98.9254 24.896 99.1974 25.888 99.1974 27.072C99.1974 27.76 99.0934 28.44 98.8854 29.112C98.6774 29.784 98.3414 30.392 97.8774 30.936C97.4294 31.48 96.8214 31.92 96.0534 32.256C95.3014 32.576 94.3734 32.736 93.2694 32.736H90.7014V39H88.2054V21.6H92.9334ZM93.2214 30.312C94.1174 30.312 94.8054 30.144 95.2854 29.808C95.7814 29.456 96.1254 29.04 96.3174 28.56C96.5094 28.064 96.6054 27.6 96.6054 27.168C96.6054 26.848 96.5494 26.512 96.4374 26.16C96.3254 25.792 96.1414 25.448 95.8854 25.128C95.6454 24.792 95.3174 24.528 94.9014 24.336C94.4854 24.128 93.9734 24.024 93.3654 24.024H90.7014V30.312H93.2214ZM96.1494 31.8L100.661 39H97.7334L93.1494 31.848L96.1494 31.8ZM38.9192 67V49.6H43.7432C45.4712 49.6 46.9352 49.864 48.1352 50.392C49.3352 50.904 50.3112 51.6 51.0632 52.48C51.8152 53.344 52.3592 54.304 52.6952 55.36C53.0472 56.416 53.2232 57.472 53.2232 58.528C53.2232 59.824 52.9912 61 52.5272 62.056C52.0792 63.096 51.4472 63.984 50.6312 64.72C49.8312 65.456 48.9112 66.024 47.8712 66.424C46.8312 66.808 45.7352 67 44.5832 67H38.9192ZM41.4152 64.576H44.1032C45.3672 64.576 46.4872 64.336 47.4632 63.856C48.4392 63.376 49.2072 62.672 49.7672 61.744C50.3432 60.816 50.6312 59.688 50.6312 58.36C50.6312 57.272 50.4472 56.336 50.0792 55.552C49.7272 54.752 49.2552 54.096 48.6632 53.584C48.0712 53.056 47.4072 52.664 46.6712 52.408C45.9352 52.152 45.1832 52.024 44.4152 52.024H41.4152V64.576ZM61.6438 67.24C60.6998 67.24 59.8438 67.04 59.0758 66.64C58.3078 66.24 57.6998 65.656 57.2518 64.888C56.8038 64.104 56.5798 63.136 56.5798 61.984C56.5798 60.864 56.8118 59.904 57.2758 59.104C57.7558 58.288 58.3798 57.664 59.1478 57.232C59.9318 56.784 60.7798 56.56 61.6918 56.56C62.6518 56.56 63.4438 56.76 64.0678 57.16C64.6918 57.56 65.1718 58.04 65.5078 58.6L65.3638 58.984L65.6038 56.968H67.8358V67H65.4118V64.456L65.6518 65.056C65.5878 65.184 65.4518 65.368 65.2438 65.608C65.0358 65.848 64.7638 66.096 64.4278 66.352C64.0918 66.592 63.6838 66.8 63.2038 66.976C62.7398 67.152 62.2198 67.24 61.6438 67.24ZM62.2918 65.248C63.0918 65.248 63.7638 65.04 64.3078 64.624C64.8678 64.192 65.2358 63.608 65.4118 62.872V60.808C65.2198 60.152 64.8278 59.608 64.2358 59.176C63.6598 58.744 62.9878 58.528 62.2198 58.528C61.6438 58.528 61.1158 58.672 60.6358 58.96C60.1558 59.232 59.7718 59.624 59.4838 60.136C59.1958 60.632 59.0518 61.208 59.0518 61.864C59.0518 62.504 59.1958 63.08 59.4838 63.592C59.7878 64.104 60.1878 64.512 60.6838 64.816C61.1798 65.104 61.7158 65.248 62.2918 65.248ZM73.5435 52.576H75.9915V56.992H78.6795V58.888H75.9915V67H73.5435V58.888H71.7675V56.992H73.5435V52.576ZM86.5091 67.24C85.5651 67.24 84.7091 67.04 83.9411 66.64C83.1731 66.24 82.5651 65.656 82.1171 64.888C81.6691 64.104 81.4451 63.136 81.4451 61.984C81.4451 60.864 81.6771 59.904 82.1411 59.104C82.6211 58.288 83.2451 57.664 84.0131 57.232C84.7971 56.784 85.6451 56.56 86.5571 56.56C87.5171 56.56 88.3091 56.76 88.9331 57.16C89.5571 57.56 90.0371 58.04 90.3731 58.6L90.2291 58.984L90.4691 56.968H92.7011V67H90.2771V64.456L90.5171 65.056C90.4531 65.184 90.3171 65.368 90.1091 65.608C89.9011 65.848 89.6291 66.096 89.2931 66.352C88.9571 66.592 88.5491 66.8 88.0691 66.976C87.6051 67.152 87.0851 67.24 86.5091 67.24ZM87.1571 65.248C87.9571 65.248 88.6291 65.04 89.1731 64.624C89.7331 64.192 90.1011 63.608 90.2771 62.872V60.808C90.0851 60.152 89.6931 59.608 89.1011 59.176C88.5251 58.744 87.8531 58.528 87.0851 58.528C86.5091 58.528 85.9811 58.672 85.5011 58.96C85.0211 59.232 84.6371 59.624 84.3491 60.136C84.0611 60.632 83.9171 61.208 83.9171 61.864C83.9171 62.504 84.0611 63.08 84.3491 63.592C84.6531 64.104 85.0531 64.512 85.5491 64.816C86.0451 65.104 86.5811 65.248 87.1571 65.248ZM22.5788 77.6C24.4988 77.6 26.0028 78.08 27.0908 79.04C28.1788 80 28.7228 81.344 28.7228 83.072C28.7228 83.76 28.6188 84.44 28.4108 85.112C28.2028 85.784 27.8668 86.4 27.4028 86.96C26.9548 87.504 26.3548 87.944 25.6028 88.28C24.8668 88.6 23.9628 88.76 22.8908 88.76H20.3228V95H17.8268V77.6H22.5788ZM22.8668 86.312C23.5228 86.312 24.0668 86.208 24.4988 86C24.9468 85.776 25.2908 85.496 25.5308 85.16C25.7868 84.824 25.9628 84.472 26.0588 84.104C26.1708 83.736 26.2268 83.408 26.2268 83.12C26.2268 82.8 26.1708 82.464 26.0588 82.112C25.9628 81.744 25.7868 81.408 25.5308 81.104C25.2908 80.784 24.9628 80.528 24.5468 80.336C24.1308 80.128 23.6108 80.024 22.9868 80.024H20.3228V86.312H22.8668ZM32.6483 76.352H35.0723V95H32.6483V76.352ZM44.0193 95.24C43.0753 95.24 42.2193 95.04 41.4513 94.64C40.6833 94.24 40.0753 93.656 39.6273 92.888C39.1793 92.104 38.9553 91.136 38.9553 89.984C38.9553 88.864 39.1873 87.904 39.6513 87.104C40.1313 86.288 40.7553 85.664 41.5233 85.232C42.3073 84.784 43.1553 84.56 44.0673 84.56C45.0273 84.56 45.8193 84.76 46.4433 85.16C47.0673 85.56 47.5473 86.04 47.8833 86.6L47.7393 86.984L47.9793 84.968H50.2113V95H47.7873V92.456L48.0273 93.056C47.9633 93.184 47.8273 93.368 47.6193 93.608C47.4113 93.848 47.1393 94.096 46.8033 94.352C46.4673 94.592 46.0593 94.8 45.5793 94.976C45.1153 95.152 44.5953 95.24 44.0193 95.24ZM44.6673 93.248C45.4673 93.248 46.1393 93.04 46.6833 92.624C47.2433 92.192 47.6113 91.608 47.7873 90.872V88.808C47.5953 88.152 47.2033 87.608 46.6113 87.176C46.0353 86.744 45.3633 86.528 44.5953 86.528C44.0193 86.528 43.4913 86.672 43.0113 86.96C42.5313 87.232 42.1473 87.624 41.8593 88.136C41.5713 88.632 41.4273 89.208 41.4273 89.864C41.4273 90.504 41.5713 91.08 41.8593 91.592C42.1633 92.104 42.5633 92.512 43.0593 92.816C43.5553 93.104 44.0913 93.248 44.6673 93.248ZM55.919 80.576H58.367V84.992H61.055V86.888H58.367V95H55.919V86.888H54.143V84.992H55.919V80.576ZM65.5246 95V87.128H63.8206V84.968H65.5246V80.864C65.5246 79.44 65.8606 78.336 66.5326 77.552C67.2206 76.752 68.2206 76.352 69.5326 76.352C69.8846 76.352 70.2686 76.408 70.6846 76.52C71.1166 76.616 71.5006 76.776 71.8366 77L70.8046 78.752C70.6606 78.592 70.4926 78.488 70.3006 78.44C70.1246 78.376 69.9486 78.344 69.7726 78.344C69.2126 78.344 68.7646 78.544 68.4286 78.944C68.1086 79.328 67.9486 79.984 67.9486 80.912V84.968H71.1166V87.128H67.9486V95H65.5246ZM73.4993 89.888C73.4993 88.88 73.7393 87.976 74.2193 87.176C74.6993 86.36 75.3633 85.72 76.2113 85.256C77.0593 84.792 78.0273 84.56 79.1153 84.56C80.2193 84.56 81.1793 84.792 81.9953 85.256C82.8273 85.72 83.4673 86.36 83.9153 87.176C84.3793 87.976 84.6113 88.88 84.6113 89.888C84.6113 90.896 84.3793 91.808 83.9153 92.624C83.4513 93.424 82.8033 94.064 81.9713 94.544C81.1553 95.008 80.1873 95.24 79.0673 95.24C78.0113 95.24 77.0593 95.024 76.2113 94.592C75.3793 94.16 74.7153 93.544 74.2193 92.744C73.7393 91.928 73.4993 90.976 73.4993 89.888ZM75.9473 89.912C75.9473 90.536 76.0833 91.104 76.3553 91.616C76.6273 92.112 76.9953 92.512 77.4593 92.816C77.9393 93.104 78.4673 93.248 79.0433 93.248C79.9553 93.248 80.6993 92.928 81.2753 92.288C81.8673 91.648 82.1633 90.856 82.1633 89.912C82.1633 88.968 81.8673 88.176 81.2753 87.536C80.6993 86.88 79.9553 86.552 79.0433 86.552C78.4513 86.552 77.9233 86.704 77.4593 87.008C76.9953 87.312 76.6273 87.72 76.3553 88.232C76.0833 88.744 75.9473 89.304 75.9473 89.912ZM90.6552 84.968L90.8952 87.848L90.7992 87.464C91.0712 86.856 91.4472 86.336 91.9272 85.904C92.4232 85.472 92.9352 85.144 93.4632 84.92C94.0072 84.68 94.4632 84.56 94.8312 84.56L94.7112 86.96C93.9592 86.912 93.2952 87.056 92.7192 87.392C92.1592 87.728 91.7192 88.176 91.3992 88.736C91.0792 89.296 90.9192 89.896 90.9192 90.536V95H88.4952V84.968H90.6552ZM100.78 84.968L100.996 87.152L100.876 86.96C101.244 86.208 101.764 85.624 102.436 85.208C103.124 84.776 103.908 84.56 104.788 84.56C105.62 84.56 106.316 84.752 106.876 85.136C107.436 85.52 107.78 86.064 107.908 86.768L107.788 86.864C108.188 86.144 108.724 85.584 109.396 85.184C110.068 84.768 110.772 84.56 111.508 84.56C112.5 84.56 113.284 84.84 113.86 85.4C114.436 85.944 114.732 86.664 114.748 87.56V95H112.348V88.472C112.332 87.96 112.212 87.536 111.988 87.2C111.78 86.864 111.396 86.68 110.836 86.648C110.26 86.648 109.748 86.824 109.3 87.176C108.868 87.528 108.524 87.984 108.268 88.544C108.028 89.104 107.9 89.704 107.884 90.344V95H105.46V88.472C105.444 87.96 105.316 87.536 105.076 87.2C104.852 86.864 104.46 86.68 103.9 86.648C103.34 86.648 102.836 86.824 102.388 87.176C101.956 87.528 101.62 87.992 101.38 88.568C101.14 89.128 101.02 89.728 101.02 90.368V95H98.5958V84.968H100.78Z" fill="white"/>
</svg>
