<svg width="67" height="68" viewBox="0 0 67 68" fill="none" xmlns="http://www.w3.org/2000/svg">
<g filter="url(#filter0_d_788_3450)">
<circle cx="33.5" cy="30" r="29.5" fill="white"/>
<circle cx="33.5" cy="30" r="29" stroke="#B3B3B3"/>
</g>
<path d="M15.2069 16.0849C14.5508 16.0849 14.019 16.6136 14.019 17.266C14.019 17.9184 14.5508 18.4471 15.2069 18.4471H18.9932L23.0764 37.6032C23.2384 38.3245 23.7135 38.9242 24.3138 38.9199H44.1114C44.7393 38.9284 45.3162 38.3631 45.3162 37.7388C45.3162 37.1146 44.7393 36.5486 44.1114 36.5578H25.2789L24.7713 34.1956H45.6952C46.2269 34.1921 46.7296 33.7885 46.8456 33.2732L49.6173 21.4624C49.7714 20.7769 49.1732 20.0282 48.4669 20.0226H21.7656L21.1221 17.0206C21.009 16.4955 20.4978 16.0849 19.9583 16.0849H15.2069ZM22.2598 22.384H28.4465L29.0405 25.9273H23.0142L22.2598 22.384ZM30.8718 22.384H38.3454L37.7514 25.9273H31.4657L30.8718 22.384ZM40.7706 22.384H46.97L46.1407 25.9273H40.1766L40.7706 22.384ZM23.5219 28.2895H29.4364L30.0304 31.8327H24.2763L23.5219 28.2895ZM31.8616 28.2895H37.3555L36.7615 31.8327H32.4556L31.8616 28.2895ZM39.7807 28.2895H45.5835L44.7541 31.8327H39.186L39.78 28.2895H39.7807ZM28.6693 40.494C26.4965 40.494 24.7098 42.2706 24.7098 44.431C24.7098 46.5914 26.4965 48.3679 28.6693 48.3679C30.8421 48.3679 32.6288 46.5914 32.6288 44.431C32.6288 42.2706 30.8421 40.494 28.6693 40.494ZM39.7559 40.494C37.5831 40.494 35.7964 42.2706 35.7964 44.431C35.7964 46.5914 37.5831 48.3679 39.7559 48.3679C41.9287 48.3679 43.7155 46.5914 43.7155 44.431C43.7155 42.2706 41.9287 40.494 39.7559 40.494ZM28.6693 42.8562C29.558 42.8562 30.2531 43.5473 30.2531 44.431C30.2531 45.3147 29.558 46.0057 28.6693 46.0057C27.7805 46.0057 27.0855 45.3147 27.0855 44.431C27.0855 43.5473 27.7805 42.8562 28.6693 42.8562ZM39.7559 42.8562C40.6447 42.8562 41.3397 43.5473 41.3397 44.431C41.3397 45.3147 40.6447 46.0057 39.7559 46.0057C38.8672 46.0057 38.1721 45.3147 38.1721 44.431C38.1721 43.5473 38.8672 42.8562 39.7559 42.8562Z" fill="#5666BD"/>
<defs>
<filter id="filter0_d_788_3450" x="0" y="0.5" width="67" height="67" filterUnits="userSpaceOnUse" color-interpolation-filters="sRGB">
<feFlood flood-opacity="0" result="BackgroundImageFix"/>
<feColorMatrix in="SourceAlpha" type="matrix" values="0 0 0 0 0 0 0 0 0 0 0 0 0 0 0 0 0 0 127 0" result="hardAlpha"/>
<feOffset dy="4"/>
<feGaussianBlur stdDeviation="2"/>
<feComposite in2="hardAlpha" operator="out"/>
<feColorMatrix type="matrix" values="0 0 0 0 0 0 0 0 0 0 0 0 0 0 0 0 0 0 0.25 0"/>
<feBlend mode="normal" in2="BackgroundImageFix" result="effect1_dropShadow_788_3450"/>
<feBlend mode="normal" in="SourceGraphic" in2="effect1_dropShadow_788_3450" result="shape"/>
</filter>
</defs>
</svg>
