<svg width="517" height="55" viewBox="0 0 517 55" fill="none" xmlns="http://www.w3.org/2000/svg">
<path d="M35 15.656H31V39.14H35V15.656Z" fill="white"/>
<path d="M23 15.656V32.8776L12 15.656H8V39.14H12V21.9184L23 39.14H27V15.656H23Z" fill="white"/>
<path d="M54 15.656V25.441H43V15.656H39V39.14H43V29.355H54V39.14H58V15.656H54Z" fill="white"/>
<g clip-path="url(#clip0_2802_4395)">
<path d="M74.5625 2.89814C73.3721 1.19031 71.4961 0 69.4519 0H64.8589L80.3458 27.403L64.8589 54.8059H69.4519C71.6643 54.8059 73.5403 53.6156 74.5625 51.9078L88.1863 27.39L74.5625 2.87227V2.89814Z" fill="#BA1F40"/>
<path d="M76.0892 27.4159L60.9386 0H5.95154C2.54881 0 0 2.72995 0 5.96448V49.0355C0 52.2701 2.54881 55 5.96448 55H60.9515L76.1021 27.4159H76.0892Z" fill="#606061"/>
<path d="M36.602 15.3317H32.5135V39.6812H36.602V15.3317Z" fill="white"/>
<path d="M24.3366 15.3317V33.031L13.1063 15.3317H9.18608V39.6812H13.1063V21.8007L24.3366 39.6812H28.4251V15.3317H24.3366Z" fill="white"/>
<path d="M55.828 15.3317V25.3717H44.5977V15.3317H40.5093V39.6812H44.5977V29.4601H55.828V39.6812H59.9165V15.3317H55.828Z" fill="white"/>
<path d="M109.767 8.30627H112.277V19.5495H109.767L104.411 12.4982V19.5495H101.901V8.30627H104.255L109.767 15.5387V8.30627Z" fill="#BB0E3D"/>
<path d="M123.055 19.5495L122.007 17.1171H117.297L116.249 19.5495H113.584L118.449 8.30627H120.881L125.746 19.5495H123.055ZM119.665 11.6443L118.255 14.9047H121.075L119.678 11.6443H119.665Z" fill="#BB0E3D"/>
<path d="M130.973 10.4799V19.5495H128.463V10.4799H125.28V8.30627H134.155V10.4799H130.973Z" fill="#BB0E3D"/>
<path d="M135.993 8.30627H138.503V19.5495H135.993V8.30627Z" fill="#BB0E3D"/>
<path d="M150.729 17.9969C149.591 19.1096 148.193 19.6659 146.524 19.6659C144.855 19.6659 143.458 19.1096 142.319 17.9969C141.181 16.8842 140.612 15.4998 140.612 13.8567C140.612 12.2136 141.181 10.8292 142.319 9.7165C143.458 8.60383 144.855 8.04749 146.524 8.04749C148.193 8.04749 149.591 8.60383 150.729 9.7165C151.868 10.8292 152.437 12.2136 152.437 13.8567C152.437 15.4998 151.868 16.8842 150.729 17.9969ZM149.875 13.8567C149.875 12.8605 149.552 11.9936 148.905 11.295C148.258 10.5834 147.469 10.234 146.537 10.234C145.606 10.234 144.804 10.5834 144.17 11.295C143.536 12.0066 143.199 12.8605 143.199 13.8567C143.199 14.8529 143.523 15.7069 144.17 16.4185C144.816 17.1171 145.606 17.4664 146.537 17.4664C147.469 17.4664 148.271 17.1171 148.905 16.4185C149.552 15.7198 149.875 14.8659 149.875 13.8567Z" fill="#BB0E3D"/>
<path d="M162.425 8.30627H164.935V19.5495H162.425L157.069 12.4982V19.5495H154.559V8.30627H156.914L162.425 15.5387V8.30627Z" fill="#BB0E3D"/>
<path d="M175.713 19.5495L174.665 17.1171H169.955L168.907 19.5495H166.242L171.107 8.30627H173.539L178.404 19.5495H175.713ZM172.323 11.6443L170.913 14.9047H173.733L172.336 11.6443H172.323Z" fill="#BB0E3D"/>
<path d="M179.685 19.5495V8.30627H182.195V17.3112H186.995V19.5495H179.685Z" fill="#BB0E3D"/>
<path d="M198.225 17.3371C199.454 17.3371 200.463 16.8454 201.253 15.8751L202.857 17.5311C201.576 18.9673 200.075 19.6918 198.342 19.6918C196.608 19.6918 195.185 19.1484 194.059 18.0487C192.933 16.9489 192.377 15.5775 192.377 13.9085C192.377 12.2394 192.946 10.8551 194.085 9.72944C195.223 8.61676 196.621 8.06042 198.277 8.06042C200.127 8.06042 201.667 8.75908 202.909 10.1693L201.343 11.9419C200.554 10.9586 199.558 10.4669 198.38 10.4669C197.436 10.4669 196.634 10.7774 195.961 11.3855C195.288 12.0066 194.952 12.8346 194.952 13.8826C194.952 14.9306 195.262 15.7716 195.896 16.4055C196.53 17.0395 197.294 17.35 198.199 17.35H198.225V17.3371Z" fill="#BB0E3D"/>
<path d="M212.768 19.5495L211.72 17.1171H207.01L205.962 19.5495H203.297L208.162 8.30627H210.594L215.459 19.5495H212.768ZM209.378 11.6443L207.968 14.9047H210.788L209.391 11.6443H209.378Z" fill="#BB0E3D"/>
<path d="M224.619 8.30627H227.129V19.5495H224.619L219.263 12.4982V19.5495H216.753V8.30627H219.107L224.619 15.5387V8.30627Z" fill="#BB0E3D"/>
<path d="M235.047 17.3371C236.276 17.3371 237.285 16.8454 238.075 15.8751L239.679 17.5311C238.398 18.9673 236.897 19.6918 235.163 19.6918C233.43 19.6918 232.007 19.1484 230.881 18.0487C229.755 16.9489 229.199 15.5775 229.199 13.9085C229.199 12.2394 229.768 10.8551 230.907 9.72944C232.045 8.61676 233.443 8.06042 235.099 8.06042C236.949 8.06042 238.489 8.75908 239.731 10.1693L238.165 11.9419C237.376 10.9586 236.38 10.4669 235.202 10.4669C234.258 10.4669 233.456 10.7774 232.783 11.3855C232.11 12.0066 231.774 12.8346 231.774 13.8826C231.774 14.9306 232.084 15.7716 232.718 16.4055C233.352 17.0395 234.115 17.35 235.021 17.35H235.047V17.3371Z" fill="#BB0E3D"/>
<path d="M249.771 8.30627V10.5446H244.168V12.8605H249.201V14.9953H244.168V17.3242H249.939V19.5495H241.658V8.30627H249.771Z" fill="#BB0E3D"/>
<path d="M261.311 12.0454C261.311 13.8438 260.6 15.0082 259.177 15.5387L262.023 19.5625H258.931L256.434 15.9786H254.7V19.5625H252.19V8.31921H256.46C258.206 8.31921 259.461 8.61679 260.199 9.19901C260.936 9.78122 261.311 10.7386 261.311 12.0454ZM258.284 13.378C258.594 13.0934 258.75 12.6535 258.75 12.0454C258.75 11.4373 258.594 11.0233 258.271 10.8033C257.948 10.5834 257.391 10.4669 256.576 10.4669H254.7V13.792H256.537C257.391 13.792 257.973 13.6497 258.297 13.378H258.284Z" fill="#BB0E3D"/>
<path d="M268.13 8.30627H270.64V19.5495H268.13V8.30627Z" fill="#BB0E3D"/>
<path d="M281.275 8.30627H283.785V19.5495H281.275L275.919 12.4982V19.5495H273.409V8.30627H275.763L281.275 15.5387V8.30627Z" fill="#BB0E3D"/>
<path d="M289.18 10.5575C288.934 10.7516 288.818 11.0233 288.818 11.3467C288.818 11.6702 288.96 11.9289 289.258 12.123C289.555 12.3171 290.228 12.537 291.302 12.8087C292.376 13.0804 293.204 13.4686 293.786 13.9861C294.381 14.5166 294.666 15.2799 294.666 16.2891C294.666 17.2983 294.291 18.1134 293.527 18.7473C292.764 19.3813 291.781 19.6918 290.539 19.6918C288.753 19.6918 287.149 19.032 285.726 17.7123L287.227 15.8751C288.443 16.936 289.555 17.4664 290.59 17.4664C291.056 17.4664 291.418 17.3629 291.677 17.1689C291.936 16.9748 292.078 16.7031 292.078 16.3667C292.078 16.0303 291.936 15.7586 291.664 15.5645C291.393 15.3705 290.836 15.1635 290.008 14.9564C288.701 14.6459 287.744 14.2449 287.136 13.7403C286.528 13.2357 286.23 12.4594 286.23 11.3855C286.23 10.3117 286.618 9.49656 287.382 8.91434C288.145 8.33212 289.103 8.04749 290.254 8.04749C291.004 8.04749 291.755 8.17687 292.505 8.43563C293.256 8.69439 293.916 9.05666 294.472 9.53537L293.204 11.3726C292.234 10.6351 291.224 10.2599 290.176 10.2599C289.762 10.2599 289.426 10.3634 289.193 10.5575H289.18Z" fill="#BB0E3D"/>
<path d="M301.471 10.4799V19.5495H298.961V10.4799H295.779V8.30627H304.654V10.4799H301.471Z" fill="#BB0E3D"/>
<path d="M306.491 8.30627H309.001V19.5495H306.491V8.30627Z" fill="#BB0E3D"/>
<path d="M316.531 10.4799V19.5495H314.021V10.4799H310.839V8.30627H319.714V10.4799H316.531Z" fill="#BB0E3D"/>
<path d="M324.527 16.6514C324.941 17.1689 325.51 17.4277 326.222 17.4277C326.934 17.4277 327.49 17.1689 327.904 16.6514C328.318 16.1338 328.525 15.4222 328.525 14.5166V8.30627H331.035V14.5942C331.035 16.2244 330.582 17.4794 329.689 18.3463C328.784 19.2261 327.632 19.653 326.235 19.653C324.838 19.653 323.673 19.2131 322.768 18.3333C321.862 17.4535 321.409 16.1985 321.409 14.5813V8.29333H323.919V14.5036C323.919 15.4093 324.126 16.108 324.54 16.6384H324.527V16.6514Z" fill="#BB0E3D"/>
<path d="M338.397 10.4799V19.5495H335.887V10.4799H332.704V8.30627H341.58V10.4799H338.397Z" fill="#BB0E3D"/>
<path d="M351.529 8.30627V10.5446H345.927V12.8605H350.96V14.9953H345.927V17.3242H351.697V19.5495H343.417V8.30627H351.529Z" fill="#BB0E3D"/>
<path d="M101.137 38.9955C101.137 34.4931 104.592 31.2715 109.25 31.2715C111.837 31.2715 113.985 32.203 115.395 33.9109L113.17 35.9551C112.161 34.8036 110.906 34.2084 109.418 34.2084C106.623 34.2084 104.644 36.175 104.644 38.9955C104.644 41.8161 106.623 43.7827 109.418 43.7827C110.906 43.7827 112.174 43.1875 113.17 42.0101L115.395 44.0544C113.985 45.7881 111.837 46.7196 109.224 46.7196C104.592 46.7196 101.137 43.498 101.137 38.9955Z" fill="#606061"/>
<path d="M129.226 39.8882V46.4608H125.901V40.3928C125.901 38.5426 125.047 37.6887 123.572 37.6887C121.968 37.6887 120.816 38.672 120.816 40.7809V46.4608H117.491V30.6245H120.816V36.175C121.709 35.2822 122.99 34.8165 124.465 34.8165C127.169 34.8165 129.226 36.3949 129.226 39.9012V39.8882Z" fill="#606061"/>
<path d="M131.84 31.5173C131.84 30.4693 132.668 29.6542 133.91 29.6542C135.152 29.6542 135.98 30.4175 135.98 31.4526C135.98 32.5653 135.152 33.3674 133.91 33.3674C132.668 33.3674 131.84 32.5523 131.84 31.5043V31.5173ZM132.241 34.9717H135.566V46.4608H132.241V34.9717Z" fill="#606061"/>
<path d="M138.671 30.6245H141.996V46.4608H138.671V30.6245Z" fill="#606061"/>
<path d="M156.797 30.6245V46.4608H153.614V45.1411C152.786 46.1503 151.57 46.629 150.031 46.629C146.783 46.629 144.286 44.326 144.286 40.7163C144.286 37.1065 146.783 34.8035 150.031 34.8035C151.441 34.8035 152.631 35.2564 153.472 36.1879V30.6116H156.797V30.6245ZM153.537 40.7163C153.537 38.7367 152.256 37.5335 150.613 37.5335C148.97 37.5335 147.663 38.7238 147.663 40.7163C147.663 42.7087 148.944 43.899 150.613 43.899C152.282 43.899 153.537 42.7087 153.537 40.7163Z" fill="#606061"/>
<path d="M171.611 39.8882V46.4608H168.286V40.3928C168.286 38.5426 167.432 37.6887 165.957 37.6887C164.353 37.6887 163.202 38.672 163.202 40.7809V46.4608H159.877V30.6245H163.202V36.175C164.094 35.2822 165.375 34.8165 166.85 34.8165C169.554 34.8165 171.611 36.3949 171.611 39.9012V39.8882Z" fill="#606061"/>
<path d="M173.85 40.7162C173.85 37.2617 176.515 34.8035 180.163 34.8035C183.812 34.8035 186.464 37.2617 186.464 40.7162C186.464 44.1707 183.812 46.6289 180.163 46.6289C176.515 46.6289 173.85 44.1707 173.85 40.7162ZM183.087 40.7162C183.087 38.7367 181.833 37.5334 180.163 37.5334C178.494 37.5334 177.214 38.7237 177.214 40.7162C177.214 42.7087 178.494 43.899 180.163 43.899C181.833 43.899 183.087 42.7087 183.087 40.7162Z" fill="#606061"/>
<path d="M187.836 40.7162C187.836 37.2617 190.501 34.8035 194.15 34.8035C197.798 34.8035 200.45 37.2617 200.45 40.7162C200.45 44.1707 197.798 46.6289 194.15 46.6289C190.501 46.6289 187.836 44.1707 187.836 40.7162ZM197.074 40.7162C197.074 38.7367 195.819 37.5334 194.15 37.5334C192.481 37.5334 191.2 38.7237 191.2 40.7162C191.2 42.7087 192.481 43.899 194.15 43.899C195.819 43.899 197.074 42.7087 197.074 40.7162Z" fill="#606061"/>
<path d="M214.359 30.6245V46.4608H211.176V45.1411C210.348 46.1503 209.132 46.629 207.592 46.629C204.345 46.629 201.848 44.326 201.848 40.7163C201.848 37.1065 204.345 34.8035 207.592 34.8035C209.003 34.8035 210.193 35.2564 211.034 36.1879V30.6116H214.359V30.6245ZM211.099 40.7163C211.099 38.7367 209.818 37.5335 208.175 37.5335C206.531 37.5335 205.225 38.7238 205.225 40.7163C205.225 42.7087 206.506 43.899 208.175 43.899C209.844 43.899 211.099 42.7087 211.099 40.7163Z" fill="#606061"/>
<path d="M222.782 38.9955C222.782 34.4931 226.236 31.2715 230.894 31.2715C233.482 31.2715 235.629 32.203 237.04 33.9109L234.814 35.9551C233.805 34.8036 232.55 34.2084 231.062 34.2084C228.267 34.2084 226.288 36.175 226.288 38.9955C226.288 41.8161 228.267 43.7827 231.062 43.7827C232.55 43.7827 233.818 43.1875 234.814 42.0101L237.04 44.0544C235.629 45.7881 233.482 46.7196 230.868 46.7196C226.236 46.7196 222.782 43.498 222.782 38.9955Z" fill="#606061"/>
<path d="M249.201 39.9142V46.4608H246.083V45.0247C245.462 46.0727 244.272 46.629 242.577 46.629C239.886 46.629 238.282 45.1412 238.282 43.1487C238.282 41.1562 239.705 39.7071 243.211 39.7071H245.863C245.863 38.271 245.009 37.443 243.211 37.443C241.995 37.443 240.74 37.844 239.899 38.5039L238.709 36.175C239.964 35.2823 241.827 34.7906 243.664 34.7906C247.17 34.7906 249.188 36.4079 249.188 39.8883L249.201 39.9142ZM245.876 42.8382V41.6608H243.599C242.047 41.6608 241.555 42.243 241.555 43.0064C241.555 43.8344 242.254 44.3907 243.431 44.3907C244.544 44.3907 245.501 43.8732 245.889 42.8252L245.876 42.8382Z" fill="#606061"/>
<path d="M263.951 39.8883V46.4608H260.626V40.3929C260.626 38.5427 259.772 37.6888 258.297 37.6888C256.693 37.6888 255.541 38.6721 255.541 40.781V46.4608H252.216V34.9718H255.399V36.3174C256.291 35.3341 257.637 34.8036 259.203 34.8036C261.907 34.8036 263.964 36.382 263.964 39.8883H263.951Z" fill="#606061"/>
<path d="M266.202 40.7163C266.202 37.2618 268.867 34.8036 272.606 34.8036C275.013 34.8036 276.915 35.8516 277.756 37.7276L275.168 39.112C274.547 38.0252 273.629 37.5335 272.581 37.5335C270.899 37.5335 269.566 38.7109 269.566 40.7163C269.566 42.7217 270.886 43.8991 272.581 43.8991C273.629 43.8991 274.547 43.4333 275.168 42.3206L277.756 43.7309C276.928 45.5681 275.026 46.629 272.606 46.629C268.867 46.629 266.202 44.1708 266.202 40.7163Z" fill="#606061"/>
<path d="M290.707 41.6608H282.025C282.349 43.084 283.565 43.9638 285.312 43.9638C286.528 43.9638 287.408 43.6015 288.197 42.8511L289.969 44.7789C288.909 45.9951 287.304 46.629 285.234 46.629C281.262 46.629 278.687 44.132 278.687 40.7163C278.687 37.3006 281.314 34.8036 284.807 34.8036C288.3 34.8036 290.785 37.0678 290.785 40.7551C290.785 41.0139 290.746 41.3762 290.72 41.6479L290.707 41.6608ZM281.974 39.7201H287.628C287.395 38.271 286.308 37.3265 284.807 37.3265C283.306 37.3265 282.207 38.2451 281.974 39.7201Z" fill="#606061"/>
<path d="M300.126 34.8036V37.8829C299.854 37.857 299.634 37.8441 299.375 37.8441C297.538 37.8441 296.322 38.8532 296.322 41.0398V46.4608H292.997V34.9718H296.18V36.4855C296.995 35.3729 298.353 34.8036 300.126 34.8036Z" fill="#606061"/>
<path d="M308.471 31.5172H315.263C320.154 31.5172 323.505 34.4671 323.505 38.9825C323.505 43.4979 320.154 46.4478 315.263 46.4478H308.471V31.5043V31.5172ZM315.082 43.6144C318.045 43.6144 319.986 41.8418 319.986 38.9825C319.986 36.1232 318.045 34.3507 315.082 34.3507H311.925V43.6144H315.082Z" fill="#606061"/>
<path d="M336.029 39.9142V46.4608H332.911V45.0247C332.29 46.0727 331.1 46.629 329.405 46.629C326.714 46.629 325.109 45.1412 325.109 43.1487C325.109 41.1562 326.533 39.7071 330.039 39.7071H332.691C332.691 38.271 331.837 37.443 330.039 37.443C328.823 37.443 327.568 37.844 326.727 38.5039L325.536 36.175C326.791 35.2823 328.654 34.7906 330.492 34.7906C333.998 34.7906 336.016 36.4079 336.016 39.8883L336.029 39.9142ZM332.704 42.8382V41.6608H330.427C328.874 41.6608 328.383 42.243 328.383 43.0064C328.383 43.8344 329.081 44.3907 330.259 44.3907C331.371 44.3907 332.329 43.8732 332.717 42.8252L332.704 42.8382Z" fill="#606061"/>
<path d="M346.444 45.9045C345.759 46.3962 344.762 46.629 343.74 46.629C341.036 46.629 339.445 45.2447 339.445 42.5147V37.8052H337.672V35.2435H339.445V32.4489H342.77V35.2435H345.629V37.8052H342.77V42.4759C342.77 43.4592 343.3 43.9897 344.193 43.9897C344.685 43.9897 345.176 43.8344 345.539 43.5627L346.431 45.9045H346.444Z" fill="#606061"/>
<path d="M358.49 39.9142V46.4608H355.372V45.0247C354.751 46.0727 353.56 46.629 351.865 46.629C349.174 46.629 347.57 45.1412 347.57 43.1487C347.57 41.1562 348.993 39.7071 352.499 39.7071H355.152C355.152 38.271 354.298 37.443 352.499 37.443C351.283 37.443 350.028 37.844 349.187 38.5039L347.997 36.175C349.252 35.2823 351.115 34.7906 352.952 34.7906C356.458 34.7906 358.477 36.4079 358.477 39.8883L358.49 39.9142ZM355.165 42.8382V41.6608H352.888C351.335 41.6608 350.843 42.243 350.843 43.0064C350.843 43.8344 351.542 44.3907 352.719 44.3907C353.832 44.3907 354.789 43.8732 355.178 42.8252L355.165 42.8382Z" fill="#606061"/>
<path d="M367.779 31.5172H371.234V46.4608H367.779V31.5172Z" fill="#606061"/>
<path d="M386.281 39.8883V46.4608H382.956V40.3929C382.956 38.5427 382.102 37.6888 380.627 37.6888C379.023 37.6888 377.871 38.6721 377.871 40.781V46.4608H374.546V34.9718H377.729V36.3174C378.622 35.3341 379.967 34.8036 381.533 34.8036C384.237 34.8036 386.294 36.382 386.294 39.8883H386.281Z" fill="#606061"/>
<path d="M388.894 31.5173C388.894 30.4693 389.722 29.6542 390.964 29.6542C392.207 29.6542 393.035 30.4175 393.035 31.4526C393.035 32.5653 392.207 33.3674 390.964 33.3674C389.722 33.3674 388.894 32.5523 388.894 31.5043V31.5173ZM389.295 34.9717H392.621V46.4608H389.295V34.9717Z" fill="#606061"/>
<path d="M403.126 45.9045C402.441 46.3962 401.444 46.629 400.422 46.629C397.718 46.629 396.127 45.2447 396.127 42.5147V37.8052H394.354V35.2435H396.127V32.4489H399.452V35.2435H402.311V37.8052H399.452V42.4759C399.452 43.4592 399.982 43.9897 400.875 43.9897C401.367 43.9897 401.858 43.8344 402.221 43.5627L403.113 45.9045H403.126Z" fill="#606061"/>
<path d="M404.601 31.5173C404.601 30.4693 405.429 29.6542 406.671 29.6542C407.913 29.6542 408.742 30.4175 408.742 31.4526C408.742 32.5653 407.913 33.3674 406.671 33.3674C405.429 33.3674 404.601 32.5523 404.601 31.5043V31.5173ZM405.002 34.9717H408.328V46.4608H405.002V34.9717Z" fill="#606061"/>
<path d="M421.589 39.9142V46.4608H418.471V45.0247C417.85 46.0727 416.66 46.629 414.965 46.629C412.274 46.629 410.669 45.1412 410.669 43.1487C410.669 41.1562 412.105 39.7071 415.599 39.7071H418.238C418.238 38.271 417.384 37.443 415.599 37.443C414.383 37.443 413.128 37.844 412.287 38.5039L411.096 36.175C412.351 35.2823 414.214 34.7906 416.052 34.7906C419.558 34.7906 421.576 36.4079 421.576 39.8883L421.589 39.9142ZM418.264 42.8382V41.6608H415.987C414.434 41.6608 413.943 42.243 413.943 43.0064C413.943 43.8344 414.641 44.3907 415.819 44.3907C416.931 44.3907 417.889 43.8732 418.277 42.8252L418.264 42.8382Z" fill="#606061"/>
<path d="M432.004 45.9045C431.319 46.3962 430.322 46.629 429.3 46.629C426.596 46.629 425.005 45.2447 425.005 42.5147V37.8052H423.232V35.2435H425.005V32.4489H428.33V35.2435H431.189V37.8052H428.33V42.4759C428.33 43.4592 428.86 43.9897 429.753 43.9897C430.245 43.9897 430.736 43.8344 431.099 43.5627L431.991 45.9045H432.004Z" fill="#606061"/>
<path d="M433.479 31.5173C433.479 30.4693 434.307 29.6542 435.549 29.6542C436.791 29.6542 437.619 30.4175 437.619 31.4526C437.619 32.5653 436.791 33.3674 435.549 33.3674C434.307 33.3674 433.479 32.5523 433.479 31.5043V31.5173ZM433.88 34.9717H437.205V46.4608H433.88V34.9717Z" fill="#606061"/>
<path d="M451.709 34.9847L446.87 46.4738H443.429L438.603 34.9847H442.044L445.227 42.7994L448.513 34.9847H451.709Z" fill="#606061"/>
<path d="M463.936 41.6607H455.254C455.577 43.0839 456.794 43.9637 458.54 43.9637C459.757 43.9637 460.636 43.6014 461.426 42.851L463.198 44.7788C462.137 45.995 460.533 46.6289 458.463 46.6289C454.491 46.6289 451.916 44.1319 451.916 40.7162C451.916 37.3005 454.542 34.8035 458.036 34.8035C461.529 34.8035 464.013 37.0676 464.013 40.755C464.013 41.0138 463.974 41.376 463.948 41.6477L463.936 41.6607ZM455.202 39.72H460.856C460.623 38.2709 459.537 37.3264 458.036 37.3264C456.535 37.3264 455.435 38.245 455.202 39.72Z" fill="#606061"/>
<path d="M486.202 31.5172V46.4608H482.748V40.341H475.955V46.4608H472.501V31.5172H475.955V37.4041H482.748V31.5172H486.202Z" fill="#606061"/>
<path d="M501.081 34.9846V46.4737H497.924V45.1022C497.044 46.1114 495.763 46.6419 494.366 46.6419C491.481 46.6419 489.462 45.0246 489.462 41.4796V34.9846H492.788V40.975C492.788 42.8898 493.641 43.7437 495.116 43.7437C496.591 43.7437 497.756 42.7604 497.756 40.6515V34.9717H501.081V34.9846Z" fill="#606061"/>
<path d="M516.684 40.7163C516.684 44.326 514.187 46.629 510.966 46.629C509.426 46.629 508.197 46.1373 507.356 45.1411V46.4608H504.173V30.6245H507.498V36.2008C508.352 35.2564 509.53 34.8165 510.953 34.8165C514.174 34.8165 516.671 37.1195 516.671 40.7292L516.684 40.7163ZM513.307 40.7163C513.307 38.7367 512.052 37.5335 510.383 37.5335C508.714 37.5335 507.459 38.7238 507.459 40.7163C507.459 42.7087 508.714 43.899 510.383 43.899C512.052 43.899 513.307 42.7087 513.307 40.7163Z" fill="#606061"/>
</g>
<defs>
<clipPath id="clip0_2802_4395">
<rect width="516.684" height="55" fill="white"/>
</clipPath>
</defs>
</svg>
