<svg width="243" height="243" viewBox="0 0 243 243" fill="none" xmlns="http://www.w3.org/2000/svg">
<path d="M222.91 0.592072H20.3495C9.61366 0.592072 0.851318 9.35441 0.851318 20.0903V51.2716C0.851318 53.403 2.588 55.1791 4.75885 55.1791H238.54C240.671 55.1791 242.447 53.4424 242.447 51.2716V20.0903C242.447 9.35441 233.685 0.592072 222.949 0.592072H222.91ZM8.62691 47.364V20.0903C8.62691 13.6566 13.8764 8.40714 20.31 8.40714H222.91C229.343 8.40714 234.593 13.6566 234.593 20.0903V47.364H8.62691Z" fill="white"/>
<path d="M238.5 47.3641H4.75885C2.62747 47.3641 0.851318 49.1007 0.851318 51.2716V222.69C0.851318 233.426 9.57419 242.188 20.3495 242.188H222.949C233.685 242.188 242.447 233.426 242.447 222.69V51.2321C242.447 49.1007 240.711 47.3246 238.54 47.3246L238.5 47.3641ZM234.593 222.69C234.593 229.123 229.343 234.373 222.91 234.373H20.3495C13.9159 234.373 8.66638 229.123 8.66638 222.69V55.1396H234.632V222.69H234.593Z" fill="white"/>
<path d="M8.62695 55.1396V222.69C8.62695 229.123 13.8765 234.373 20.3101 234.373H222.91C229.343 234.373 234.593 229.123 234.593 222.69V55.1396H8.62695ZM103.71 105.78C103.71 95.9122 111.762 87.8603 121.63 87.8603C131.497 87.8603 139.549 95.9122 139.549 105.78V127.607C139.549 137.474 131.497 145.526 121.63 145.526C111.762 145.526 103.71 137.474 103.71 127.607V105.78ZM106.039 163.445C106.039 165.577 104.302 167.353 102.131 167.353H63.1745C61.0431 167.353 59.267 165.616 59.267 163.445C59.267 161.275 61.0037 159.538 63.1745 159.538H102.131C104.263 159.538 106.039 161.275 106.039 163.445ZM58.517 91.7678C58.517 89.6364 60.2537 87.8603 62.4246 87.8603C64.5954 87.8603 66.3321 89.597 66.3321 91.7678V122.16H81.9228V91.7678C81.9228 89.6364 83.6594 87.8603 85.8303 87.8603C88.0012 87.8603 89.7378 89.597 89.7378 91.7678V141.618C89.7378 143.75 88.0012 145.526 85.8303 145.526C83.6594 145.526 81.9228 143.789 81.9228 141.618V129.935H62.4246C60.2932 129.935 58.517 128.199 58.517 126.028V91.7284V91.7678ZM85.1988 201.652H63.1745C61.0431 201.652 59.267 199.916 59.267 197.745C59.267 195.574 61.0037 193.837 63.1745 193.837H85.1988C87.3302 193.837 89.1063 195.574 89.1063 197.745C89.1063 199.916 87.3696 201.652 85.1988 201.652ZM133.313 201.652H102.842C100.71 201.652 98.9343 199.916 98.9343 197.745C98.9343 195.574 100.671 193.837 102.842 193.837H133.313C135.444 193.837 137.22 195.574 137.22 197.745C137.22 199.916 135.484 201.652 133.313 201.652ZM148.903 184.522H63.1745C61.0431 184.522 59.267 182.786 59.267 180.615C59.267 178.444 61.0037 176.707 63.1745 176.707H148.903C151.035 176.707 152.811 178.444 152.811 180.615C152.811 182.786 151.074 184.522 148.903 184.522ZM184.742 141.658C184.742 143.789 183.005 145.565 180.835 145.565C178.664 145.565 176.927 143.829 176.927 141.658V129.975H157.429C155.298 129.975 153.521 128.238 153.521 126.067V91.7678C153.521 89.6364 155.258 87.8603 157.429 87.8603C159.6 87.8603 161.336 89.597 161.336 91.7678V122.16H176.927V91.7678C176.927 89.6364 178.664 87.8603 180.835 87.8603C183.005 87.8603 184.742 89.597 184.742 91.7678V141.618V141.658Z" fill="white"/>
<path d="M34.3613 31.7734H28.1251C25.9542 31.7734 24.2175 30.0367 24.2175 27.8658C24.2175 25.695 25.9542 23.9583 28.1251 23.9583H34.3613C36.5322 23.9583 38.2689 25.695 38.2689 27.8658C38.2689 30.0367 36.5322 31.7734 34.3613 31.7734Z" fill="white"/>
<path d="M57.7275 31.7734H51.4913C49.3204 31.7734 47.5837 30.0367 47.5837 27.8658C47.5837 25.695 49.3204 23.9583 51.4913 23.9583H57.7275C59.8984 23.9583 61.6351 25.695 61.6351 27.8658C61.6351 30.0367 59.8984 31.7734 57.7275 31.7734Z" fill="white"/>
<path d="M81.094 31.7734H74.8577C72.6869 31.7734 70.9502 30.0367 70.9502 27.8658C70.9502 25.695 72.6869 23.9583 74.8577 23.9583H81.094C83.2648 23.9583 85.0015 25.695 85.0015 27.8658C85.0015 30.0367 83.2648 31.7734 81.094 31.7734Z" fill="white"/>
<path d="M238.5 55.7317H4.75886C2.27225 55.7317 0.259277 53.7187 0.259277 51.2321V20.0508C0.259277 8.99918 9.25844 -0.0394592 20.3495 -0.0394592H222.949C234.001 -0.0394592 243.039 8.95971 243.039 20.0508V51.2321C243.039 53.7187 241.026 55.7317 238.54 55.7317H238.5ZM20.3495 1.18411C9.92943 1.18411 1.44338 9.67017 1.44338 20.0903V51.2716C1.44338 53.0872 2.94324 54.587 4.75886 54.587H238.54C240.355 54.587 241.855 53.0872 241.855 51.2716V20.0903C241.855 9.67017 233.369 1.18411 222.949 1.18411H20.3495ZM234.632 47.9561H8.62692C8.31116 47.9561 8.03487 47.6798 8.03487 47.364V20.0903C8.03487 13.3014 13.5607 7.81507 20.31 7.81507H222.91C229.698 7.81507 235.185 13.3409 235.185 20.0903V47.364C235.185 47.6798 234.908 47.9561 234.593 47.9561H234.632ZM9.25844 46.772H234.04V20.0903C234.04 13.9724 229.067 8.99917 222.949 8.99917H20.3495C14.2317 8.99917 9.25844 13.9724 9.25844 20.0903V46.772Z" fill="white"/>
<path d="M222.91 242.741H20.3495C9.29791 242.741 0.259277 233.741 0.259277 222.65V51.2321C0.259277 48.7455 2.27225 46.7325 4.75886 46.7325H238.54C241.026 46.7325 243.039 48.7455 243.039 51.2321V222.65C243.039 233.702 234.04 242.741 222.949 242.741H222.91ZM4.75886 47.9561C2.94324 47.9561 1.44338 49.4559 1.44338 51.2716V222.69C1.44338 233.11 9.92943 241.596 20.3495 241.596H222.949C233.369 241.596 241.855 233.11 241.855 222.69V51.2321C241.855 49.4165 240.355 47.9166 238.54 47.9166H4.75886V47.9561ZM222.949 234.965H20.3495C13.5607 234.965 8.07434 229.439 8.07434 222.69V55.1396C8.07434 54.8239 8.35063 54.5476 8.66639 54.5476H234.632C234.948 54.5476 235.224 54.8239 235.224 55.1396V222.69C235.224 229.479 229.698 234.965 222.949 234.965ZM9.21897 55.7317V222.69C9.21897 228.808 14.1922 233.781 20.31 233.781H222.91C229.027 233.781 234.001 228.808 234.001 222.69V55.7317H9.21897Z" fill="white"/>
<path d="M222.91 234.965H20.3496C13.5608 234.965 8.07446 229.439 8.07446 222.69V55.1396C8.07446 54.8239 8.35075 54.5476 8.66651 54.5476H234.632C234.948 54.5476 235.224 54.8239 235.224 55.1396V222.69C235.224 229.479 229.699 234.965 222.949 234.965H222.91ZM9.21909 55.7317V222.69C9.21909 228.808 14.1923 233.781 20.3102 233.781H222.91C229.028 233.781 234.001 228.808 234.001 222.69V55.7317H9.21909ZM133.313 202.205H102.842C100.355 202.205 98.3424 200.192 98.3424 197.705C98.3424 195.219 100.355 193.206 102.842 193.206H133.313C135.799 193.206 137.812 195.219 137.812 197.705C137.812 200.192 135.799 202.205 133.313 202.205ZM102.842 194.429C101.026 194.429 99.5265 195.929 99.5265 197.745C99.5265 199.56 101.026 201.06 102.842 201.06H133.313C135.128 201.06 136.628 199.56 136.628 197.745C136.628 195.929 135.128 194.429 133.313 194.429H102.842ZM85.1594 202.205H63.1746C60.688 202.205 58.675 200.192 58.675 197.705C58.675 195.219 60.688 193.206 63.1746 193.206H85.1594C87.646 193.206 89.659 195.219 89.659 197.705C89.659 200.192 87.646 202.205 85.1594 202.205ZM63.1746 194.429C61.359 194.429 59.8591 195.929 59.8591 197.745C59.8591 199.56 61.359 201.06 63.1746 201.06H85.1594C86.975 201.06 88.4749 199.56 88.4749 197.745C88.4749 195.929 86.975 194.429 85.1594 194.429H63.1746ZM148.903 185.075H63.1746C60.688 185.075 58.675 183.062 58.675 180.575C58.675 178.089 60.688 176.076 63.1746 176.076H148.903C151.39 176.076 153.403 178.089 153.403 180.575C153.403 183.062 151.39 185.075 148.903 185.075ZM63.1746 177.299C61.359 177.299 59.8591 178.799 59.8591 180.615C59.8591 182.43 61.359 183.93 63.1746 183.93H148.903C150.719 183.93 152.219 182.43 152.219 180.615C152.219 178.799 150.719 177.299 148.903 177.299H63.1746ZM102.132 167.945H63.1746C60.688 167.945 58.675 165.932 58.675 163.445C58.675 160.959 60.688 158.946 63.1746 158.946H102.132C104.618 158.946 106.631 160.959 106.631 163.445C106.631 165.932 104.618 167.945 102.132 167.945ZM63.1746 160.169C61.359 160.169 59.8591 161.669 59.8591 163.485C59.8591 165.3 61.359 166.8 63.1746 166.8H102.132C103.947 166.8 105.447 165.3 105.447 163.485C105.447 161.669 103.947 160.169 102.132 160.169H63.1746ZM180.835 146.157C178.348 146.157 176.335 144.145 176.335 141.658V130.567H157.429C154.942 130.567 152.929 128.554 152.929 126.067V91.7678C152.929 89.2812 154.942 87.2682 157.429 87.2682C159.916 87.2682 161.929 89.2812 161.929 91.7678V121.568H176.335V91.7678C176.335 89.2812 178.348 87.2682 180.835 87.2682C183.321 87.2682 185.334 89.2812 185.334 91.7678V141.618C185.334 144.105 183.321 146.118 180.835 146.118V146.157ZM157.468 88.4918C155.653 88.4918 154.153 89.9917 154.153 91.8073V126.107C154.153 127.922 155.653 129.422 157.468 129.422H176.967C177.282 129.422 177.559 129.698 177.559 130.014V141.697C177.559 143.513 179.059 145.013 180.874 145.013C182.69 145.013 184.19 143.513 184.19 141.697V91.8467C184.19 90.0311 182.69 88.5313 180.874 88.5313C179.059 88.5313 177.559 90.0311 177.559 91.8467V122.239C177.559 122.554 177.282 122.831 176.967 122.831H161.376C161.06 122.831 160.784 122.554 160.784 122.239V91.8467C160.784 90.0311 159.284 88.5313 157.468 88.5313V88.4918ZM121.63 146.157C111.407 146.157 103.118 137.869 103.118 127.646V105.819C103.118 95.5964 111.407 87.3077 121.63 87.3077C131.852 87.3077 140.141 95.5964 140.141 105.819V127.646C140.141 137.869 131.852 146.157 121.63 146.157ZM121.63 88.4918C112.078 88.4918 104.302 96.2674 104.302 105.819V127.646C104.302 137.198 112.078 144.973 121.63 144.973C131.181 144.973 138.957 137.198 138.957 127.646V105.819C138.957 96.2674 131.181 88.4918 121.63 88.4918ZM85.7909 146.157C83.3043 146.157 81.2913 144.145 81.2913 141.658V130.567H62.3852C59.8986 130.567 57.8856 128.554 57.8856 126.067V91.7678C57.8856 89.2812 59.8986 87.2682 62.3852 87.2682C64.8718 87.2682 66.8848 89.2812 66.8848 91.7678V121.568H81.2913V91.7678C81.2913 89.2812 83.3043 87.2682 85.7909 87.2682C88.2775 87.2682 90.2905 89.2812 90.2905 91.7678V141.618C90.2905 144.105 88.2775 146.118 85.7909 146.118V146.157ZM62.4247 88.4918C60.6091 88.4918 59.1092 89.9917 59.1092 91.8073V126.107C59.1092 127.922 60.6091 129.422 62.4247 129.422H81.9229C82.2386 129.422 82.5149 129.698 82.5149 130.014V141.697C82.5149 143.513 84.0148 145.013 85.8304 145.013C87.646 145.013 89.1459 143.513 89.1459 141.697V91.8467C89.1459 90.0311 87.646 88.5313 85.8304 88.5313C84.0148 88.5313 82.5149 90.0311 82.5149 91.8467V122.239C82.5149 122.554 82.2386 122.831 81.9229 122.831H66.3322C66.0164 122.831 65.7402 122.554 65.7402 122.239V91.8467C65.7402 90.0311 64.2403 88.5313 62.4247 88.5313V88.4918Z" fill="white"/>
<path d="M34.3613 32.3654H28.1251C25.6385 32.3654 23.6255 30.3525 23.6255 27.8659C23.6255 25.3792 25.6385 23.3663 28.1251 23.3663H34.3613C36.8479 23.3663 38.8609 25.3792 38.8609 27.8659C38.8609 30.3525 36.8479 32.3654 34.3613 32.3654ZM28.1251 24.5898C26.3094 24.5898 24.8096 26.0897 24.8096 27.9053C24.8096 29.7209 26.3094 31.2208 28.1251 31.2208H34.3613C36.177 31.2208 37.6768 29.7209 37.6768 27.9053C37.6768 26.0897 36.177 24.5898 34.3613 24.5898H28.1251Z" fill="white"/>
<path d="M57.7275 32.3654H51.4913C49.0047 32.3654 46.9917 30.3525 46.9917 27.8659C46.9917 25.3792 49.0047 23.3663 51.4913 23.3663H57.7275C60.2142 23.3663 62.2271 25.3792 62.2271 27.8659C62.2271 30.3525 60.2142 32.3654 57.7275 32.3654ZM51.4913 24.5898C49.6757 24.5898 48.1758 26.0897 48.1758 27.9053C48.1758 29.7209 49.6757 31.2208 51.4913 31.2208H57.7275C59.5432 31.2208 61.043 29.7209 61.043 27.9053C61.043 26.0897 59.5432 24.5898 57.7275 24.5898H51.4913Z" fill="white"/>
<path d="M81.0938 32.3654H74.8575C72.3709 32.3654 70.3579 30.3525 70.3579 27.8659C70.3579 25.3792 72.3709 23.3663 74.8575 23.3663H81.0938C83.5804 23.3663 85.5933 25.3792 85.5933 27.8659C85.5933 30.3525 83.5804 32.3654 81.0938 32.3654ZM74.8575 24.5898C73.0419 24.5898 71.542 26.0897 71.542 27.9053C71.542 29.7209 73.0419 31.2208 74.8575 31.2208H81.0938C82.9094 31.2208 84.4092 29.7209 84.4092 27.9053C84.4092 26.0897 82.9094 24.5898 81.0938 24.5898H74.8575Z" fill="white"/>
<path d="M222.12 1.38147H19.5602C8.82436 1.38147 0.0620117 10.1438 0.0620117 20.8797V52.061C0.0620117 54.1923 1.7987 55.9685 3.96955 55.9685H237.75C239.882 55.9685 241.658 54.2318 241.658 52.061V20.8797C241.658 10.1438 232.896 1.38147 222.16 1.38147H222.12ZM7.8376 48.1534V20.8797C7.8376 14.446 13.0871 9.19653 19.5207 9.19653H222.12C228.554 9.19653 233.803 14.446 233.803 20.8797V48.1534H7.8376Z" fill="url(#paint0_linear_4867_9289)"/>
<path d="M237.711 48.1534H3.96955C1.83817 48.1534 0.0620117 49.8901 0.0620117 52.061V223.479C0.0620117 234.215 8.82436 242.977 19.5602 242.977H222.16C232.896 242.977 241.658 234.215 241.658 223.479V52.0215C241.658 49.8901 239.921 48.114 237.75 48.114L237.711 48.1534ZM233.803 223.479C233.803 229.913 228.554 235.162 222.12 235.162H19.5602C13.1266 235.162 7.87708 229.913 7.87708 223.479V55.929H233.843V223.479H233.803Z" fill="url(#paint1_linear_4867_9289)"/>
<path d="M7.83765 55.929V223.479C7.83765 229.913 13.0872 235.162 19.5208 235.162H222.12C228.554 235.162 233.804 229.913 233.804 223.479V55.929H7.83765ZM102.921 106.569C102.921 96.7015 110.973 88.6497 120.84 88.6497C130.708 88.6497 138.76 96.7015 138.76 106.569V128.396C138.76 138.263 130.708 146.315 120.84 146.315C110.973 146.315 102.921 138.263 102.921 128.396V106.569ZM105.25 164.235C105.25 166.366 103.513 168.142 101.342 168.142H62.3852C60.2538 168.142 58.4777 166.406 58.4777 164.235C58.4777 162.064 60.2144 160.327 62.3852 160.327H101.342C103.474 160.327 105.25 162.064 105.25 164.235ZM57.7277 92.5572C57.7277 90.4258 59.4644 88.6497 61.6353 88.6497C63.8061 88.6497 65.5428 90.3863 65.5428 92.5572V122.949H81.1335V92.5572C81.1335 90.4258 82.8702 88.6497 85.041 88.6497C87.2119 88.6497 88.9485 90.3863 88.9485 92.5572V142.408C88.9485 144.539 87.2119 146.315 85.041 146.315C82.8702 146.315 81.1335 144.579 81.1335 142.408V130.725H61.6353C59.5039 130.725 57.7277 128.988 57.7277 126.817V92.5177V92.5572ZM84.4095 202.442H62.3852C60.2538 202.442 58.4777 200.705 58.4777 198.534C58.4777 196.363 60.2144 194.627 62.3852 194.627H84.4095C86.5409 194.627 88.317 196.363 88.317 198.534C88.317 200.705 86.5803 202.442 84.4095 202.442ZM132.523 202.442H102.053C99.9212 202.442 98.1451 200.705 98.1451 198.534C98.1451 196.363 99.8817 194.627 102.053 194.627H132.523C134.655 194.627 136.431 196.363 136.431 198.534C136.431 200.705 134.694 202.442 132.523 202.442ZM148.114 185.312H62.3852C60.2538 185.312 58.4777 183.575 58.4777 181.404C58.4777 179.233 60.2144 177.497 62.3852 177.497H148.114C150.245 177.497 152.022 179.233 152.022 181.404C152.022 183.575 150.285 185.312 148.114 185.312ZM183.953 142.447C183.953 144.579 182.216 146.355 180.045 146.355C177.874 146.355 176.138 144.618 176.138 142.447V130.764H156.64C154.508 130.764 152.732 129.027 152.732 126.857V92.5572C152.732 90.4258 154.469 88.6497 156.64 88.6497C158.81 88.6497 160.547 90.3863 160.547 92.5572V122.949H176.138V92.5572C176.138 90.4258 177.874 88.6497 180.045 88.6497C182.216 88.6497 183.953 90.3863 183.953 92.5572V142.408V142.447Z" fill="url(#paint2_linear_4867_9289)"/>
<path d="M33.572 32.5628H27.3358C25.1649 32.5628 23.4282 30.8261 23.4282 28.6552C23.4282 26.4844 25.1649 24.7477 27.3358 24.7477H33.572C35.7429 24.7477 37.4795 26.4844 37.4795 28.6552C37.4795 30.8261 35.7429 32.5628 33.572 32.5628Z" fill="url(#paint3_linear_4867_9289)"/>
<path d="M56.9382 32.5628H50.702C48.5311 32.5628 46.7944 30.8261 46.7944 28.6552C46.7944 26.4844 48.5311 24.7477 50.702 24.7477H56.9382C59.1091 24.7477 60.8458 26.4844 60.8458 28.6552C60.8458 30.8261 59.1091 32.5628 56.9382 32.5628Z" fill="url(#paint4_linear_4867_9289)"/>
<path d="M80.3044 32.5628H74.0682C71.8973 32.5628 70.1606 30.8261 70.1606 28.6552C70.1606 26.4844 71.8973 24.7477 74.0682 24.7477H80.3044C82.4753 24.7477 84.212 26.4844 84.212 28.6552C84.212 30.8261 82.4753 32.5628 80.3044 32.5628Z" fill="url(#paint5_linear_4867_9289)"/>
<defs>
<linearGradient id="paint0_linear_4867_9289" x1="-38.6975" y1="192.772" x2="191.452" y2="-37.3781" gradientUnits="userSpaceOnUse">
<stop stop-color="#FEFEFE"/>
<stop offset="1" stop-color="#C2D6DF"/>
</linearGradient>
<linearGradient id="paint1_linear_4867_9289" x1="15.179" y1="246.609" x2="245.289" y2="16.4985" gradientUnits="userSpaceOnUse">
<stop stop-color="#FEFEFE"/>
<stop offset="1" stop-color="#C2D6DF"/>
</linearGradient>
<linearGradient id="paint2_linear_4867_9289" x1="15.7711" y1="247.201" x2="245.881" y2="17.051" gradientUnits="userSpaceOnUse">
<stop stop-color="#FEFEFE"/>
<stop offset="1" stop-color="#C2D6DF"/>
</linearGradient>
<linearGradient id="paint3_linear_4867_9289" x1="-86.18" y1="145.289" x2="143.97" y2="-84.8605" gradientUnits="userSpaceOnUse">
<stop stop-color="#FEFEFE"/>
<stop offset="1" stop-color="#C2D6DF"/>
</linearGradient>
<linearGradient id="paint4_linear_4867_9289" x1="-74.4969" y1="156.972" x2="155.653" y2="-73.1773" gradientUnits="userSpaceOnUse">
<stop stop-color="#FEFEFE"/>
<stop offset="1" stop-color="#C2D6DF"/>
</linearGradient>
<linearGradient id="paint5_linear_4867_9289" x1="-62.8138" y1="168.655" x2="167.336" y2="-61.4942" gradientUnits="userSpaceOnUse">
<stop stop-color="#FEFEFE"/>
<stop offset="1" stop-color="#C2D6DF"/>
</linearGradient>
</defs>
</svg>
